<?xml version="1.0" encoding="utf-8" standalone="no"?>
<!DOCTYPE svg PUBLIC "-//W3C//DTD SVG 1.1//EN"
  "http://www.w3.org/Graphics/SVG/1.1/DTD/svg11.dtd">
<!-- Created with matplotlib (http://matplotlib.org/) -->
<svg height="288pt" version="1.1" viewBox="0 0 432 288" width="432pt" xmlns="http://www.w3.org/2000/svg" xmlns:xlink="http://www.w3.org/1999/xlink">
 <defs>
  <style type="text/css">
*{stroke-linecap:butt;stroke-linejoin:round;}
  </style>
 </defs>
 <g id="figure_1">
  <g id="patch_1">
   <path d="
M0 288
L432 288
L432 0
L0 0
z
" style="fill:#ffffff;"/>
  </g>
  <g id="axes_1">
   <g id="patch_2">
    <path d="
M15.6727 241.2
L413.515 241.2
L413.515 10.8
L15.6727 10.8
z
" style="fill:#ffffff;"/>
   </g>
   <g id="matplotlib.axis_1">
    <g id="xtick_1">
     <g id="line2d_1">
      <defs>
       <path d="
M0 0
L0 6" id="m44d4eda7dc" style="stroke:#262626;"/>
      </defs>
      <g>
       <use style="fill:#262626;stroke:#262626;" x="15.67265625" xlink:href="#m44d4eda7dc" y="241.2"/>
      </g>
     </g>
     <g id="text_1">
      <!-- 10 -->
      <defs>
       <path d="
M4.15625 35.2969
Q4.15625 48 6.76562 55.7344
Q9.375 63.4844 14.5156 67.6719
Q19.6719 71.875 27.4844 71.875
Q33.25 71.875 37.5938 69.5469
Q41.9375 67.2344 44.7656 62.8594
Q47.6094 58.5 49.2188 52.2188
Q50.8281 45.9531 50.8281 35.2969
Q50.8281 22.7031 48.2344 14.9688
Q45.6562 7.23438 40.5 3
Q35.3594 -1.21875 27.4844 -1.21875
Q17.1406 -1.21875 11.2344 6.20312
Q4.15625 15.1406 4.15625 35.2969
M13.1875 35.2969
Q13.1875 17.6719 17.3125 11.8281
Q21.4375 6 27.4844 6
Q33.5469 6 37.6719 11.8594
Q41.7969 17.7188 41.7969 35.2969
Q41.7969 52.9844 37.6719 58.7812
Q33.5469 64.5938 27.3906 64.5938
Q21.3438 64.5938 17.7188 59.4688
Q13.1875 52.9375 13.1875 35.2969" id="ArialMT-30"/>
       <path d="
M37.25 0
L28.4688 0
L28.4688 56
Q25.2969 52.9844 20.1406 49.9531
Q14.9844 46.9219 10.8906 45.4062
L10.8906 53.9062
Q18.2656 57.375 23.7812 62.2969
Q29.2969 67.2344 31.5938 71.875
L37.25 71.875
z
" id="ArialMT-31"/>
      </defs>
      <g style="fill:#262626;" transform="translate(10.8953125 261.3578125)scale(0.1 -0.1)">
       <use xlink:href="#ArialMT-31"/>
       <use x="55.615234375" xlink:href="#ArialMT-30"/>
      </g>
     </g>
    </g>
    <g id="xtick_2">
     <g id="line2d_2">
      <g>
       <use style="fill:#262626;stroke:#262626;" x="59.87734375" xlink:href="#m44d4eda7dc" y="241.2"/>
      </g>
     </g>
     <g id="text_2">
      <!-- 20 -->
      <defs>
       <path d="
M50.3438 8.45312
L50.3438 0
L3.03125 0
Q2.9375 3.17188 4.04688 6.10938
Q5.85938 10.9375 9.82812 15.625
Q13.8125 20.3125 21.3438 26.4688
Q33.0156 36.0312 37.1094 41.625
Q41.2188 47.2188 41.2188 52.2031
Q41.2188 57.4219 37.4688 61
Q33.7344 64.5938 27.7344 64.5938
Q21.3906 64.5938 17.5781 60.7812
Q13.7656 56.9844 13.7188 50.25
L4.6875 51.1719
Q5.60938 61.2812 11.6562 66.5781
Q17.7188 71.875 27.9375 71.875
Q38.2344 71.875 44.2344 66.1562
Q50.25 60.4531 50.25 52
Q50.25 47.7031 48.4844 43.5469
Q46.7344 39.4062 42.6562 34.8125
Q38.5781 30.2188 29.1094 22.2188
Q21.1875 15.5781 18.9375 13.2031
Q16.7031 10.8438 15.2344 8.45312
z
" id="ArialMT-32"/>
      </defs>
      <g style="fill:#262626;" transform="translate(54.70234375 261.3578125)scale(0.1 -0.1)">
       <use xlink:href="#ArialMT-32"/>
       <use x="55.615234375" xlink:href="#ArialMT-30"/>
      </g>
     </g>
    </g>
    <g id="xtick_3">
     <g id="line2d_3">
      <g>
       <use style="fill:#262626;stroke:#262626;" x="104.08203125" xlink:href="#m44d4eda7dc" y="241.2"/>
      </g>
     </g>
     <g id="text_3">
      <!-- 30 -->
      <defs>
       <path d="
M4.20312 18.8906
L12.9844 20.0625
Q14.5 12.5938 18.1406 9.29688
Q21.7812 6 27 6
Q33.2031 6 37.4688 10.2969
Q41.75 14.5938 41.75 20.9531
Q41.75 27 37.7969 30.9219
Q33.8438 34.8594 27.7344 34.8594
Q25.25 34.8594 21.5312 33.8906
L22.5156 41.6094
Q23.3906 41.5 23.9219 41.5
Q29.5469 41.5 34.0312 44.4219
Q38.5312 47.3594 38.5312 53.4688
Q38.5312 58.2969 35.25 61.4688
Q31.9844 64.6562 26.8125 64.6562
Q21.6875 64.6562 18.2656 61.4219
Q14.8438 58.2031 13.875 51.7656
L5.07812 53.3281
Q6.6875 62.1562 12.3906 67.0156
Q18.1094 71.875 26.6094 71.875
Q32.4688 71.875 37.3906 69.3594
Q42.3281 66.8438 44.9375 62.5
Q47.5625 58.1562 47.5625 53.2656
Q47.5625 48.6406 45.0625 44.8281
Q42.5781 41.0156 37.7031 38.7656
Q44.0469 37.3125 47.5625 32.6875
Q51.0781 28.0781 51.0781 21.1406
Q51.0781 11.7656 44.2344 5.25
Q37.4062 -1.26562 26.9531 -1.26562
Q17.5312 -1.26562 11.2969 4.34375
Q5.07812 9.96875 4.20312 18.8906" id="ArialMT-33"/>
      </defs>
      <g style="fill:#262626;" transform="translate(98.9703125 261.3578125)scale(0.1 -0.1)">
       <use xlink:href="#ArialMT-33"/>
       <use x="55.615234375" xlink:href="#ArialMT-30"/>
      </g>
     </g>
    </g>
    <g id="xtick_4">
     <g id="line2d_4">
      <g>
       <use style="fill:#262626;stroke:#262626;" x="148.28671875" xlink:href="#m44d4eda7dc" y="241.2"/>
      </g>
     </g>
     <g id="text_4">
      <!-- 40 -->
      <defs>
       <path d="
M32.3281 0
L32.3281 17.1406
L1.26562 17.1406
L1.26562 25.2031
L33.9375 71.5781
L41.1094 71.5781
L41.1094 25.2031
L50.7812 25.2031
L50.7812 17.1406
L41.1094 17.1406
L41.1094 0
z

M32.3281 25.2031
L32.3281 57.4688
L9.90625 25.2031
z
" id="ArialMT-34"/>
      </defs>
      <g style="fill:#262626;" transform="translate(143.028125 261.3578125)scale(0.1 -0.1)">
       <use xlink:href="#ArialMT-34"/>
       <use x="55.615234375" xlink:href="#ArialMT-30"/>
      </g>
     </g>
    </g>
    <g id="xtick_5">
     <g id="line2d_5">
      <g>
       <use style="fill:#262626;stroke:#262626;" x="192.49140625" xlink:href="#m44d4eda7dc" y="241.2"/>
      </g>
     </g>
     <g id="text_5">
      <!-- 50 -->
      <defs>
       <path d="
M4.15625 18.75
L13.375 19.5312
Q14.4062 12.7969 18.1406 9.39062
Q21.875 6 27.1562 6
Q33.5 6 37.8906 10.7812
Q42.2812 15.5781 42.2812 23.4844
Q42.2812 31 38.0625 35.3438
Q33.8438 39.7031 27 39.7031
Q22.75 39.7031 19.3281 37.7656
Q15.9219 35.8438 13.9688 32.7656
L5.71875 33.8438
L12.6406 70.6094
L48.25 70.6094
L48.25 62.2031
L19.6719 62.2031
L15.8281 42.9688
Q22.2656 47.4688 29.3438 47.4688
Q38.7188 47.4688 45.1562 40.9688
Q51.6094 34.4688 51.6094 24.2656
Q51.6094 14.5469 45.9531 7.46875
Q39.0625 -1.21875 27.1562 -1.21875
Q17.3906 -1.21875 11.2031 4.25
Q5.03125 9.71875 4.15625 18.75" id="ArialMT-35"/>
      </defs>
      <g style="fill:#262626;" transform="translate(187.37734375 261.3578125)scale(0.1 -0.1)">
       <use xlink:href="#ArialMT-35"/>
       <use x="55.615234375" xlink:href="#ArialMT-30"/>
      </g>
     </g>
    </g>
    <g id="xtick_6">
     <g id="line2d_6">
      <g>
       <use style="fill:#262626;stroke:#262626;" x="236.69609375" xlink:href="#m44d4eda7dc" y="241.2"/>
      </g>
     </g>
     <g id="text_6">
      <!-- 60 -->
      <defs>
       <path d="
M49.75 54.0469
L41.0156 53.375
Q39.8438 58.5469 37.7031 60.8906
Q34.125 64.6562 28.9062 64.6562
Q24.7031 64.6562 21.5312 62.3125
Q17.3906 59.2812 14.9844 53.4688
Q12.5938 47.6562 12.5 36.9219
Q15.6719 41.75 20.2656 44.0938
Q24.8594 46.4375 29.8906 46.4375
Q38.6719 46.4375 44.8438 39.9688
Q51.0312 33.5 51.0312 23.25
Q51.0312 16.5 48.125 10.7188
Q45.2188 4.9375 40.1406 1.85938
Q35.0625 -1.21875 28.6094 -1.21875
Q17.625 -1.21875 10.6875 6.85938
Q3.76562 14.9375 3.76562 33.5
Q3.76562 54.25 11.4219 63.6719
Q18.1094 71.875 29.4375 71.875
Q37.8906 71.875 43.2812 67.1406
Q48.6875 62.4062 49.75 54.0469
M13.875 23.1875
Q13.875 18.6562 15.7969 14.5
Q17.7188 10.3594 21.1875 8.17188
Q24.6562 6 28.4688 6
Q34.0312 6 38.0312 10.4844
Q42.0469 14.9844 42.0469 22.7031
Q42.0469 30.125 38.0781 34.3906
Q34.125 38.6719 28.125 38.6719
Q22.1719 38.6719 18.0156 34.3906
Q13.875 30.125 13.875 23.1875" id="ArialMT-36"/>
      </defs>
      <g style="fill:#262626;" transform="translate(231.5625 261.3578125)scale(0.1 -0.1)">
       <use xlink:href="#ArialMT-36"/>
       <use x="55.615234375" xlink:href="#ArialMT-30"/>
      </g>
     </g>
    </g>
    <g id="xtick_7">
     <g id="line2d_7">
      <g>
       <use style="fill:#262626;stroke:#262626;" x="280.90078125" xlink:href="#m44d4eda7dc" y="241.2"/>
      </g>
     </g>
     <g id="text_7">
      <!-- 70 -->
      <defs>
       <path d="
M4.73438 62.2031
L4.73438 70.6562
L51.0781 70.6562
L51.0781 63.8125
Q44.2344 56.5469 37.5156 44.4844
Q30.8125 32.4219 27.1562 19.6719
Q24.5156 10.6875 23.7812 0
L14.75 0
Q14.8906 8.45312 18.0625 20.4062
Q21.2344 32.375 27.1719 43.4844
Q33.1094 54.5938 39.7969 62.2031
z
" id="ArialMT-37"/>
      </defs>
      <g style="fill:#262626;" transform="translate(275.815625 261.3578125)scale(0.1 -0.1)">
       <use xlink:href="#ArialMT-37"/>
       <use x="55.615234375" xlink:href="#ArialMT-30"/>
      </g>
     </g>
    </g>
    <g id="xtick_8">
     <g id="line2d_8">
      <g>
       <use style="fill:#262626;stroke:#262626;" x="325.10546875" xlink:href="#m44d4eda7dc" y="241.2"/>
      </g>
     </g>
     <g id="text_8">
      <!-- 80 -->
      <defs>
       <path d="
M17.6719 38.8125
Q12.2031 40.8281 9.5625 44.5312
Q6.9375 48.25 6.9375 53.4219
Q6.9375 61.2344 12.5469 66.5469
Q18.1719 71.875 27.4844 71.875
Q36.8594 71.875 42.5781 66.4219
Q48.2969 60.9844 48.2969 53.1719
Q48.2969 48.1875 45.6719 44.5
Q43.0625 40.8281 37.75 38.8125
Q44.3438 36.6719 47.7812 31.875
Q51.2188 27.0938 51.2188 20.4531
Q51.2188 11.2812 44.7188 5.03125
Q38.2344 -1.21875 27.6406 -1.21875
Q17.0469 -1.21875 10.5469 5.04688
Q4.04688 11.3281 4.04688 20.7031
Q4.04688 27.6875 7.59375 32.3906
Q11.1406 37.1094 17.6719 38.8125
M15.9219 53.7188
Q15.9219 48.6406 19.1875 45.4062
Q22.4688 42.1875 27.6875 42.1875
Q32.7656 42.1875 36.0156 45.375
Q39.2656 48.5781 39.2656 53.2188
Q39.2656 58.0625 35.9062 61.3594
Q32.5625 64.6562 27.5938 64.6562
Q22.5625 64.6562 19.2344 61.4219
Q15.9219 58.2031 15.9219 53.7188
M13.0938 20.6562
Q13.0938 16.8906 14.875 13.375
Q16.6562 9.85938 20.1719 7.92188
Q23.6875 6 27.7344 6
Q34.0312 6 38.125 10.0469
Q42.2344 14.1094 42.2344 20.3594
Q42.2344 26.7031 38.0156 30.8594
Q33.7969 35.0156 27.4375 35.0156
Q21.2344 35.0156 17.1562 30.9062
Q13.0938 26.8125 13.0938 20.6562" id="ArialMT-38"/>
      </defs>
      <g style="fill:#262626;" transform="translate(319.9859375 261.3578125)scale(0.1 -0.1)">
       <use xlink:href="#ArialMT-38"/>
       <use x="55.615234375" xlink:href="#ArialMT-30"/>
      </g>
     </g>
    </g>
    <g id="xtick_9">
     <g id="line2d_9">
      <g>
       <use style="fill:#262626;stroke:#262626;" x="369.31015625" xlink:href="#m44d4eda7dc" y="241.2"/>
      </g>
     </g>
     <g id="text_9">
      <!-- 90 -->
      <defs>
       <path d="
M5.46875 16.5469
L13.9219 17.3281
Q14.9844 11.375 18.0156 8.6875
Q21.0469 6 25.7812 6
Q29.8281 6 32.875 7.85938
Q35.9375 9.71875 37.8906 12.8125
Q39.8438 15.9219 41.1562 21.1875
Q42.4844 26.4688 42.4844 31.9375
Q42.4844 32.5156 42.4375 33.6875
Q39.7969 29.5 35.2344 26.875
Q30.6719 24.2656 25.3438 24.2656
Q16.4531 24.2656 10.2969 30.7031
Q4.15625 37.1562 4.15625 47.7031
Q4.15625 58.5938 10.5781 65.2344
Q17 71.875 26.6562 71.875
Q33.6406 71.875 39.4219 68.1094
Q45.2188 64.3594 48.2188 57.3906
Q51.2188 50.4375 51.2188 37.25
Q51.2188 23.5312 48.2344 15.4062
Q45.2656 7.28125 39.375 3.03125
Q33.5 -1.21875 25.5938 -1.21875
Q17.1875 -1.21875 11.8594 3.4375
Q6.54688 8.10938 5.46875 16.5469
M41.4531 48.1406
Q41.4531 55.7188 37.4219 60.1562
Q33.4062 64.5938 27.7344 64.5938
Q21.875 64.5938 17.5312 59.8125
Q13.1875 55.0312 13.1875 47.4062
Q13.1875 40.5781 17.3125 36.2969
Q21.4375 32.0312 27.4844 32.0312
Q33.5938 32.0312 37.5156 36.2969
Q41.4531 40.5781 41.4531 48.1406" id="ArialMT-39"/>
      </defs>
      <g style="fill:#262626;" transform="translate(364.19609375 261.3578125)scale(0.1 -0.1)">
       <use xlink:href="#ArialMT-39"/>
       <use x="55.615234375" xlink:href="#ArialMT-30"/>
      </g>
     </g>
    </g>
    <g id="xtick_10">
     <g id="line2d_10">
      <g>
       <use style="fill:#262626;stroke:#262626;" x="413.51484375" xlink:href="#m44d4eda7dc" y="241.2"/>
      </g>
     </g>
     <g id="text_10">
      <!-- 100 -->
      <g style="fill:#262626;" transform="translate(405.95703125 261.3578125)scale(0.1 -0.1)">
       <use xlink:href="#ArialMT-31"/>
       <use x="55.615234375" xlink:href="#ArialMT-30"/>
       <use x="111.23046875" xlink:href="#ArialMT-30"/>
      </g>
     </g>
    </g>
    <g id="text_11">
     <!-- Age -->
     <defs>
      <path d="
M-0.140625 0
L27.3438 71.5781
L37.5469 71.5781
L66.8438 0
L56.0625 0
L47.7031 21.6875
L17.7812 21.6875
L9.90625 0
z

M20.5156 29.3906
L44.7812 29.3906
L37.3125 49.2188
Q33.8906 58.25 32.2344 64.0625
Q30.8594 57.1719 28.375 50.3906
z
" id="ArialMT-41"/>
      <path d="
M4.98438 -4.29688
L13.5312 -5.5625
Q14.0625 -9.51562 16.5 -11.3281
Q19.7812 -13.7656 25.4375 -13.7656
Q31.5469 -13.7656 34.8594 -11.3281
Q38.1875 -8.89062 39.3594 -4.5
Q40.0469 -1.8125 39.9844 6.78125
Q34.2344 0 25.6406 0
Q14.9375 0 9.07812 7.71875
Q3.21875 15.4375 3.21875 26.2188
Q3.21875 33.6406 5.90625 39.9062
Q8.59375 46.1875 13.6875 49.6094
Q18.7969 53.0312 25.6875 53.0312
Q34.8594 53.0312 40.8281 45.6094
L40.8281 51.8594
L48.9219 51.8594
L48.9219 7.03125
Q48.9219 -5.07812 46.4531 -10.125
Q44 -15.1875 38.6406 -18.1094
Q33.2969 -21.0469 25.4844 -21.0469
Q16.2188 -21.0469 10.5 -16.875
Q4.78125 -12.7031 4.98438 -4.29688
M12.25 26.8594
Q12.25 16.6562 16.2969 11.9688
Q20.3594 7.28125 26.4688 7.28125
Q32.5156 7.28125 36.6094 11.9375
Q40.7188 16.6094 40.7188 26.5625
Q40.7188 36.0781 36.5 40.9062
Q32.2812 45.75 26.3125 45.75
Q20.4531 45.75 16.3438 40.9844
Q12.25 36.2344 12.25 26.8594" id="ArialMT-67"/>
      <path d="
M42.0938 16.7031
L51.1719 15.5781
Q49.0312 7.625 43.2188 3.21875
Q37.4062 -1.17188 28.375 -1.17188
Q17 -1.17188 10.3281 5.82812
Q3.65625 12.8438 3.65625 25.4844
Q3.65625 38.5781 10.3906 45.7969
Q17.1406 53.0312 27.875 53.0312
Q38.2812 53.0312 44.875 45.9531
Q51.4688 38.875 51.4688 26.0312
Q51.4688 25.25 51.4219 23.6875
L12.75 23.6875
Q13.2344 15.1406 17.5781 10.5938
Q21.9219 6.0625 28.4219 6.0625
Q33.25 6.0625 36.6719 8.59375
Q40.0938 11.1406 42.0938 16.7031
M13.2344 30.9062
L42.1875 30.9062
Q41.6094 37.4531 38.875 40.7188
Q34.6719 45.7969 27.9844 45.7969
Q21.9219 45.7969 17.7969 41.75
Q13.6719 37.7031 13.2344 30.9062" id="ArialMT-65"/>
     </defs>
     <g style="fill:#262626;" transform="translate(205.028046875 276.21890625)scale(0.11 -0.11)">
      <use xlink:href="#ArialMT-41"/>
      <use x="66.69921875" xlink:href="#ArialMT-67"/>
      <use x="122.314453125" xlink:href="#ArialMT-65"/>
     </g>
    </g>
   </g>
   <g id="matplotlib.axis_2"/>
   <g id="PolyCollection_1">
    <defs>
     <path d="
M24.9556 -180.037
L24.9556 -143.963
L28.5188 -141.497
L32.082 -138.74
L35.6451 -135.667
L39.2083 -132.259
L42.7715 -128.505
L46.3346 -124.409
L49.8978 -119.986
L53.461 -115.271
L57.0241 -110.32
L60.5873 -105.206
L64.1505 -100.022
L67.7136 -94.8773
L71.2768 -89.8953
L74.84 -85.2061
L78.4031 -80.9412
L81.9663 -77.2272
L85.5295 -74.1779
L89.0926 -71.8885
L92.6558 -70.4289
L96.219 -69.84
L99.7821 -70.1307
L103.345 -71.2772
L106.908 -73.2245
L110.472 -75.8897
L114.035 -79.1669
L117.598 -82.9335
L121.161 -87.0572
L124.724 -91.4035
L128.287 -95.8423
L131.851 -100.254
L135.414 -104.535
L138.977 -108.6
L142.54 -112.384
L146.103 -115.845
L149.666 -118.959
L153.23 -121.718
L156.793 -124.132
L160.356 -126.218
L163.919 -128.004
L167.482 -129.517
L171.045 -130.788
L174.609 -131.848
L178.172 -132.721
L181.735 -133.433
L185.298 -134.004
L188.861 -134.452
L192.424 -134.796
L195.988 -135.054
L199.551 -135.243
L203.114 -135.384
L206.677 -135.5
L210.24 -135.616
L213.803 -135.757
L217.367 -135.949
L220.93 -136.217
L224.493 -136.58
L228.056 -137.057
L231.619 -137.657
L235.182 -138.383
L238.746 -139.229
L242.309 -140.182
L245.872 -141.221
L249.435 -142.317
L252.998 -143.436
L256.561 -144.541
L260.125 -145.594
L263.688 -146.556
L267.251 -147.392
L270.814 -148.072
L274.377 -148.572
L277.94 -148.877
L281.504 -148.977
L285.067 -148.872
L288.63 -148.571
L292.193 -148.088
L295.756 -147.445
L299.319 -146.668
L302.883 -145.787
L306.446 -144.832
L310.009 -143.836
L313.572 -142.831
L317.135 -141.846
L320.698 -140.911
L324.262 -140.05
L327.825 -139.286
L331.388 -138.639
L334.951 -138.124
L338.514 -137.756
L342.077 -137.546
L345.641 -137.501
L349.204 -137.627
L352.767 -137.925
L356.33 -138.394
L359.893 -139.03
L363.456 -139.824
L367.02 -140.765
L370.583 -141.839
L374.146 -143.025
L377.709 -144.303
L377.709 -179.697
L377.709 -179.697
L374.146 -180.975
L370.583 -182.161
L367.02 -183.235
L363.456 -184.176
L359.893 -184.97
L356.33 -185.606
L352.767 -186.075
L349.204 -186.373
L345.641 -186.499
L342.077 -186.454
L338.514 -186.244
L334.951 -185.876
L331.388 -185.361
L327.825 -184.714
L324.262 -183.95
L320.698 -183.089
L317.135 -182.154
L313.572 -181.169
L310.009 -180.164
L306.446 -179.168
L302.883 -178.213
L299.319 -177.332
L295.756 -176.555
L292.193 -175.912
L288.63 -175.429
L285.067 -175.128
L281.504 -175.023
L277.94 -175.123
L274.377 -175.428
L270.814 -175.928
L267.251 -176.608
L263.688 -177.444
L260.125 -178.406
L256.561 -179.459
L252.998 -180.564
L249.435 -181.683
L245.872 -182.779
L242.309 -183.818
L238.746 -184.771
L235.182 -185.617
L231.619 -186.343
L228.056 -186.943
L224.493 -187.42
L220.93 -187.783
L217.367 -188.051
L213.803 -188.243
L210.24 -188.384
L206.677 -188.5
L203.114 -188.616
L199.551 -188.757
L195.988 -188.946
L192.424 -189.204
L188.861 -189.548
L185.298 -189.996
L181.735 -190.567
L178.172 -191.279
L174.609 -192.152
L171.045 -193.212
L167.482 -194.483
L163.919 -195.996
L160.356 -197.782
L156.793 -199.868
L153.23 -202.282
L149.666 -205.041
L146.103 -208.155
L142.54 -211.616
L138.977 -215.4
L135.414 -219.465
L131.851 -223.746
L128.287 -228.158
L124.724 -232.597
L121.161 -236.943
L117.598 -241.067
L114.035 -244.833
L110.472 -248.11
L106.908 -250.775
L103.345 -252.723
L99.7821 -253.869
L96.219 -254.16
L92.6558 -253.571
L89.0926 -252.112
L85.5295 -249.822
L81.9663 -246.773
L78.4031 -243.059
L74.84 -238.794
L71.2768 -234.105
L67.7136 -229.123
L64.1505 -223.978
L60.5873 -218.794
L57.0241 -213.68
L53.461 -208.729
L49.8978 -204.014
L46.3346 -199.591
L42.7715 -195.495
L39.2083 -191.741
L35.6451 -188.333
L32.082 -185.26
L28.5188 -182.503
L24.9556 -180.037
z
" id="mf57923a23b" style="stroke:#dcdddd;stroke-width:0.3;"/>
    </defs>
    <g clip-path="url(#p7957f26610)">
     <use style="fill:#dcdddd;stroke:#dcdddd;stroke-width:0.3;" x="0.0" xlink:href="#mf57923a23b" y="288.0"/>
    </g>
   </g>
   <g id="line2d_11">
    <path clip-path="url(#p7957f26610)" d="
M311.844 144.683
L311.844 107.317" style="fill:none;stroke:#848484;stroke-linecap:round;stroke-width:0.8;"/>
   </g>
   <g id="line2d_12">
    <path clip-path="url(#p7957f26610)" d="
M333.946 149.745
L333.946 102.255" style="fill:none;stroke:#848484;stroke-linecap:round;stroke-width:0.8;"/>
   </g>
   <g id="line2d_13">
    <path clip-path="url(#p7957f26610)" d="
M104.082 216.383
L104.082 35.6165" style="fill:none;stroke:#848484;stroke-linecap:round;stroke-width:0.8;"/>
   </g>
   <g id="line2d_14">
    <path clip-path="url(#p7957f26610)" d="
M99.6616 217.893
L99.6616 34.1066" style="fill:none;stroke:#848484;stroke-linecap:round;stroke-width:0.8;"/>
   </g>
   <g id="line2d_15">
    <path clip-path="url(#p7957f26610)" d="
M373.731 145.119
L373.731 106.881" style="fill:none;stroke:#848484;stroke-linecap:round;stroke-width:0.8;"/>
   </g>
   <g id="line2d_16">
    <path clip-path="url(#p7957f26610)" d="
M356.049 149.649
L356.049 102.351" style="fill:none;stroke:#848484;stroke-linecap:round;stroke-width:0.8;"/>
   </g>
   <g id="line2d_17">
    <path clip-path="url(#p7957f26610)" d="
M28.9341 146.808
L28.9341 105.192" style="fill:none;stroke:#848484;stroke-linecap:round;stroke-width:0.8;"/>
   </g>
   <g id="line2d_18">
    <path clip-path="url(#p7957f26610)" d="
M112.923 209.914
L112.923 42.0858" style="fill:none;stroke:#848484;stroke-linecap:round;stroke-width:0.8;"/>
   </g>
   <g id="line2d_19">
    <path clip-path="url(#p7957f26610)" d="
M112.923 209.914
L112.923 42.0858" style="fill:none;stroke:#848484;stroke-linecap:round;stroke-width:0.8;"/>
   </g>
   <g id="line2d_20">
    <path clip-path="url(#p7957f26610)" d="
M81.9797 210.786
L81.9797 41.2144" style="fill:none;stroke:#848484;stroke-linecap:round;stroke-width:0.8;"/>
   </g>
   <g id="line2d_21">
    <path clip-path="url(#p7957f26610)" d="
M86.4002 214.455
L86.4002 37.5452" style="fill:none;stroke:#848484;stroke-linecap:round;stroke-width:0.8;"/>
   </g>
   <g id="line2d_22">
    <path clip-path="url(#p7957f26610)" d="
M64.2978 188.193
L64.2978 63.8073" style="fill:none;stroke:#848484;stroke-linecap:round;stroke-width:0.8;"/>
   </g>
   <g id="line2d_23">
    <path clip-path="url(#p7957f26610)" d="
M90.8206 216.926
L90.8206 35.0738" style="fill:none;stroke:#848484;stroke-linecap:round;stroke-width:0.8;"/>
   </g>
   <g id="line2d_24">
    <path clip-path="url(#p7957f26610)" d="
M210.173 152.386
L210.173 99.614" style="fill:none;stroke:#848484;stroke-linecap:round;stroke-width:0.8;"/>
   </g>
   <g id="line2d_25">
    <path clip-path="url(#p7957f26610)" d="
M232.276 150.219
L232.276 101.781" style="fill:none;stroke:#848484;stroke-linecap:round;stroke-width:0.8;"/>
   </g>
   <g id="line2d_26">
    <path clip-path="url(#p7957f26610)" d="
M95.2411 218.086
L95.2411 33.9138" style="fill:none;stroke:#848484;stroke-linecap:round;stroke-width:0.8;"/>
   </g>
   <g id="line2d_27">
    <path clip-path="url(#p7957f26610)" d="
M99.6616 217.893
L99.6616 34.1066" style="fill:none;stroke:#848484;stroke-linecap:round;stroke-width:0.8;"/>
   </g>
   <g id="line2d_28">
    <path clip-path="url(#p7957f26610)" d="
M99.6616 217.893
L99.6616 34.1066" style="fill:none;stroke:#848484;stroke-linecap:round;stroke-width:0.8;"/>
   </g>
   <g id="line2d_29">
    <path clip-path="url(#p7957f26610)" d="
M165.969 159.095
L165.969 92.9052" style="fill:none;stroke:#848484;stroke-linecap:round;stroke-width:0.8;"/>
   </g>
   <g id="line2d_30">
    <path clip-path="url(#p7957f26610)" d="
M174.81 156.098
L174.81 95.9016" style="fill:none;stroke:#848484;stroke-linecap:round;stroke-width:0.8;"/>
   </g>
   <g id="line2d_31">
    <path clip-path="url(#p7957f26610)" d="
M81.9797 210.786
L81.9797 41.2144" style="fill:none;stroke:#848484;stroke-linecap:round;stroke-width:0.8;"/>
   </g>
   <g id="line2d_32">
    <path clip-path="url(#p7957f26610)" d="
M139.446 178.885
L139.446 73.115" style="fill:none;stroke:#848484;stroke-linecap:round;stroke-width:0.8;"/>
   </g>
   <g id="line2d_33">
    <path clip-path="url(#p7957f26610)" d="
M241.117 148.147
L241.117 103.853" style="fill:none;stroke:#848484;stroke-linecap:round;stroke-width:0.8;"/>
   </g>
   <g id="line2d_34">
    <path clip-path="url(#p7957f26610)" d="
M24.9556 144.037
L28.5188 146.503
L32.082 149.26
L35.6451 152.333
L39.2083 155.741
L42.7715 159.495
L46.3346 163.591
L49.8978 168.014
L53.461 172.729
L57.0241 177.68
L60.5873 182.794
L64.1505 187.978
L67.7136 193.123
L71.2768 198.105
L74.84 202.794
L78.4031 207.059
L81.9663 210.773
L85.5295 213.822
L89.0926 216.112
L92.6558 217.571
L96.219 218.16
L99.7821 217.869
L103.345 216.723
L106.908 214.775
L110.472 212.11
L114.035 208.833
L117.598 205.067
L121.161 200.943
L124.724 196.597
L128.287 192.158
L131.851 187.746
L135.414 183.465
L138.977 179.4
L142.54 175.616
L146.103 172.155
L149.666 169.041
L153.23 166.282
L156.793 163.868
L160.356 161.782
L163.919 159.996
L167.482 158.483
L171.045 157.212
L174.609 156.152
L178.172 155.279
L181.735 154.567
L185.298 153.996
L188.861 153.548
L192.424 153.204
L195.988 152.946
L199.551 152.757
L203.114 152.616
L206.677 152.5
L210.24 152.384
L213.803 152.243
L217.367 152.051
L220.93 151.783
L224.493 151.42
L228.056 150.943
L231.619 150.343
L235.182 149.617
L238.746 148.771
L242.309 147.818
L245.872 146.779
L249.435 145.683
L252.998 144.564
L256.561 143.459
L260.125 142.406
L263.688 141.444
L267.251 140.608
L270.814 139.928
L274.377 139.428
L277.94 139.123
L281.504 139.023
L285.067 139.128
L288.63 139.429
L292.193 139.912
L295.756 140.555
L299.319 141.332
L302.883 142.213
L306.446 143.168
L310.009 144.164
L313.572 145.169
L317.135 146.154
L320.698 147.089
L324.262 147.95
L327.825 148.714
L331.388 149.361
L334.951 149.876
L338.514 150.244
L342.077 150.454
L345.641 150.499
L349.204 150.373
L352.767 150.075
L356.33 149.606
L359.893 148.97
L363.456 148.176
L367.02 147.235
L370.583 146.161
L374.146 144.975
L377.709 143.697" style="fill:none;stroke:#848484;stroke-linecap:round;stroke-width:2;"/>
   </g>
   <g id="line2d_35">
    <path clip-path="url(#p7957f26610)" d="
M24.9556 107.963
L28.5188 105.497
L32.082 102.74
L35.6451 99.6673
L39.2083 96.259
L42.7715 92.5055
L46.3346 88.4086
L49.8978 83.9856
L53.461 79.2714
L57.0241 74.32
L60.5873 69.2058
L64.1505 64.0216
L67.7136 58.8773
L71.2768 53.8953
L74.84 49.2061
L78.4031 44.9412
L81.9663 41.2272
L85.5295 38.1779
L89.0926 35.8885
L92.6558 34.4289
L96.219 33.84
L99.7821 34.1307
L103.345 35.2772
L106.908 37.2245
L110.472 39.8897
L114.035 43.1669
L117.598 46.9335
L121.161 51.0572
L124.724 55.4035
L128.287 59.8423
L131.851 64.2541
L135.414 68.535
L138.977 72.5999
L142.54 76.3845
L146.103 79.8453
L149.666 82.9587
L153.23 85.7182
L156.793 88.132
L160.356 90.2185
L163.919 92.0036
L167.482 93.5168
L171.045 94.7884
L174.609 95.8476
L178.172 96.7213
L181.735 97.4331
L185.298 98.0039
L188.861 98.4525
L192.424 98.7965
L195.988 99.0536
L199.551 99.2426
L203.114 99.3841
L206.677 99.5005
L210.24 99.6164
L213.803 99.7574
L217.367 99.9494
L220.93 100.217
L224.493 100.58
L228.056 101.057
L231.619 101.657
L235.182 102.383
L238.746 103.229
L242.309 104.182
L245.872 105.221
L249.435 106.317
L252.998 107.436
L256.561 108.541
L260.125 109.594
L263.688 110.556
L267.251 111.392
L270.814 112.072
L274.377 112.572
L277.94 112.877
L281.504 112.977
L285.067 112.872
L288.63 112.571
L292.193 112.088
L295.756 111.445
L299.319 110.668
L302.883 109.787
L306.446 108.832
L310.009 107.836
L313.572 106.831
L317.135 105.846
L320.698 104.911
L324.262 104.05
L327.825 103.286
L331.388 102.639
L334.951 102.124
L338.514 101.756
L342.077 101.546
L345.641 101.501
L349.204 101.627
L352.767 101.925
L356.33 102.394
L359.893 103.03
L363.456 103.824
L367.02 104.765
L370.583 105.839
L374.146 107.025
L377.709 108.303" style="fill:none;stroke:#848484;stroke-linecap:round;stroke-width:2;"/>
   </g>
   <g id="line2d_36">
    <path clip-path="url(#p7957f26610)" d="
M160.779 241.2
L160.779 10.8" style="fill:none;stroke:#ac1735;stroke-linecap:round;stroke-width:2;"/>
   </g>
   <g id="patch_3">
    <path d="
M15.6727 241.2
L413.515 241.2" style="fill:none;stroke:#262626;stroke-linecap:square;stroke-linejoin:miter;stroke-width:1.25;"/>
   </g>
   <g id="text_12">
    <!-- Mean: 42.83 -->
    <defs>
     <path d="
M40.4375 6.39062
Q35.5469 2.25 31.0312 0.53125
Q26.5156 -1.17188 21.3438 -1.17188
Q12.7969 -1.17188 8.20312 3
Q3.60938 7.17188 3.60938 13.6719
Q3.60938 17.4844 5.34375 20.625
Q7.07812 23.7812 9.89062 25.6875
Q12.7031 27.5938 16.2188 28.5625
Q18.7969 29.25 24.0312 29.8906
Q34.6719 31.1562 39.7031 32.9062
Q39.75 34.7188 39.75 35.2031
Q39.75 40.5781 37.25 42.7812
Q33.8906 45.75 27.25 45.75
Q21.0469 45.75 18.0938 43.5781
Q15.1406 41.4062 13.7188 35.8906
L5.125 37.0625
Q6.29688 42.5781 8.98438 45.9688
Q11.6719 49.3594 16.75 51.1875
Q21.8281 53.0312 28.5156 53.0312
Q35.1562 53.0312 39.2969 51.4688
Q43.4531 49.9062 45.4062 47.5312
Q47.3594 45.1719 48.1406 41.5469
Q48.5781 39.3125 48.5781 33.4531
L48.5781 21.7344
Q48.5781 9.46875 49.1406 6.21875
Q49.7031 2.98438 51.375 0
L42.1875 0
Q40.8281 2.73438 40.4375 6.39062
M39.7031 26.0312
Q34.9062 24.0781 25.3438 22.7031
Q19.9219 21.9219 17.6719 20.9375
Q15.4375 19.9688 14.2031 18.0938
Q12.9844 16.2188 12.9844 13.9219
Q12.9844 10.4062 15.6406 8.0625
Q18.3125 5.71875 23.4375 5.71875
Q28.5156 5.71875 32.4688 7.9375
Q36.4219 10.1562 38.2812 14.0156
Q39.7031 17 39.7031 22.7969
z
" id="ArialMT-61"/>
     <path d="
M9.03125 41.8438
L9.03125 51.8594
L19.0469 51.8594
L19.0469 41.8438
z

M9.03125 0
L9.03125 10.0156
L19.0469 10.0156
L19.0469 0
z
" id="ArialMT-3a"/>
     <path d="
M9.07812 0
L9.07812 10.0156
L19.0938 10.0156
L19.0938 0
z
" id="ArialMT-2e"/>
     <path d="
M6.59375 0
L6.59375 51.8594
L14.5 51.8594
L14.5 44.4844
Q20.2188 53.0312 31 53.0312
Q35.6875 53.0312 39.625 51.3438
Q43.5625 49.6562 45.5156 46.9219
Q47.4688 44.1875 48.25 40.4375
Q48.7344 37.9844 48.7344 31.8906
L48.7344 0
L39.9375 0
L39.9375 31.5469
Q39.9375 36.9219 38.9062 39.5781
Q37.8906 42.2344 35.2812 43.8125
Q32.6719 45.4062 29.1562 45.4062
Q23.5312 45.4062 19.4531 41.8438
Q15.375 38.2812 15.375 28.3281
L15.375 0
z
" id="ArialMT-6e"/>
     <path d="
M7.42188 0
L7.42188 71.5781
L21.6875 71.5781
L38.625 20.9062
Q40.9688 13.8125 42.0469 10.2969
Q43.2656 14.2031 45.8438 21.7812
L62.9844 71.5781
L75.7344 71.5781
L75.7344 0
L66.6094 0
L66.6094 59.9062
L45.7969 0
L37.25 0
L16.5469 60.9375
L16.5469 0
z
" id="ArialMT-4d"/>
     <path id="ArialMT-20"/>
    </defs>
    <g style="fill:#ac1735;" transform="translate(166.458689198 29.232)scale(0.144 -0.144)">
     <use xlink:href="#ArialMT-4d"/>
     <use x="83.30078125" xlink:href="#ArialMT-65"/>
     <use x="138.916015625" xlink:href="#ArialMT-61"/>
     <use x="194.53125" xlink:href="#ArialMT-6e"/>
     <use x="250.146484375" xlink:href="#ArialMT-3a"/>
     <use x="277.9296875" xlink:href="#ArialMT-20"/>
     <use x="305.712890625" xlink:href="#ArialMT-34"/>
     <use x="361.328125" xlink:href="#ArialMT-32"/>
     <use x="416.943359375" xlink:href="#ArialMT-2e"/>
     <use x="444.7265625" xlink:href="#ArialMT-38"/>
     <use x="500.341796875" xlink:href="#ArialMT-33"/>
    </g>
   </g>
  </g>
 </g>
 <defs>
  <clipPath id="p7957f26610">
   <rect height="230.4" width="397.8421875" x="15.67265625" y="10.8"/>
  </clipPath>
 </defs>
</svg>
