<?xml version="1.0" encoding="utf-8" standalone="no"?>
<!DOCTYPE svg PUBLIC "-//W3C//DTD SVG 1.1//EN"
  "http://www.w3.org/Graphics/SVG/1.1/DTD/svg11.dtd">
<!-- Created with matplotlib (http://matplotlib.org/) -->
<svg height="288pt" version="1.1" viewBox="0 0 432 288" width="432pt" xmlns="http://www.w3.org/2000/svg" xmlns:xlink="http://www.w3.org/1999/xlink">
 <defs>
  <style type="text/css">
*{stroke-linecap:butt;stroke-linejoin:round;}
  </style>
 </defs>
 <g id="figure_1">
  <g id="patch_1">
   <path d="
M0 288
L432 288
L432 0
L0 0
z
" style="fill:#ffffff;"/>
  </g>
  <g id="axes_1">
   <g id="patch_2">
    <path d="
M15.982 241.2
L418.838 241.2
L418.838 10.8
L15.982 10.8
z
" style="fill:#ffffff;"/>
   </g>
   <g id="matplotlib.axis_1">
    <g id="xtick_1">
     <g id="line2d_1">
      <defs>
       <path d="
M0 0
L0 6" id="m44d4eda7dc" style="stroke:#262626;"/>
      </defs>
      <g>
       <use style="fill:#262626;stroke:#262626;" x="15.98203125" xlink:href="#m44d4eda7dc" y="241.2"/>
      </g>
     </g>
     <g id="text_1">
      <!-- −2 -->
      <defs>
       <path d="
M52.8281 31.2031
L5.5625 31.2031
L5.5625 39.4062
L52.8281 39.4062
z
" id="ArialMT-2212"/>
       <path d="
M50.3438 8.45312
L50.3438 0
L3.03125 0
Q2.9375 3.17188 4.04688 6.10938
Q5.85938 10.9375 9.82812 15.625
Q13.8125 20.3125 21.3438 26.4688
Q33.0156 36.0312 37.1094 41.625
Q41.2188 47.2188 41.2188 52.2031
Q41.2188 57.4219 37.4688 61
Q33.7344 64.5938 27.7344 64.5938
Q21.3906 64.5938 17.5781 60.7812
Q13.7656 56.9844 13.7188 50.25
L4.6875 51.1719
Q5.60938 61.2812 11.6562 66.5781
Q17.7188 71.875 27.9375 71.875
Q38.2344 71.875 44.2344 66.1562
Q50.25 60.4531 50.25 52
Q50.25 47.7031 48.4844 43.5469
Q46.7344 39.4062 42.6562 34.8125
Q38.5781 30.2188 29.1094 22.2188
Q21.1875 15.5781 18.9375 13.2031
Q16.7031 10.8438 15.2344 8.45312
z
" id="ArialMT-32"/>
      </defs>
      <g style="fill:#262626;" transform="translate(10.82265625 261.3578125)scale(0.1 -0.1)">
       <use xlink:href="#ArialMT-2212"/>
       <use x="58.3984375" xlink:href="#ArialMT-32"/>
      </g>
     </g>
    </g>
    <g id="xtick_2">
     <g id="line2d_2">
      <g>
       <use style="fill:#262626;stroke:#262626;" x="73.5328125" xlink:href="#m44d4eda7dc" y="241.2"/>
      </g>
     </g>
     <g id="text_2">
      <!-- −1 -->
      <defs>
       <path d="
M37.25 0
L28.4688 0
L28.4688 56
Q25.2969 52.9844 20.1406 49.9531
Q14.9844 46.9219 10.8906 45.4062
L10.8906 53.9062
Q18.2656 57.375 23.7812 62.2969
Q29.2969 67.2344 31.5938 71.875
L37.25 71.875
z
" id="ArialMT-31"/>
      </defs>
      <g style="fill:#262626;" transform="translate(69.028125 261.3578125)scale(0.1 -0.1)">
       <use xlink:href="#ArialMT-2212"/>
       <use x="58.3984375" xlink:href="#ArialMT-31"/>
      </g>
     </g>
    </g>
    <g id="xtick_3">
     <g id="line2d_3">
      <g>
       <use style="fill:#262626;stroke:#262626;" x="131.08359375" xlink:href="#m44d4eda7dc" y="241.2"/>
      </g>
     </g>
     <g id="text_3">
      <!-- 0 -->
      <defs>
       <path d="
M4.15625 35.2969
Q4.15625 48 6.76562 55.7344
Q9.375 63.4844 14.5156 67.6719
Q19.6719 71.875 27.4844 71.875
Q33.25 71.875 37.5938 69.5469
Q41.9375 67.2344 44.7656 62.8594
Q47.6094 58.5 49.2188 52.2188
Q50.8281 45.9531 50.8281 35.2969
Q50.8281 22.7031 48.2344 14.9688
Q45.6562 7.23438 40.5 3
Q35.3594 -1.21875 27.4844 -1.21875
Q17.1406 -1.21875 11.2344 6.20312
Q4.15625 15.1406 4.15625 35.2969
M13.1875 35.2969
Q13.1875 17.6719 17.3125 11.8281
Q21.4375 6 27.4844 6
Q33.5469 6 37.6719 11.8594
Q41.7969 17.7188 41.7969 35.2969
Q41.7969 52.9844 37.6719 58.7812
Q33.5469 64.5938 27.3906 64.5938
Q21.3438 64.5938 17.7188 59.4688
Q13.1875 52.9375 13.1875 35.2969" id="ArialMT-30"/>
      </defs>
      <g style="fill:#262626;" transform="translate(128.75 261.3578125)scale(0.1 -0.1)">
       <use xlink:href="#ArialMT-30"/>
      </g>
     </g>
    </g>
    <g id="xtick_4">
     <g id="line2d_4">
      <g>
       <use style="fill:#262626;stroke:#262626;" x="188.634375" xlink:href="#m44d4eda7dc" y="241.2"/>
      </g>
     </g>
     <g id="text_4">
      <!-- 1 -->
      <g style="fill:#262626;" transform="translate(187.31640625 261.3578125)scale(0.1 -0.1)">
       <use xlink:href="#ArialMT-31"/>
      </g>
     </g>
    </g>
    <g id="xtick_5">
     <g id="line2d_5">
      <g>
       <use style="fill:#262626;stroke:#262626;" x="246.18515625" xlink:href="#m44d4eda7dc" y="241.2"/>
      </g>
     </g>
     <g id="text_5">
      <!-- 2 -->
      <g style="fill:#262626;" transform="translate(243.81484375 261.3578125)scale(0.1 -0.1)">
       <use xlink:href="#ArialMT-32"/>
      </g>
     </g>
    </g>
    <g id="xtick_6">
     <g id="line2d_6">
      <g>
       <use style="fill:#262626;stroke:#262626;" x="303.7359375" xlink:href="#m44d4eda7dc" y="241.2"/>
      </g>
     </g>
     <g id="text_6">
      <!-- 3 -->
      <defs>
       <path d="
M4.20312 18.8906
L12.9844 20.0625
Q14.5 12.5938 18.1406 9.29688
Q21.7812 6 27 6
Q33.2031 6 37.4688 10.2969
Q41.75 14.5938 41.75 20.9531
Q41.75 27 37.7969 30.9219
Q33.8438 34.8594 27.7344 34.8594
Q25.25 34.8594 21.5312 33.8906
L22.5156 41.6094
Q23.3906 41.5 23.9219 41.5
Q29.5469 41.5 34.0312 44.4219
Q38.5312 47.3594 38.5312 53.4688
Q38.5312 58.2969 35.25 61.4688
Q31.9844 64.6562 26.8125 64.6562
Q21.6875 64.6562 18.2656 61.4219
Q14.8438 58.2031 13.875 51.7656
L5.07812 53.3281
Q6.6875 62.1562 12.3906 67.0156
Q18.1094 71.875 26.6094 71.875
Q32.4688 71.875 37.3906 69.3594
Q42.3281 66.8438 44.9375 62.5
Q47.5625 58.1562 47.5625 53.2656
Q47.5625 48.6406 45.0625 44.8281
Q42.5781 41.0156 37.7031 38.7656
Q44.0469 37.3125 47.5625 32.6875
Q51.0781 28.0781 51.0781 21.1406
Q51.0781 11.7656 44.2344 5.25
Q37.4062 -1.26562 26.9531 -1.26562
Q17.5312 -1.26562 11.2969 4.34375
Q5.07812 9.96875 4.20312 18.8906" id="ArialMT-33"/>
      </defs>
      <g style="fill:#262626;" transform="translate(301.3921875 261.3578125)scale(0.1 -0.1)">
       <use xlink:href="#ArialMT-33"/>
      </g>
     </g>
    </g>
    <g id="xtick_7">
     <g id="line2d_7">
      <g>
       <use style="fill:#262626;stroke:#262626;" x="361.28671875" xlink:href="#m44d4eda7dc" y="241.2"/>
      </g>
     </g>
     <g id="text_7">
      <!-- 4 -->
      <defs>
       <path d="
M32.3281 0
L32.3281 17.1406
L1.26562 17.1406
L1.26562 25.2031
L33.9375 71.5781
L41.1094 71.5781
L41.1094 25.2031
L50.7812 25.2031
L50.7812 17.1406
L41.1094 17.1406
L41.1094 0
z

M32.3281 25.2031
L32.3281 57.4688
L9.90625 25.2031
z
" id="ArialMT-34"/>
      </defs>
      <g style="fill:#262626;" transform="translate(358.8109375 261.3578125)scale(0.1 -0.1)">
       <use xlink:href="#ArialMT-34"/>
      </g>
     </g>
    </g>
    <g id="xtick_8">
     <g id="line2d_8">
      <g>
       <use style="fill:#262626;stroke:#262626;" x="418.8375" xlink:href="#m44d4eda7dc" y="241.2"/>
      </g>
     </g>
     <g id="text_8">
      <!-- 5 -->
      <defs>
       <path d="
M4.15625 18.75
L13.375 19.5312
Q14.4062 12.7969 18.1406 9.39062
Q21.875 6 27.1562 6
Q33.5 6 37.8906 10.7812
Q42.2812 15.5781 42.2812 23.4844
Q42.2812 31 38.0625 35.3438
Q33.8438 39.7031 27 39.7031
Q22.75 39.7031 19.3281 37.7656
Q15.9219 35.8438 13.9688 32.7656
L5.71875 33.8438
L12.6406 70.6094
L48.25 70.6094
L48.25 62.2031
L19.6719 62.2031
L15.8281 42.9688
Q22.2656 47.4688 29.3438 47.4688
Q38.7188 47.4688 45.1562 40.9688
Q51.6094 34.4688 51.6094 24.2656
Q51.6094 14.5469 45.9531 7.46875
Q39.0625 -1.21875 27.1562 -1.21875
Q17.3906 -1.21875 11.2031 4.25
Q5.03125 9.71875 4.15625 18.75" id="ArialMT-35"/>
      </defs>
      <g style="fill:#262626;" transform="translate(416.46484375 261.3578125)scale(0.1 -0.1)">
       <use xlink:href="#ArialMT-35"/>
      </g>
     </g>
    </g>
    <g id="text_9">
     <!-- # of broken bones -->
     <defs>
      <path d="
M14.7031 0
L6.54688 0
L6.54688 71.5781
L15.3281 71.5781
L15.3281 46.0469
Q20.9062 53.0312 29.5469 53.0312
Q34.3281 53.0312 38.5938 51.0938
Q42.875 49.1719 45.625 45.6719
Q48.3906 42.1875 49.9531 37.25
Q51.5156 32.3281 51.5156 26.7031
Q51.5156 13.375 44.9219 6.09375
Q38.3281 -1.17188 29.1094 -1.17188
Q19.9219 -1.17188 14.7031 6.5
z

M14.5938 26.3125
Q14.5938 17 17.1406 12.8438
Q21.2969 6.0625 28.375 6.0625
Q34.125 6.0625 38.3281 11.0625
Q42.5312 16.0625 42.5312 25.9844
Q42.5312 36.1406 38.5 40.9688
Q34.4688 45.7969 28.7656 45.7969
Q23 45.7969 18.7969 40.7969
Q14.5938 35.7969 14.5938 26.3125" id="ArialMT-62"/>
      <path d="
M8.6875 0
L8.6875 45.0156
L0.921875 45.0156
L0.921875 51.8594
L8.6875 51.8594
L8.6875 57.375
Q8.6875 62.5938 9.625 65.1406
Q10.8906 68.5625 14.0781 70.6719
Q17.2812 72.7969 23.0469 72.7969
Q26.7656 72.7969 31.25 71.9219
L29.9375 64.2656
Q27.2031 64.75 24.75 64.75
Q20.75 64.75 19.0938 63.0312
Q17.4375 61.3281 17.4375 56.6406
L17.4375 51.8594
L27.5469 51.8594
L27.5469 45.0156
L17.4375 45.0156
L17.4375 0
z
" id="ArialMT-66"/>
      <path d="
M42.0938 16.7031
L51.1719 15.5781
Q49.0312 7.625 43.2188 3.21875
Q37.4062 -1.17188 28.375 -1.17188
Q17 -1.17188 10.3281 5.82812
Q3.65625 12.8438 3.65625 25.4844
Q3.65625 38.5781 10.3906 45.7969
Q17.1406 53.0312 27.875 53.0312
Q38.2812 53.0312 44.875 45.9531
Q51.4688 38.875 51.4688 26.0312
Q51.4688 25.25 51.4219 23.6875
L12.75 23.6875
Q13.2344 15.1406 17.5781 10.5938
Q21.9219 6.0625 28.4219 6.0625
Q33.25 6.0625 36.6719 8.59375
Q40.0938 11.1406 42.0938 16.7031
M13.2344 30.9062
L42.1875 30.9062
Q41.6094 37.4531 38.875 40.7188
Q34.6719 45.7969 27.9844 45.7969
Q21.9219 45.7969 17.7969 41.75
Q13.6719 37.7031 13.2344 30.9062" id="ArialMT-65"/>
      <path d="
M6.5 0
L6.5 51.8594
L14.4062 51.8594
L14.4062 44
Q17.4375 49.5156 20 51.2656
Q22.5625 53.0312 25.6406 53.0312
Q30.0781 53.0312 34.6719 50.2031
L31.6406 42.0469
Q28.4219 43.9531 25.2031 43.9531
Q22.3125 43.9531 20.0156 42.2188
Q17.7188 40.4844 16.75 37.4062
Q15.2812 32.7188 15.2812 27.1562
L15.2812 0
z
" id="ArialMT-72"/>
      <path d="
M3.07812 15.4844
L11.7656 16.8438
Q12.5 11.625 15.8438 8.84375
Q19.1875 6.0625 25.2031 6.0625
Q31.25 6.0625 34.1719 8.51562
Q37.1094 10.9844 37.1094 14.3125
Q37.1094 17.2812 34.5156 19
Q32.7188 20.1719 25.5312 21.9688
Q15.875 24.4219 12.1406 26.2031
Q8.40625 27.9844 6.46875 31.125
Q4.54688 34.2812 4.54688 38.0938
Q4.54688 41.5469 6.125 44.5
Q7.71875 47.4688 10.4531 49.4219
Q12.5 50.9219 16.0312 51.9688
Q19.5781 53.0312 23.6406 53.0312
Q29.7344 53.0312 34.3438 51.2656
Q38.9688 49.5156 41.1562 46.5
Q43.3594 43.5 44.1875 38.4844
L35.5938 37.3125
Q35.0156 41.3125 32.2031 43.5469
Q29.3906 45.7969 24.2656 45.7969
Q18.2188 45.7969 15.625 43.7969
Q13.0312 41.7969 13.0312 39.1094
Q13.0312 37.4062 14.1094 36.0312
Q15.1875 34.625 17.4844 33.6875
Q18.7969 33.2031 25.25 31.4531
Q34.5781 28.9531 38.25 27.3594
Q41.9375 25.7812 44.0312 22.75
Q46.1406 19.7344 46.1406 15.2344
Q46.1406 10.8438 43.5781 6.95312
Q41.0156 3.07812 36.1719 0.953125
Q31.3438 -1.17188 25.25 -1.17188
Q15.1406 -1.17188 9.84375 3.03125
Q4.54688 7.23438 3.07812 15.4844" id="ArialMT-73"/>
      <path d="
M6.64062 0
L6.64062 71.5781
L15.4375 71.5781
L15.4375 30.7656
L36.2344 51.8594
L47.6094 51.8594
L27.7812 32.625
L49.6094 0
L38.7656 0
L21.625 26.5156
L15.4375 20.5625
L15.4375 0
z
" id="ArialMT-6b"/>
      <path d="
M3.32812 25.9219
Q3.32812 40.3281 11.3281 47.2656
Q18.0156 53.0312 27.6406 53.0312
Q38.3281 53.0312 45.1094 46.0156
Q51.9062 39.0156 51.9062 26.6562
Q51.9062 16.6562 48.9062 10.9062
Q45.9062 5.17188 40.1562 2
Q34.4219 -1.17188 27.6406 -1.17188
Q16.75 -1.17188 10.0312 5.8125
Q3.32812 12.7969 3.32812 25.9219
M12.3594 25.9219
Q12.3594 15.9688 16.7031 11.0156
Q21.0469 6.0625 27.6406 6.0625
Q34.1875 6.0625 38.5312 11.0312
Q42.875 16.0156 42.875 26.2188
Q42.875 35.8438 38.5 40.7969
Q34.125 45.75 27.6406 45.75
Q21.0469 45.75 16.7031 40.8125
Q12.3594 35.8906 12.3594 25.9219" id="ArialMT-6f"/>
      <path d="
M6.59375 0
L6.59375 51.8594
L14.5 51.8594
L14.5 44.4844
Q20.2188 53.0312 31 53.0312
Q35.6875 53.0312 39.625 51.3438
Q43.5625 49.6562 45.5156 46.9219
Q47.4688 44.1875 48.25 40.4375
Q48.7344 37.9844 48.7344 31.8906
L48.7344 0
L39.9375 0
L39.9375 31.5469
Q39.9375 36.9219 38.9062 39.5781
Q37.8906 42.2344 35.2812 43.8125
Q32.6719 45.4062 29.1562 45.4062
Q23.5312 45.4062 19.4531 41.8438
Q15.375 38.2812 15.375 28.3281
L15.375 0
z
" id="ArialMT-6e"/>
      <path d="
M5.03125 -1.21875
L9.28125 19.5781
L1.03125 19.5781
L1.03125 26.8594
L10.75 26.8594
L14.3594 44.5781
L1.03125 44.5781
L1.03125 51.8594
L15.8281 51.8594
L20.0625 72.7969
L27.3906 72.7969
L23.1406 51.8594
L38.5312 51.8594
L42.7812 72.7969
L50.1406 72.7969
L45.9062 51.8594
L54.3438 51.8594
L54.3438 44.5781
L44.4375 44.5781
L40.7656 26.8594
L54.3438 26.8594
L54.3438 19.5781
L39.3125 19.5781
L35.0625 -1.21875
L27.7344 -1.21875
L31.9375 19.5781
L16.6094 19.5781
L12.3594 -1.21875
z

M18.0625 26.8594
L33.4062 26.8594
L37.0625 44.5781
L21.6875 44.5781
z
" id="ArialMT-23"/>
      <path id="ArialMT-20"/>
     </defs>
     <g style="fill:#262626;" transform="translate(173.593671875 276.21890625)scale(0.11 -0.11)">
      <use xlink:href="#ArialMT-23"/>
      <use x="55.615234375" xlink:href="#ArialMT-20"/>
      <use x="83.3984375" xlink:href="#ArialMT-6f"/>
      <use x="139.013671875" xlink:href="#ArialMT-66"/>
      <use x="166.796875" xlink:href="#ArialMT-20"/>
      <use x="194.580078125" xlink:href="#ArialMT-62"/>
      <use x="250.1953125" xlink:href="#ArialMT-72"/>
      <use x="283.49609375" xlink:href="#ArialMT-6f"/>
      <use x="339.111328125" xlink:href="#ArialMT-6b"/>
      <use x="389.111328125" xlink:href="#ArialMT-65"/>
      <use x="444.7265625" xlink:href="#ArialMT-6e"/>
      <use x="500.341796875" xlink:href="#ArialMT-20"/>
      <use x="528.125" xlink:href="#ArialMT-62"/>
      <use x="583.740234375" xlink:href="#ArialMT-6f"/>
      <use x="639.35546875" xlink:href="#ArialMT-6e"/>
      <use x="694.970703125" xlink:href="#ArialMT-65"/>
      <use x="750.5859375" xlink:href="#ArialMT-73"/>
     </g>
    </g>
   </g>
   <g id="matplotlib.axis_2"/>
   <g id="PolyCollection_1">
    <defs>
     <path d="
M62.0227 -163.459
L62.0227 -160.541
L65.1618 -159.899
L68.3009 -159.025
L71.4401 -157.858
L74.5792 -156.331
L77.7183 -154.37
L80.8575 -151.904
L83.9966 -148.865
L87.1357 -145.199
L90.2749 -140.87
L93.414 -135.871
L96.5531 -130.231
L99.6923 -124.019
L102.831 -117.349
L105.971 -110.38
L109.11 -103.31
L112.249 -96.369
L115.388 -89.8028
L118.527 -83.8589
L121.666 -78.766
L124.805 -74.7156
L127.944 -71.8445
L131.084 -70.2215
L134.223 -69.84
L137.362 -70.6167
L140.501 -72.3983
L143.64 -74.9743
L146.779 -78.0959
L149.918 -81.4983
L153.058 -84.9247
L156.197 -88.1482
L159.336 -90.9914
L162.475 -93.3393
L165.614 -95.1468
L168.753 -96.4372
L171.892 -97.2957
L175.031 -97.8555
L178.171 -98.2807
L181.31 -98.7467
L184.449 -99.4206
L187.588 -100.444
L190.727 -101.919
L193.866 -103.902
L197.005 -106.396
L200.145 -109.359
L203.284 -112.707
L206.423 -116.327
L209.562 -120.088
L212.701 -123.856
L215.84 -127.505
L218.979 -130.93
L222.118 -134.048
L225.258 -136.807
L228.397 -139.184
L231.536 -141.182
L234.675 -142.823
L237.814 -144.146
L240.953 -145.195
L244.092 -146.013
L247.232 -146.64
L250.371 -147.106
L253.51 -147.426
L256.649 -147.609
L259.788 -147.652
L262.927 -147.544
L266.066 -147.278
L269.205 -146.844
L272.345 -146.244
L275.484 -145.49
L278.623 -144.607
L281.762 -143.632
L284.901 -142.618
L288.04 -141.626
L291.179 -140.722
L294.319 -139.973
L297.458 -139.44
L300.597 -139.175
L303.736 -139.215
L306.875 -139.577
L310.014 -140.262
L313.153 -141.25
L316.292 -142.505
L319.432 -143.978
L322.571 -145.61
L325.71 -147.339
L328.849 -149.103
L331.988 -150.842
L335.127 -152.508
L338.266 -154.06
L341.406 -155.469
L344.545 -156.718
L347.684 -157.8
L350.823 -158.717
L353.962 -159.476
L357.101 -160.093
L360.24 -160.583
L363.379 -160.965
L366.519 -161.256
L369.658 -161.475
L372.797 -161.635
L372.797 -162.365
L372.797 -162.365
L369.658 -162.525
L366.519 -162.744
L363.379 -163.035
L360.24 -163.417
L357.101 -163.907
L353.962 -164.524
L350.823 -165.283
L347.684 -166.2
L344.545 -167.282
L341.406 -168.531
L338.266 -169.94
L335.127 -171.492
L331.988 -173.158
L328.849 -174.897
L325.71 -176.661
L322.571 -178.39
L319.432 -180.022
L316.292 -181.495
L313.153 -182.75
L310.014 -183.738
L306.875 -184.423
L303.736 -184.785
L300.597 -184.825
L297.458 -184.56
L294.319 -184.027
L291.179 -183.278
L288.04 -182.374
L284.901 -181.382
L281.762 -180.368
L278.623 -179.393
L275.484 -178.51
L272.345 -177.756
L269.205 -177.156
L266.066 -176.722
L262.927 -176.456
L259.788 -176.348
L256.649 -176.391
L253.51 -176.574
L250.371 -176.894
L247.232 -177.36
L244.092 -177.987
L240.953 -178.805
L237.814 -179.854
L234.675 -181.177
L231.536 -182.818
L228.397 -184.816
L225.258 -187.193
L222.118 -189.952
L218.979 -193.07
L215.84 -196.495
L212.701 -200.144
L209.562 -203.912
L206.423 -207.673
L203.284 -211.293
L200.145 -214.641
L197.005 -217.604
L193.866 -220.098
L190.727 -222.081
L187.588 -223.556
L184.449 -224.579
L181.31 -225.253
L178.171 -225.719
L175.031 -226.145
L171.892 -226.704
L168.753 -227.563
L165.614 -228.853
L162.475 -230.661
L159.336 -233.009
L156.197 -235.852
L153.058 -239.075
L149.918 -242.502
L146.779 -245.904
L143.64 -249.026
L140.501 -251.602
L137.362 -253.383
L134.223 -254.16
L131.084 -253.779
L127.944 -252.156
L124.805 -249.284
L121.666 -245.234
L118.527 -240.141
L115.388 -234.197
L112.249 -227.631
L109.11 -220.69
L105.971 -213.62
L102.831 -206.651
L99.6923 -199.981
L96.5531 -193.769
L93.414 -188.129
L90.2749 -183.13
L87.1357 -178.801
L83.9966 -175.135
L80.8575 -172.096
L77.7183 -169.63
L74.5792 -167.669
L71.4401 -166.142
L68.3009 -164.975
L65.1618 -164.101
L62.0227 -163.459
z
" id="mca4f7e02f9" style="stroke:#dcdddd;stroke-width:0.3;"/>
    </defs>
    <g clip-path="url(#pe610260372)">
     <use style="fill:#dcdddd;stroke:#dcdddd;stroke-width:0.3;" x="0.0" xlink:href="#mca4f7e02f9" y="288.0"/>
    </g>
   </g>
   <g id="line2d_9">
    <path clip-path="url(#pe610260372)" d="
M131.084 217.779
L131.084 34.2215" style="fill:none;stroke:#848484;stroke-linecap:round;stroke-width:0.8;"/>
   </g>
   <g id="line2d_10">
    <path clip-path="url(#pe610260372)" d="
M188.634 187.118
L188.634 64.8818" style="fill:none;stroke:#848484;stroke-linecap:round;stroke-width:0.8;"/>
   </g>
   <g id="line2d_11">
    <path clip-path="url(#pe610260372)" d="
M131.084 217.779
L131.084 34.2215" style="fill:none;stroke:#848484;stroke-linecap:round;stroke-width:0.8;"/>
   </g>
   <g id="line2d_12">
    <path clip-path="url(#pe610260372)" d="
M131.084 217.779
L131.084 34.2215" style="fill:none;stroke:#848484;stroke-linecap:round;stroke-width:0.8;"/>
   </g>
   <g id="line2d_13">
    <path clip-path="url(#pe610260372)" d="
M188.634 187.118
L188.634 64.8818" style="fill:none;stroke:#848484;stroke-linecap:round;stroke-width:0.8;"/>
   </g>
   <g id="line2d_14">
    <path clip-path="url(#pe610260372)" d="
M188.634 187.118
L188.634 64.8818" style="fill:none;stroke:#848484;stroke-linecap:round;stroke-width:0.8;"/>
   </g>
   <g id="line2d_15">
    <path clip-path="url(#pe610260372)" d="
M131.084 217.779
L131.084 34.2215" style="fill:none;stroke:#848484;stroke-linecap:round;stroke-width:0.8;"/>
   </g>
   <g id="line2d_16">
    <path clip-path="url(#pe610260372)" d="
M131.084 217.779
L131.084 34.2215" style="fill:none;stroke:#848484;stroke-linecap:round;stroke-width:0.8;"/>
   </g>
   <g id="line2d_17">
    <path clip-path="url(#pe610260372)" d="
M131.084 217.779
L131.084 34.2215" style="fill:none;stroke:#848484;stroke-linecap:round;stroke-width:0.8;"/>
   </g>
   <g id="line2d_18">
    <path clip-path="url(#pe610260372)" d="
M303.736 148.785
L303.736 103.215" style="fill:none;stroke:#848484;stroke-linecap:round;stroke-width:0.8;"/>
   </g>
   <g id="line2d_19">
    <path clip-path="url(#pe610260372)" d="
M188.634 187.118
L188.634 64.8818" style="fill:none;stroke:#848484;stroke-linecap:round;stroke-width:0.8;"/>
   </g>
   <g id="line2d_20">
    <path clip-path="url(#pe610260372)" d="
M246.185 141.549
L246.185 110.451" style="fill:none;stroke:#848484;stroke-linecap:round;stroke-width:0.8;"/>
   </g>
   <g id="line2d_21">
    <path clip-path="url(#pe610260372)" d="
M188.634 187.118
L188.634 64.8818" style="fill:none;stroke:#848484;stroke-linecap:round;stroke-width:0.8;"/>
   </g>
   <g id="line2d_22">
    <path clip-path="url(#pe610260372)" d="
M303.736 148.785
L303.736 103.215" style="fill:none;stroke:#848484;stroke-linecap:round;stroke-width:0.8;"/>
   </g>
   <g id="line2d_23">
    <path clip-path="url(#pe610260372)" d="
M131.084 217.779
L131.084 34.2215" style="fill:none;stroke:#848484;stroke-linecap:round;stroke-width:0.8;"/>
   </g>
   <g id="line2d_24">
    <path clip-path="url(#pe610260372)" d="
M131.084 217.779
L131.084 34.2215" style="fill:none;stroke:#848484;stroke-linecap:round;stroke-width:0.8;"/>
   </g>
   <g id="line2d_25">
    <path clip-path="url(#pe610260372)" d="
M62.0227 127.459
L65.1618 128.101
L68.3009 128.975
L71.4401 130.142
L74.5792 131.669
L77.7183 133.63
L80.8575 136.096
L83.9966 139.135
L87.1357 142.801
L90.2749 147.13
L93.414 152.129
L96.5531 157.769
L99.6923 163.981
L102.831 170.651
L105.971 177.62
L109.11 184.69
L112.249 191.631
L115.388 198.197
L118.527 204.141
L121.666 209.234
L124.805 213.284
L127.944 216.156
L131.084 217.779
L134.223 218.16
L137.362 217.383
L140.501 215.602
L143.64 213.026
L146.779 209.904
L149.918 206.502
L153.058 203.075
L156.197 199.852
L159.336 197.009
L162.475 194.661
L165.614 192.853
L168.753 191.563
L171.892 190.704
L175.031 190.145
L178.171 189.719
L181.31 189.253
L184.449 188.579
L187.588 187.556
L190.727 186.081
L193.866 184.098
L197.005 181.604
L200.145 178.641
L203.284 175.293
L206.423 171.673
L209.562 167.912
L212.701 164.144
L215.84 160.495
L218.979 157.07
L222.118 153.952
L225.258 151.193
L228.397 148.816
L231.536 146.818
L234.675 145.177
L237.814 143.854
L240.953 142.805
L244.092 141.987
L247.232 141.36
L250.371 140.894
L253.51 140.574
L256.649 140.391
L259.788 140.348
L262.927 140.456
L266.066 140.722
L269.205 141.156
L272.345 141.756
L275.484 142.51
L278.623 143.393
L281.762 144.368
L284.901 145.382
L288.04 146.374
L291.179 147.278
L294.319 148.027
L297.458 148.56
L300.597 148.825
L303.736 148.785
L306.875 148.423
L310.014 147.738
L313.153 146.75
L316.292 145.495
L319.432 144.022
L322.571 142.39
L325.71 140.661
L328.849 138.897
L331.988 137.158
L335.127 135.492
L338.266 133.94
L341.406 132.531
L344.545 131.282
L347.684 130.2
L350.823 129.283
L353.962 128.524
L357.101 127.907
L360.24 127.417
L363.379 127.035
L366.519 126.744
L369.658 126.525
L372.797 126.365" style="fill:none;stroke:#848484;stroke-linecap:round;stroke-width:2;"/>
   </g>
   <g id="line2d_26">
    <path clip-path="url(#pe610260372)" d="
M62.0227 124.541
L65.1618 123.899
L68.3009 123.025
L71.4401 121.858
L74.5792 120.331
L77.7183 118.37
L80.8575 115.904
L83.9966 112.865
L87.1357 109.199
L90.2749 104.87
L93.414 99.8715
L96.5531 94.2312
L99.6923 88.019
L102.831 81.349
L105.971 74.38
L109.11 67.3102
L112.249 60.369
L115.388 53.8028
L118.527 47.8589
L121.666 42.766
L124.805 38.7156
L127.944 35.8445
L131.084 34.2215
L134.223 33.84
L137.362 34.6167
L140.501 36.3983
L143.64 38.9743
L146.779 42.0959
L149.918 45.4983
L153.058 48.9247
L156.197 52.1482
L159.336 54.9914
L162.475 57.3393
L165.614 59.1468
L168.753 60.4372
L171.892 61.2957
L175.031 61.8555
L178.171 62.2807
L181.31 62.7467
L184.449 63.4206
L187.588 64.444
L190.727 65.9194
L193.866 67.9019
L197.005 70.3963
L200.145 73.3593
L203.284 76.7074
L206.423 80.327
L209.562 84.0879
L212.701 87.8558
L215.84 91.5055
L218.979 94.9299
L222.118 98.0479
L225.258 100.807
L228.397 103.184
L231.536 105.182
L234.675 106.823
L237.814 108.146
L240.953 109.195
L244.092 110.013
L247.232 110.64
L250.371 111.106
L253.51 111.426
L256.649 111.609
L259.788 111.652
L262.927 111.544
L266.066 111.278
L269.205 110.844
L272.345 110.244
L275.484 109.49
L278.623 108.607
L281.762 107.632
L284.901 106.618
L288.04 105.626
L291.179 104.722
L294.319 103.973
L297.458 103.44
L300.597 103.175
L303.736 103.215
L306.875 103.577
L310.014 104.262
L313.153 105.25
L316.292 106.505
L319.432 107.978
L322.571 109.61
L325.71 111.339
L328.849 113.103
L331.988 114.842
L335.127 116.508
L338.266 118.06
L341.406 119.469
L344.545 120.718
L347.684 121.8
L350.823 122.717
L353.962 123.476
L357.101 124.093
L360.24 124.583
L363.379 124.965
L366.519 125.256
L369.658 125.475
L372.797 125.635" style="fill:none;stroke:#848484;stroke-linecap:round;stroke-width:2;"/>
   </g>
   <g id="line2d_27">
    <path clip-path="url(#pe610260372)" d="
M177.844 241.2
L177.844 10.8" style="fill:none;stroke:#ac1735;stroke-linecap:round;stroke-width:2;"/>
   </g>
   <g id="patch_3">
    <path d="
M15.982 241.2
L418.838 241.2" style="fill:none;stroke:#262626;stroke-linecap:square;stroke-linejoin:miter;stroke-width:1.25;"/>
   </g>
   <g id="text_10">
    <!-- Mean: 0.81 -->
    <defs>
     <path d="
M9.07812 0
L9.07812 10.0156
L19.0938 10.0156
L19.0938 0
z
" id="ArialMT-2e"/>
     <path d="
M9.03125 41.8438
L9.03125 51.8594
L19.0469 51.8594
L19.0469 41.8438
z

M9.03125 0
L9.03125 10.0156
L19.0469 10.0156
L19.0469 0
z
" id="ArialMT-3a"/>
     <path d="
M40.4375 6.39062
Q35.5469 2.25 31.0312 0.53125
Q26.5156 -1.17188 21.3438 -1.17188
Q12.7969 -1.17188 8.20312 3
Q3.60938 7.17188 3.60938 13.6719
Q3.60938 17.4844 5.34375 20.625
Q7.07812 23.7812 9.89062 25.6875
Q12.7031 27.5938 16.2188 28.5625
Q18.7969 29.25 24.0312 29.8906
Q34.6719 31.1562 39.7031 32.9062
Q39.75 34.7188 39.75 35.2031
Q39.75 40.5781 37.25 42.7812
Q33.8906 45.75 27.25 45.75
Q21.0469 45.75 18.0938 43.5781
Q15.1406 41.4062 13.7188 35.8906
L5.125 37.0625
Q6.29688 42.5781 8.98438 45.9688
Q11.6719 49.3594 16.75 51.1875
Q21.8281 53.0312 28.5156 53.0312
Q35.1562 53.0312 39.2969 51.4688
Q43.4531 49.9062 45.4062 47.5312
Q47.3594 45.1719 48.1406 41.5469
Q48.5781 39.3125 48.5781 33.4531
L48.5781 21.7344
Q48.5781 9.46875 49.1406 6.21875
Q49.7031 2.98438 51.375 0
L42.1875 0
Q40.8281 2.73438 40.4375 6.39062
M39.7031 26.0312
Q34.9062 24.0781 25.3438 22.7031
Q19.9219 21.9219 17.6719 20.9375
Q15.4375 19.9688 14.2031 18.0938
Q12.9844 16.2188 12.9844 13.9219
Q12.9844 10.4062 15.6406 8.0625
Q18.3125 5.71875 23.4375 5.71875
Q28.5156 5.71875 32.4688 7.9375
Q36.4219 10.1562 38.2812 14.0156
Q39.7031 17 39.7031 22.7969
z
" id="ArialMT-61"/>
     <path d="
M17.6719 38.8125
Q12.2031 40.8281 9.5625 44.5312
Q6.9375 48.25 6.9375 53.4219
Q6.9375 61.2344 12.5469 66.5469
Q18.1719 71.875 27.4844 71.875
Q36.8594 71.875 42.5781 66.4219
Q48.2969 60.9844 48.2969 53.1719
Q48.2969 48.1875 45.6719 44.5
Q43.0625 40.8281 37.75 38.8125
Q44.3438 36.6719 47.7812 31.875
Q51.2188 27.0938 51.2188 20.4531
Q51.2188 11.2812 44.7188 5.03125
Q38.2344 -1.21875 27.6406 -1.21875
Q17.0469 -1.21875 10.5469 5.04688
Q4.04688 11.3281 4.04688 20.7031
Q4.04688 27.6875 7.59375 32.3906
Q11.1406 37.1094 17.6719 38.8125
M15.9219 53.7188
Q15.9219 48.6406 19.1875 45.4062
Q22.4688 42.1875 27.6875 42.1875
Q32.7656 42.1875 36.0156 45.375
Q39.2656 48.5781 39.2656 53.2188
Q39.2656 58.0625 35.9062 61.3594
Q32.5625 64.6562 27.5938 64.6562
Q22.5625 64.6562 19.2344 61.4219
Q15.9219 58.2031 15.9219 53.7188
M13.0938 20.6562
Q13.0938 16.8906 14.875 13.375
Q16.6562 9.85938 20.1719 7.92188
Q23.6875 6 27.7344 6
Q34.0312 6 38.125 10.0469
Q42.2344 14.1094 42.2344 20.3594
Q42.2344 26.7031 38.0156 30.8594
Q33.7969 35.0156 27.4375 35.0156
Q21.2344 35.0156 17.1562 30.9062
Q13.0938 26.8125 13.0938 20.6562" id="ArialMT-38"/>
     <path d="
M7.42188 0
L7.42188 71.5781
L21.6875 71.5781
L38.625 20.9062
Q40.9688 13.8125 42.0469 10.2969
Q43.2656 14.2031 45.8438 21.7812
L62.9844 71.5781
L75.7344 71.5781
L75.7344 0
L66.6094 0
L66.6094 59.9062
L45.7969 0
L37.25 0
L16.5469 60.9375
L16.5469 0
z
" id="ArialMT-4d"/>
    </defs>
    <g style="fill:#ac1735;" transform="translate(179.246403809 29.232)scale(0.144 -0.144)">
     <use xlink:href="#ArialMT-4d"/>
     <use x="83.30078125" xlink:href="#ArialMT-65"/>
     <use x="138.916015625" xlink:href="#ArialMT-61"/>
     <use x="194.53125" xlink:href="#ArialMT-6e"/>
     <use x="250.146484375" xlink:href="#ArialMT-3a"/>
     <use x="277.9296875" xlink:href="#ArialMT-20"/>
     <use x="305.712890625" xlink:href="#ArialMT-30"/>
     <use x="361.328125" xlink:href="#ArialMT-2e"/>
     <use x="389.111328125" xlink:href="#ArialMT-38"/>
     <use x="444.7265625" xlink:href="#ArialMT-31"/>
    </g>
   </g>
  </g>
 </g>
 <defs>
  <clipPath id="pe610260372">
   <rect height="230.4" width="402.85546875" x="15.98203125" y="10.8"/>
  </clipPath>
 </defs>
</svg>
