<?xml version="1.0" encoding="utf-8" standalone="no"?>
<!DOCTYPE svg PUBLIC "-//W3C//DTD SVG 1.1//EN"
  "http://www.w3.org/Graphics/SVG/1.1/DTD/svg11.dtd">
<!-- Created with matplotlib (http://matplotlib.org/) -->
<svg height="288pt" version="1.1" viewBox="0 0 432 288" width="432pt" xmlns="http://www.w3.org/2000/svg" xmlns:xlink="http://www.w3.org/1999/xlink">
 <defs>
  <style type="text/css">
*{stroke-linecap:butt;stroke-linejoin:round;}
  </style>
 </defs>
 <g id="figure_1">
  <g id="patch_1">
   <path d="
M0 288
L432 288
L432 0
L0 0
z
" style="fill:#ffffff;"/>
  </g>
  <g id="axes_1">
   <g id="patch_2">
    <path d="
M13.1625 241.2
L415.997 241.2
L415.997 10.8
L13.1625 10.8
z
" style="fill:#ffffff;"/>
   </g>
   <g id="matplotlib.axis_1">
    <g id="xtick_1">
     <g id="line2d_1">
      <defs>
       <path d="
M0 0
L0 6" id="m44d4eda7dc" style="stroke:#262626;"/>
      </defs>
      <g>
       <use style="fill:#262626;stroke:#262626;" x="13.1625" xlink:href="#m44d4eda7dc" y="241.2"/>
      </g>
     </g>
     <g id="text_1">
      <!-- 0 -->
      <defs>
       <path d="
M4.15625 35.2969
Q4.15625 48 6.76562 55.7344
Q9.375 63.4844 14.5156 67.6719
Q19.6719 71.875 27.4844 71.875
Q33.25 71.875 37.5938 69.5469
Q41.9375 67.2344 44.7656 62.8594
Q47.6094 58.5 49.2188 52.2188
Q50.8281 45.9531 50.8281 35.2969
Q50.8281 22.7031 48.2344 14.9688
Q45.6562 7.23438 40.5 3
Q35.3594 -1.21875 27.4844 -1.21875
Q17.1406 -1.21875 11.2344 6.20312
Q4.15625 15.1406 4.15625 35.2969
M13.1875 35.2969
Q13.1875 17.6719 17.3125 11.8281
Q21.4375 6 27.4844 6
Q33.5469 6 37.6719 11.8594
Q41.7969 17.7188 41.7969 35.2969
Q41.7969 52.9844 37.6719 58.7812
Q33.5469 64.5938 27.3906 64.5938
Q21.3438 64.5938 17.7188 59.4688
Q13.1875 52.9375 13.1875 35.2969" id="ArialMT-30"/>
      </defs>
      <g style="fill:#262626;" transform="translate(10.82890625 261.3578125)scale(0.1 -0.1)">
       <use xlink:href="#ArialMT-30"/>
      </g>
     </g>
    </g>
    <g id="xtick_2">
     <g id="line2d_2">
      <g>
       <use style="fill:#262626;stroke:#262626;" x="80.3015625" xlink:href="#m44d4eda7dc" y="241.2"/>
      </g>
     </g>
     <g id="text_2">
      <!-- 5 -->
      <defs>
       <path d="
M4.15625 18.75
L13.375 19.5312
Q14.4062 12.7969 18.1406 9.39062
Q21.875 6 27.1562 6
Q33.5 6 37.8906 10.7812
Q42.2812 15.5781 42.2812 23.4844
Q42.2812 31 38.0625 35.3438
Q33.8438 39.7031 27 39.7031
Q22.75 39.7031 19.3281 37.7656
Q15.9219 35.8438 13.9688 32.7656
L5.71875 33.8438
L12.6406 70.6094
L48.25 70.6094
L48.25 62.2031
L19.6719 62.2031
L15.8281 42.9688
Q22.2656 47.4688 29.3438 47.4688
Q38.7188 47.4688 45.1562 40.9688
Q51.6094 34.4688 51.6094 24.2656
Q51.6094 14.5469 45.9531 7.46875
Q39.0625 -1.21875 27.1562 -1.21875
Q17.3906 -1.21875 11.2031 4.25
Q5.03125 9.71875 4.15625 18.75" id="ArialMT-35"/>
      </defs>
      <g style="fill:#262626;" transform="translate(77.92890625 261.3578125)scale(0.1 -0.1)">
       <use xlink:href="#ArialMT-35"/>
      </g>
     </g>
    </g>
    <g id="xtick_3">
     <g id="line2d_3">
      <g>
       <use style="fill:#262626;stroke:#262626;" x="147.440625" xlink:href="#m44d4eda7dc" y="241.2"/>
      </g>
     </g>
     <g id="text_3">
      <!-- 10 -->
      <defs>
       <path d="
M37.25 0
L28.4688 0
L28.4688 56
Q25.2969 52.9844 20.1406 49.9531
Q14.9844 46.9219 10.8906 45.4062
L10.8906 53.9062
Q18.2656 57.375 23.7812 62.2969
Q29.2969 67.2344 31.5938 71.875
L37.25 71.875
z
" id="ArialMT-31"/>
      </defs>
      <g style="fill:#262626;" transform="translate(142.66328125 261.3578125)scale(0.1 -0.1)">
       <use xlink:href="#ArialMT-31"/>
       <use x="55.615234375" xlink:href="#ArialMT-30"/>
      </g>
     </g>
    </g>
    <g id="xtick_4">
     <g id="line2d_4">
      <g>
       <use style="fill:#262626;stroke:#262626;" x="214.5796875" xlink:href="#m44d4eda7dc" y="241.2"/>
      </g>
     </g>
     <g id="text_4">
      <!-- 15 -->
      <g style="fill:#262626;" transform="translate(209.76328125 261.3578125)scale(0.1 -0.1)">
       <use xlink:href="#ArialMT-31"/>
       <use x="55.615234375" xlink:href="#ArialMT-35"/>
      </g>
     </g>
    </g>
    <g id="xtick_5">
     <g id="line2d_5">
      <g>
       <use style="fill:#262626;stroke:#262626;" x="281.71875" xlink:href="#m44d4eda7dc" y="241.2"/>
      </g>
     </g>
     <g id="text_5">
      <!-- 20 -->
      <defs>
       <path d="
M50.3438 8.45312
L50.3438 0
L3.03125 0
Q2.9375 3.17188 4.04688 6.10938
Q5.85938 10.9375 9.82812 15.625
Q13.8125 20.3125 21.3438 26.4688
Q33.0156 36.0312 37.1094 41.625
Q41.2188 47.2188 41.2188 52.2031
Q41.2188 57.4219 37.4688 61
Q33.7344 64.5938 27.7344 64.5938
Q21.3906 64.5938 17.5781 60.7812
Q13.7656 56.9844 13.7188 50.25
L4.6875 51.1719
Q5.60938 61.2812 11.6562 66.5781
Q17.7188 71.875 27.9375 71.875
Q38.2344 71.875 44.2344 66.1562
Q50.25 60.4531 50.25 52
Q50.25 47.7031 48.4844 43.5469
Q46.7344 39.4062 42.6562 34.8125
Q38.5781 30.2188 29.1094 22.2188
Q21.1875 15.5781 18.9375 13.2031
Q16.7031 10.8438 15.2344 8.45312
z
" id="ArialMT-32"/>
      </defs>
      <g style="fill:#262626;" transform="translate(276.54375 261.3578125)scale(0.1 -0.1)">
       <use xlink:href="#ArialMT-32"/>
       <use x="55.615234375" xlink:href="#ArialMT-30"/>
      </g>
     </g>
    </g>
    <g id="xtick_6">
     <g id="line2d_6">
      <g>
       <use style="fill:#262626;stroke:#262626;" x="348.8578125" xlink:href="#m44d4eda7dc" y="241.2"/>
      </g>
     </g>
     <g id="text_6">
      <!-- 25 -->
      <g style="fill:#262626;" transform="translate(343.64375 261.3578125)scale(0.1 -0.1)">
       <use xlink:href="#ArialMT-32"/>
       <use x="55.615234375" xlink:href="#ArialMT-35"/>
      </g>
     </g>
    </g>
    <g id="xtick_7">
     <g id="line2d_7">
      <g>
       <use style="fill:#262626;stroke:#262626;" x="415.996875" xlink:href="#m44d4eda7dc" y="241.2"/>
      </g>
     </g>
     <g id="text_7">
      <!-- 30 -->
      <defs>
       <path d="
M4.20312 18.8906
L12.9844 20.0625
Q14.5 12.5938 18.1406 9.29688
Q21.7812 6 27 6
Q33.2031 6 37.4688 10.2969
Q41.75 14.5938 41.75 20.9531
Q41.75 27 37.7969 30.9219
Q33.8438 34.8594 27.7344 34.8594
Q25.25 34.8594 21.5312 33.8906
L22.5156 41.6094
Q23.3906 41.5 23.9219 41.5
Q29.5469 41.5 34.0312 44.4219
Q38.5312 47.3594 38.5312 53.4688
Q38.5312 58.2969 35.25 61.4688
Q31.9844 64.6562 26.8125 64.6562
Q21.6875 64.6562 18.2656 61.4219
Q14.8438 58.2031 13.875 51.7656
L5.07812 53.3281
Q6.6875 62.1562 12.3906 67.0156
Q18.1094 71.875 26.6094 71.875
Q32.4688 71.875 37.3906 69.3594
Q42.3281 66.8438 44.9375 62.5
Q47.5625 58.1562 47.5625 53.2656
Q47.5625 48.6406 45.0625 44.8281
Q42.5781 41.0156 37.7031 38.7656
Q44.0469 37.3125 47.5625 32.6875
Q51.0781 28.0781 51.0781 21.1406
Q51.0781 11.7656 44.2344 5.25
Q37.4062 -1.26562 26.9531 -1.26562
Q17.5312 -1.26562 11.2969 4.34375
Q5.07812 9.96875 4.20312 18.8906" id="ArialMT-33"/>
      </defs>
      <g style="fill:#262626;" transform="translate(410.88515625 261.3578125)scale(0.1 -0.1)">
       <use xlink:href="#ArialMT-33"/>
       <use x="55.615234375" xlink:href="#ArialMT-30"/>
      </g>
     </g>
    </g>
    <g id="text_8">
     <!-- # of places lived -->
     <defs>
      <path d="
M40.4375 19
L49.0781 17.875
Q47.6562 8.9375 41.8125 3.875
Q35.9844 -1.17188 27.4844 -1.17188
Q16.8438 -1.17188 10.375 5.78125
Q3.90625 12.75 3.90625 25.7344
Q3.90625 34.125 6.6875 40.4219
Q9.46875 46.7344 15.1562 49.875
Q20.8438 53.0312 27.5469 53.0312
Q35.9844 53.0312 41.3594 48.75
Q46.7344 44.4844 48.25 36.625
L39.7031 35.2969
Q38.4844 40.5312 35.375 43.1562
Q32.2812 45.7969 27.875 45.7969
Q21.2344 45.7969 17.0781 41.0312
Q12.9375 36.2812 12.9375 25.9844
Q12.9375 15.5312 16.9375 10.7969
Q20.9531 6.0625 27.3906 6.0625
Q32.5625 6.0625 36.0312 9.23438
Q39.5 12.4062 40.4375 19" id="ArialMT-63"/>
      <path d="
M40.4375 6.39062
Q35.5469 2.25 31.0312 0.53125
Q26.5156 -1.17188 21.3438 -1.17188
Q12.7969 -1.17188 8.20312 3
Q3.60938 7.17188 3.60938 13.6719
Q3.60938 17.4844 5.34375 20.625
Q7.07812 23.7812 9.89062 25.6875
Q12.7031 27.5938 16.2188 28.5625
Q18.7969 29.25 24.0312 29.8906
Q34.6719 31.1562 39.7031 32.9062
Q39.75 34.7188 39.75 35.2031
Q39.75 40.5781 37.25 42.7812
Q33.8906 45.75 27.25 45.75
Q21.0469 45.75 18.0938 43.5781
Q15.1406 41.4062 13.7188 35.8906
L5.125 37.0625
Q6.29688 42.5781 8.98438 45.9688
Q11.6719 49.3594 16.75 51.1875
Q21.8281 53.0312 28.5156 53.0312
Q35.1562 53.0312 39.2969 51.4688
Q43.4531 49.9062 45.4062 47.5312
Q47.3594 45.1719 48.1406 41.5469
Q48.5781 39.3125 48.5781 33.4531
L48.5781 21.7344
Q48.5781 9.46875 49.1406 6.21875
Q49.7031 2.98438 51.375 0
L42.1875 0
Q40.8281 2.73438 40.4375 6.39062
M39.7031 26.0312
Q34.9062 24.0781 25.3438 22.7031
Q19.9219 21.9219 17.6719 20.9375
Q15.4375 19.9688 14.2031 18.0938
Q12.9844 16.2188 12.9844 13.9219
Q12.9844 10.4062 15.6406 8.0625
Q18.3125 5.71875 23.4375 5.71875
Q28.5156 5.71875 32.4688 7.9375
Q36.4219 10.1562 38.2812 14.0156
Q39.7031 17 39.7031 22.7969
z
" id="ArialMT-61"/>
      <path d="
M8.6875 0
L8.6875 45.0156
L0.921875 45.0156
L0.921875 51.8594
L8.6875 51.8594
L8.6875 57.375
Q8.6875 62.5938 9.625 65.1406
Q10.8906 68.5625 14.0781 70.6719
Q17.2812 72.7969 23.0469 72.7969
Q26.7656 72.7969 31.25 71.9219
L29.9375 64.2656
Q27.2031 64.75 24.75 64.75
Q20.75 64.75 19.0938 63.0312
Q17.4375 61.3281 17.4375 56.6406
L17.4375 51.8594
L27.5469 51.8594
L27.5469 45.0156
L17.4375 45.0156
L17.4375 0
z
" id="ArialMT-66"/>
      <path d="
M42.0938 16.7031
L51.1719 15.5781
Q49.0312 7.625 43.2188 3.21875
Q37.4062 -1.17188 28.375 -1.17188
Q17 -1.17188 10.3281 5.82812
Q3.65625 12.8438 3.65625 25.4844
Q3.65625 38.5781 10.3906 45.7969
Q17.1406 53.0312 27.875 53.0312
Q38.2812 53.0312 44.875 45.9531
Q51.4688 38.875 51.4688 26.0312
Q51.4688 25.25 51.4219 23.6875
L12.75 23.6875
Q13.2344 15.1406 17.5781 10.5938
Q21.9219 6.0625 28.4219 6.0625
Q33.25 6.0625 36.6719 8.59375
Q40.0938 11.1406 42.0938 16.7031
M13.2344 30.9062
L42.1875 30.9062
Q41.6094 37.4531 38.875 40.7188
Q34.6719 45.7969 27.9844 45.7969
Q21.9219 45.7969 17.7969 41.75
Q13.6719 37.7031 13.2344 30.9062" id="ArialMT-65"/>
      <path d="
M40.2344 0
L40.2344 6.54688
Q35.2969 -1.17188 25.7344 -1.17188
Q19.5312 -1.17188 14.3281 2.25
Q9.125 5.67188 6.26562 11.7969
Q3.42188 17.9219 3.42188 25.875
Q3.42188 33.6406 6 39.9688
Q8.59375 46.2969 13.7656 49.6562
Q18.9531 53.0312 25.3438 53.0312
Q30.0312 53.0312 33.6875 51.0469
Q37.3594 49.0781 39.6562 45.9062
L39.6562 71.5781
L48.3906 71.5781
L48.3906 0
z

M12.4531 25.875
Q12.4531 15.9219 16.6406 10.9844
Q20.8438 6.0625 26.5625 6.0625
Q32.3281 6.0625 36.3438 10.7656
Q40.375 15.4844 40.375 25.1406
Q40.375 35.7969 36.2656 40.7656
Q32.1719 45.75 26.1719 45.75
Q20.3125 45.75 16.375 40.9688
Q12.4531 36.1875 12.4531 25.875" id="ArialMT-64"/>
      <path d="
M6.64062 61.4688
L6.64062 71.5781
L15.4375 71.5781
L15.4375 61.4688
z

M6.64062 0
L6.64062 51.8594
L15.4375 51.8594
L15.4375 0
z
" id="ArialMT-69"/>
      <path d="
M6.59375 -19.875
L6.59375 51.8594
L14.5938 51.8594
L14.5938 45.125
Q17.4375 49.0781 21 51.0469
Q24.5625 53.0312 29.6406 53.0312
Q36.2812 53.0312 41.3594 49.6094
Q46.4375 46.1875 49.0156 39.9531
Q51.6094 33.7344 51.6094 26.3125
Q51.6094 18.3594 48.75 11.9844
Q45.9062 5.60938 40.4531 2.21875
Q35.0156 -1.17188 29 -1.17188
Q24.6094 -1.17188 21.1094 0.6875
Q17.625 2.54688 15.375 5.375
L15.375 -19.875
z

M14.5469 25.6406
Q14.5469 15.625 18.5938 10.8438
Q22.6562 6.0625 28.4219 6.0625
Q34.2812 6.0625 38.4531 11.0156
Q42.625 15.9688 42.625 26.375
Q42.625 36.2812 38.5469 41.2031
Q34.4688 46.1406 28.8125 46.1406
Q23.1875 46.1406 18.8594 40.8906
Q14.5469 35.6406 14.5469 25.6406" id="ArialMT-70"/>
      <path d="
M3.07812 15.4844
L11.7656 16.8438
Q12.5 11.625 15.8438 8.84375
Q19.1875 6.0625 25.2031 6.0625
Q31.25 6.0625 34.1719 8.51562
Q37.1094 10.9844 37.1094 14.3125
Q37.1094 17.2812 34.5156 19
Q32.7188 20.1719 25.5312 21.9688
Q15.875 24.4219 12.1406 26.2031
Q8.40625 27.9844 6.46875 31.125
Q4.54688 34.2812 4.54688 38.0938
Q4.54688 41.5469 6.125 44.5
Q7.71875 47.4688 10.4531 49.4219
Q12.5 50.9219 16.0312 51.9688
Q19.5781 53.0312 23.6406 53.0312
Q29.7344 53.0312 34.3438 51.2656
Q38.9688 49.5156 41.1562 46.5
Q43.3594 43.5 44.1875 38.4844
L35.5938 37.3125
Q35.0156 41.3125 32.2031 43.5469
Q29.3906 45.7969 24.2656 45.7969
Q18.2188 45.7969 15.625 43.7969
Q13.0312 41.7969 13.0312 39.1094
Q13.0312 37.4062 14.1094 36.0312
Q15.1875 34.625 17.4844 33.6875
Q18.7969 33.2031 25.25 31.4531
Q34.5781 28.9531 38.25 27.3594
Q41.9375 25.7812 44.0312 22.75
Q46.1406 19.7344 46.1406 15.2344
Q46.1406 10.8438 43.5781 6.95312
Q41.0156 3.07812 36.1719 0.953125
Q31.3438 -1.17188 25.25 -1.17188
Q15.1406 -1.17188 9.84375 3.03125
Q4.54688 7.23438 3.07812 15.4844" id="ArialMT-73"/>
      <path d="
M6.39062 0
L6.39062 71.5781
L15.1875 71.5781
L15.1875 0
z
" id="ArialMT-6c"/>
      <path d="
M3.32812 25.9219
Q3.32812 40.3281 11.3281 47.2656
Q18.0156 53.0312 27.6406 53.0312
Q38.3281 53.0312 45.1094 46.0156
Q51.9062 39.0156 51.9062 26.6562
Q51.9062 16.6562 48.9062 10.9062
Q45.9062 5.17188 40.1562 2
Q34.4219 -1.17188 27.6406 -1.17188
Q16.75 -1.17188 10.0312 5.8125
Q3.32812 12.7969 3.32812 25.9219
M12.3594 25.9219
Q12.3594 15.9688 16.7031 11.0156
Q21.0469 6.0625 27.6406 6.0625
Q34.1875 6.0625 38.5312 11.0312
Q42.875 16.0156 42.875 26.2188
Q42.875 35.8438 38.5 40.7969
Q34.125 45.75 27.6406 45.75
Q21.0469 45.75 16.7031 40.8125
Q12.3594 35.8906 12.3594 25.9219" id="ArialMT-6f"/>
      <path d="
M5.03125 -1.21875
L9.28125 19.5781
L1.03125 19.5781
L1.03125 26.8594
L10.75 26.8594
L14.3594 44.5781
L1.03125 44.5781
L1.03125 51.8594
L15.8281 51.8594
L20.0625 72.7969
L27.3906 72.7969
L23.1406 51.8594
L38.5312 51.8594
L42.7812 72.7969
L50.1406 72.7969
L45.9062 51.8594
L54.3438 51.8594
L54.3438 44.5781
L44.4375 44.5781
L40.7656 26.8594
L54.3438 26.8594
L54.3438 19.5781
L39.3125 19.5781
L35.0625 -1.21875
L27.7344 -1.21875
L31.9375 19.5781
L16.6094 19.5781
L12.3594 -1.21875
z

M18.0625 26.8594
L33.4062 26.8594
L37.0625 44.5781
L21.6875 44.5781
z
" id="ArialMT-23"/>
      <path d="
M21 0
L1.26562 51.8594
L10.5469 51.8594
L21.6875 20.7969
Q23.4844 15.7656 25 10.3594
Q26.1719 14.4531 28.2656 20.2188
L39.7969 51.8594
L48.8281 51.8594
L29.2031 0
z
" id="ArialMT-76"/>
      <path id="ArialMT-20"/>
     </defs>
     <g style="fill:#262626;" transform="translate(175.539140625 276.35296875)scale(0.11 -0.11)">
      <use xlink:href="#ArialMT-23"/>
      <use x="55.615234375" xlink:href="#ArialMT-20"/>
      <use x="83.3984375" xlink:href="#ArialMT-6f"/>
      <use x="139.013671875" xlink:href="#ArialMT-66"/>
      <use x="166.796875" xlink:href="#ArialMT-20"/>
      <use x="194.580078125" xlink:href="#ArialMT-70"/>
      <use x="250.1953125" xlink:href="#ArialMT-6c"/>
      <use x="272.412109375" xlink:href="#ArialMT-61"/>
      <use x="328.02734375" xlink:href="#ArialMT-63"/>
      <use x="378.02734375" xlink:href="#ArialMT-65"/>
      <use x="433.642578125" xlink:href="#ArialMT-73"/>
      <use x="483.642578125" xlink:href="#ArialMT-20"/>
      <use x="511.42578125" xlink:href="#ArialMT-6c"/>
      <use x="533.642578125" xlink:href="#ArialMT-69"/>
      <use x="555.859375" xlink:href="#ArialMT-76"/>
      <use x="605.859375" xlink:href="#ArialMT-65"/>
      <use x="661.474609375" xlink:href="#ArialMT-64"/>
     </g>
    </g>
   </g>
   <g id="matplotlib.axis_2"/>
   <g id="PolyCollection_1">
    <defs>
     <path d="
M27.9331 -194.848
L27.9331 -129.152
L31.4325 -125.781
L34.9318 -122.598
L38.4312 -119.685
L41.9306 -117.107
L45.4299 -114.914
L48.9293 -113.128
L52.4287 -111.747
L55.928 -110.743
L59.4274 -110.059
L62.9268 -109.615
L66.4262 -109.316
L69.9255 -109.051
L73.4249 -108.704
L76.9243 -108.162
L80.4236 -107.324
L83.923 -106.106
L87.4224 -104.455
L90.9217 -102.348
L94.4211 -99.8031
L97.9205 -96.8779
L101.42 -93.6693
L104.919 -90.3085
L108.419 -86.9522
L111.918 -83.7716
L115.417 -80.9382
L118.917 -78.6092
L122.416 -76.9136
L125.915 -75.9402
L129.415 -75.7299
L132.914 -76.2714
L136.414 -77.5036
L139.913 -79.3215
L143.412 -81.5872
L146.912 -84.1435
L150.411 -86.8275
L153.91 -89.4854
L157.41 -91.983
L160.909 -94.2139
L164.408 -96.1032
L167.908 -97.6065
L171.407 -98.7061
L174.907 -99.404
L178.406 -99.7136
L181.905 -99.6524
L185.405 -99.2354
L188.904 -98.4716
L192.403 -97.3631
L195.903 -95.9084
L199.402 -94.1068
L202.902 -91.9663
L206.401 -89.511
L209.9 -86.7881
L213.4 -83.8738
L216.899 -80.8746
L220.398 -77.9269
L223.898 -75.1909
L227.397 -72.8421
L230.897 -71.0592
L234.396 -70.0105
L237.895 -69.84
L241.395 -70.6543
L244.894 -72.5129
L248.393 -75.4215
L251.893 -79.3308
L255.392 -84.139
L258.891 -89.6996
L262.391 -95.8321
L265.89 -102.335
L269.39 -109.001
L272.889 -115.628
L276.388 -122.034
L279.888 -128.062
L283.387 -133.591
L286.886 -138.531
L290.386 -142.829
L293.885 -146.461
L297.385 -149.428
L300.884 -151.753
L304.383 -153.47
L307.883 -154.625
L311.382 -155.266
L314.881 -155.444
L318.381 -155.211
L321.88 -154.621
L325.379 -153.728
L328.879 -152.59
L332.378 -151.269
L335.878 -149.83
L339.377 -148.344
L342.876 -146.884
L346.376 -145.522
L349.875 -144.33
L353.374 -143.37
L356.874 -142.694
L360.373 -142.339
L363.873 -142.327
L367.372 -142.658
L370.871 -143.316
L374.371 -144.268
L374.371 -179.732
L374.371 -179.732
L370.871 -180.684
L367.372 -181.342
L363.873 -181.673
L360.373 -181.661
L356.874 -181.306
L353.374 -180.63
L349.875 -179.67
L346.376 -178.478
L342.876 -177.116
L339.377 -175.656
L335.878 -174.17
L332.378 -172.731
L328.879 -171.41
L325.379 -170.272
L321.88 -169.379
L318.381 -168.789
L314.881 -168.556
L311.382 -168.734
L307.883 -169.375
L304.383 -170.53
L300.884 -172.247
L297.385 -174.572
L293.885 -177.539
L290.386 -181.171
L286.886 -185.469
L283.387 -190.409
L279.888 -195.938
L276.388 -201.966
L272.889 -208.372
L269.39 -214.999
L265.89 -221.665
L262.391 -228.168
L258.891 -234.3
L255.392 -239.861
L251.893 -244.669
L248.393 -248.578
L244.894 -251.487
L241.395 -253.346
L237.895 -254.16
L234.396 -253.989
L230.897 -252.941
L227.397 -251.158
L223.898 -248.809
L220.398 -246.073
L216.899 -243.125
L213.4 -240.126
L209.9 -237.212
L206.401 -234.489
L202.902 -232.034
L199.402 -229.893
L195.903 -228.092
L192.403 -226.637
L188.904 -225.528
L185.405 -224.765
L181.905 -224.348
L178.406 -224.286
L174.907 -224.596
L171.407 -225.294
L167.908 -226.394
L164.408 -227.897
L160.909 -229.786
L157.41 -232.017
L153.91 -234.515
L150.411 -237.172
L146.912 -239.857
L143.412 -242.413
L139.913 -244.679
L136.414 -246.496
L132.914 -247.729
L129.415 -248.27
L125.915 -248.06
L122.416 -247.086
L118.917 -245.391
L115.417 -243.062
L111.918 -240.228
L108.419 -237.048
L104.919 -233.692
L101.42 -230.331
L97.9205 -227.122
L94.4211 -224.197
L90.9217 -221.652
L87.4224 -219.545
L83.923 -217.894
L80.4236 -216.676
L76.9243 -215.838
L73.4249 -215.296
L69.9255 -214.949
L66.4262 -214.684
L62.9268 -214.385
L59.4274 -213.941
L55.928 -213.257
L52.4287 -212.253
L48.9293 -210.872
L45.4299 -209.086
L41.9306 -206.893
L38.4312 -204.315
L34.9318 -201.402
L31.4325 -198.219
L27.9331 -194.848
z
" id="mcf6bd00fc9" style="stroke:#dcdddd;stroke-width:0.3;"/>
    </defs>
    <g clip-path="url(#pe99c26a626)">
     <use style="fill:#dcdddd;stroke:#dcdddd;stroke-width:0.3;" x="0.0" xlink:href="#mcf6bd00fc9" y="288.0"/>
    </g>
   </g>
   <g id="line2d_8">
    <path clip-path="url(#pe99c26a626)" d="
M134.013 211.412
L134.013 40.5881" style="fill:none;stroke:#848484;stroke-linecap:round;stroke-width:0.8;"/>
   </g>
   <g id="line2d_9">
    <path clip-path="url(#pe99c26a626)" d="
M40.0181 169.529
L40.0181 82.4709" style="fill:none;stroke:#848484;stroke-linecap:round;stroke-width:0.8;"/>
   </g>
   <g id="line2d_10">
    <path clip-path="url(#pe99c26a626)" d="
M174.296 188.689
L174.296 63.3107" style="fill:none;stroke:#848484;stroke-linecap:round;stroke-width:0.8;"/>
   </g>
   <g id="line2d_11">
    <path clip-path="url(#pe99c26a626)" d="
M53.4459 176.581
L53.4459 75.4187" style="fill:none;stroke:#848484;stroke-linecap:round;stroke-width:0.8;"/>
   </g>
   <g id="line2d_12">
    <path clip-path="url(#pe99c26a626)" d="
M120.585 210.285
L120.585 41.7153" style="fill:none;stroke:#848484;stroke-linecap:round;stroke-width:0.8;"/>
   </g>
   <g id="line2d_13">
    <path clip-path="url(#pe99c26a626)" d="
M134.013 211.412
L134.013 40.5881" style="fill:none;stroke:#848484;stroke-linecap:round;stroke-width:0.8;"/>
   </g>
   <g id="line2d_14">
    <path clip-path="url(#pe99c26a626)" d="
M80.3016 180.641
L80.3016 71.3589" style="fill:none;stroke:#848484;stroke-linecap:round;stroke-width:0.8;"/>
   </g>
   <g id="line2d_15">
    <path clip-path="url(#pe99c26a626)" d="
M120.585 210.285
L120.585 41.7153" style="fill:none;stroke:#848484;stroke-linecap:round;stroke-width:0.8;"/>
   </g>
   <g id="line2d_16">
    <path clip-path="url(#pe99c26a626)" d="
M214.58 205.134
L214.58 46.8657" style="fill:none;stroke:#848484;stroke-linecap:round;stroke-width:0.8;"/>
   </g>
   <g id="line2d_17">
    <path clip-path="url(#pe99c26a626)" d="
M187.724 189.232
L187.724 62.7677" style="fill:none;stroke:#848484;stroke-linecap:round;stroke-width:0.8;"/>
   </g>
   <g id="line2d_18">
    <path clip-path="url(#pe99c26a626)" d="
M241.435 217.33
L241.435 34.6699" style="fill:none;stroke:#848484;stroke-linecap:round;stroke-width:0.8;"/>
   </g>
   <g id="line2d_19">
    <path clip-path="url(#pe99c26a626)" d="
M254.863 204.64
L254.863 47.3599" style="fill:none;stroke:#848484;stroke-linecap:round;stroke-width:0.8;"/>
   </g>
   <g id="line2d_20">
    <path clip-path="url(#pe99c26a626)" d="
M241.435 217.33
L241.435 34.6699" style="fill:none;stroke:#848484;stroke-linecap:round;stroke-width:0.8;"/>
   </g>
   <g id="line2d_21">
    <path clip-path="url(#pe99c26a626)" d="
M241.435 217.33
L241.435 34.6699" style="fill:none;stroke:#848484;stroke-linecap:round;stroke-width:0.8;"/>
   </g>
   <g id="line2d_22">
    <path clip-path="url(#pe99c26a626)" d="
M362.286 145.711
L362.286 106.289" style="fill:none;stroke:#848484;stroke-linecap:round;stroke-width:0.8;"/>
   </g>
   <g id="line2d_23">
    <path clip-path="url(#pe99c26a626)" d="
M27.9331 158.848
L31.4325 162.219
L34.9318 165.402
L38.4312 168.315
L41.9306 170.893
L45.4299 173.086
L48.9293 174.872
L52.4287 176.253
L55.928 177.257
L59.4274 177.941
L62.9268 178.385
L66.4262 178.684
L69.9255 178.949
L73.4249 179.296
L76.9243 179.838
L80.4236 180.676
L83.923 181.894
L87.4224 183.545
L90.9217 185.652
L94.4211 188.197
L97.9205 191.122
L101.42 194.331
L104.919 197.692
L108.419 201.048
L111.918 204.228
L115.417 207.062
L118.917 209.391
L122.416 211.086
L125.915 212.06
L129.415 212.27
L132.914 211.729
L136.414 210.496
L139.913 208.679
L143.412 206.413
L146.912 203.857
L150.411 201.172
L153.91 198.515
L157.41 196.017
L160.909 193.786
L164.408 191.897
L167.908 190.394
L171.407 189.294
L174.907 188.596
L178.406 188.286
L181.905 188.348
L185.405 188.765
L188.904 189.528
L192.403 190.637
L195.903 192.092
L199.402 193.893
L202.902 196.034
L206.401 198.489
L209.9 201.212
L213.4 204.126
L216.899 207.125
L220.398 210.073
L223.898 212.809
L227.397 215.158
L230.897 216.941
L234.396 217.989
L237.895 218.16
L241.395 217.346
L244.894 215.487
L248.393 212.578
L251.893 208.669
L255.392 203.861
L258.891 198.3
L262.391 192.168
L265.89 185.665
L269.39 178.999
L272.889 172.372
L276.388 165.966
L279.888 159.938
L283.387 154.409
L286.886 149.469
L290.386 145.171
L293.885 141.539
L297.385 138.572
L300.884 136.247
L304.383 134.53
L307.883 133.375
L311.382 132.734
L314.881 132.556
L318.381 132.789
L321.88 133.379
L325.379 134.272
L328.879 135.41
L332.378 136.731
L335.878 138.17
L339.377 139.656
L342.876 141.116
L346.376 142.478
L349.875 143.67
L353.374 144.63
L356.874 145.306
L360.373 145.661
L363.873 145.673
L367.372 145.342
L370.871 144.684
L374.371 143.732" style="fill:none;stroke:#848484;stroke-linecap:round;stroke-width:2;"/>
   </g>
   <g id="line2d_24">
    <path clip-path="url(#pe99c26a626)" d="
M27.9331 93.1516
L31.4325 89.7812
L34.9318 86.5985
L38.4312 83.6848
L41.9306 81.1073
L45.4299 78.9137
L48.9293 77.1279
L52.4287 75.7475
L55.928 74.7429
L59.4274 74.0585
L62.9268 73.6155
L66.4262 73.3163
L69.9255 73.0509
L73.4249 72.7038
L76.9243 72.1621
L80.4236 71.3237
L83.923 70.1063
L87.4224 68.4548
L90.9217 66.348
L94.4211 63.8031
L97.9205 60.8779
L101.42 57.6693
L104.919 54.3085
L108.419 50.9522
L111.918 47.7716
L115.417 44.9382
L118.917 42.6092
L122.416 40.9136
L125.915 39.9402
L129.415 39.7299
L132.914 40.2714
L136.414 41.5036
L139.913 43.3215
L143.412 45.5872
L146.912 48.1435
L150.411 50.8275
L153.91 53.4854
L157.41 55.983
L160.909 58.2139
L164.408 60.1032
L167.908 61.6065
L171.407 62.7061
L174.907 63.404
L178.406 63.7136
L181.905 63.6524
L185.405 63.2354
L188.904 62.4716
L192.403 61.3631
L195.903 59.9084
L199.402 58.1068
L202.902 55.9663
L206.401 53.511
L209.9 50.7881
L213.4 47.8738
L216.899 44.8746
L220.398 41.9269
L223.898 39.1909
L227.397 36.8421
L230.897 35.0592
L234.396 34.0105
L237.895 33.84
L241.395 34.6543
L244.894 36.5129
L248.393 39.4215
L251.893 43.3308
L255.392 48.139
L258.891 53.6996
L262.391 59.8321
L265.89 66.3351
L269.39 73.0008
L272.889 79.628
L276.388 86.0338
L279.888 92.0624
L283.387 97.591
L286.886 102.531
L290.386 106.829
L293.885 110.461
L297.385 113.428
L300.884 115.753
L304.383 117.47
L307.883 118.625
L311.382 119.266
L314.881 119.444
L318.381 119.211
L321.88 118.621
L325.379 117.728
L328.879 116.59
L332.378 115.269
L335.878 113.83
L339.377 112.344
L342.876 110.884
L346.376 109.522
L349.875 108.33
L353.374 107.37
L356.874 106.694
L360.373 106.339
L363.873 106.327
L367.372 106.658
L370.871 107.316
L374.371 108.268" style="fill:none;stroke:#848484;stroke-linecap:round;stroke-width:2;"/>
   </g>
   <g id="line2d_25">
    <path clip-path="url(#pe99c26a626)" d="
M173.401 241.2
L173.401 10.8" style="fill:none;stroke:#ac1735;stroke-linecap:round;stroke-width:2;"/>
   </g>
   <g id="patch_3">
    <path d="
M13.1625 241.2
L415.997 241.2" style="fill:none;stroke:#262626;stroke-linecap:square;stroke-linejoin:miter;stroke-width:1.25;"/>
   </g>
   <g id="text_9">
    <!-- Mean: 11.93 -->
    <defs>
     <path d="
M9.03125 41.8438
L9.03125 51.8594
L19.0469 51.8594
L19.0469 41.8438
z

M9.03125 0
L9.03125 10.0156
L19.0469 10.0156
L19.0469 0
z
" id="ArialMT-3a"/>
     <path d="
M9.07812 0
L9.07812 10.0156
L19.0938 10.0156
L19.0938 0
z
" id="ArialMT-2e"/>
     <path d="
M7.42188 0
L7.42188 71.5781
L21.6875 71.5781
L38.625 20.9062
Q40.9688 13.8125 42.0469 10.2969
Q43.2656 14.2031 45.8438 21.7812
L62.9844 71.5781
L75.7344 71.5781
L75.7344 0
L66.6094 0
L66.6094 59.9062
L45.7969 0
L37.25 0
L16.5469 60.9375
L16.5469 0
z
" id="ArialMT-4d"/>
     <path d="
M6.59375 0
L6.59375 51.8594
L14.5 51.8594
L14.5 44.4844
Q20.2188 53.0312 31 53.0312
Q35.6875 53.0312 39.625 51.3438
Q43.5625 49.6562 45.5156 46.9219
Q47.4688 44.1875 48.25 40.4375
Q48.7344 37.9844 48.7344 31.8906
L48.7344 0
L39.9375 0
L39.9375 31.5469
Q39.9375 36.9219 38.9062 39.5781
Q37.8906 42.2344 35.2812 43.8125
Q32.6719 45.4062 29.1562 45.4062
Q23.5312 45.4062 19.4531 41.8438
Q15.375 38.2812 15.375 28.3281
L15.375 0
z
" id="ArialMT-6e"/>
     <path d="
M5.46875 16.5469
L13.9219 17.3281
Q14.9844 11.375 18.0156 8.6875
Q21.0469 6 25.7812 6
Q29.8281 6 32.875 7.85938
Q35.9375 9.71875 37.8906 12.8125
Q39.8438 15.9219 41.1562 21.1875
Q42.4844 26.4688 42.4844 31.9375
Q42.4844 32.5156 42.4375 33.6875
Q39.7969 29.5 35.2344 26.875
Q30.6719 24.2656 25.3438 24.2656
Q16.4531 24.2656 10.2969 30.7031
Q4.15625 37.1562 4.15625 47.7031
Q4.15625 58.5938 10.5781 65.2344
Q17 71.875 26.6562 71.875
Q33.6406 71.875 39.4219 68.1094
Q45.2188 64.3594 48.2188 57.3906
Q51.2188 50.4375 51.2188 37.25
Q51.2188 23.5312 48.2344 15.4062
Q45.2656 7.28125 39.375 3.03125
Q33.5 -1.21875 25.5938 -1.21875
Q17.1875 -1.21875 11.8594 3.4375
Q6.54688 8.10938 5.46875 16.5469
M41.4531 48.1406
Q41.4531 55.7188 37.4219 60.1562
Q33.4062 64.5938 27.7344 64.5938
Q21.875 64.5938 17.5312 59.8125
Q13.1875 55.0312 13.1875 47.4062
Q13.1875 40.5781 17.3125 36.2969
Q21.4375 32.0312 27.4844 32.0312
Q33.5938 32.0312 37.5156 36.2969
Q41.4531 40.5781 41.4531 48.1406" id="ArialMT-39"/>
    </defs>
    <g style="fill:#ac1735;" transform="translate(178.208219375 29.232)scale(0.144 -0.144)">
     <use xlink:href="#ArialMT-4d"/>
     <use x="83.30078125" xlink:href="#ArialMT-65"/>
     <use x="138.916015625" xlink:href="#ArialMT-61"/>
     <use x="194.53125" xlink:href="#ArialMT-6e"/>
     <use x="250.146484375" xlink:href="#ArialMT-3a"/>
     <use x="277.9296875" xlink:href="#ArialMT-20"/>
     <use x="305.712890625" xlink:href="#ArialMT-31"/>
     <use x="353.953125" xlink:href="#ArialMT-31"/>
     <use x="409.568359375" xlink:href="#ArialMT-2e"/>
     <use x="437.3515625" xlink:href="#ArialMT-39"/>
     <use x="492.966796875" xlink:href="#ArialMT-33"/>
    </g>
   </g>
  </g>
 </g>
 <defs>
  <clipPath id="pe99c26a626">
   <rect height="230.4" width="402.834375" x="13.1625" y="10.8"/>
  </clipPath>
 </defs>
</svg>
