<?xml version="1.0" encoding="utf-8" standalone="no"?>
<!DOCTYPE svg PUBLIC "-//W3C//DTD SVG 1.1//EN"
  "http://www.w3.org/Graphics/SVG/1.1/DTD/svg11.dtd">
<!-- Created with matplotlib (http://matplotlib.org/) -->
<svg height="288pt" version="1.1" viewBox="0 0 432 288" width="432pt" xmlns="http://www.w3.org/2000/svg" xmlns:xlink="http://www.w3.org/1999/xlink">
 <defs>
  <style type="text/css">
*{stroke-linecap:butt;stroke-linejoin:round;}
  </style>
 </defs>
 <g id="figure_1">
  <g id="patch_1">
   <path d="
M0 288
L432 288
L432 0
L0 0
z
" style="fill:#ffffff;"/>
  </g>
  <g id="axes_1">
   <g id="patch_2">
    <path d="
M15.3 241.2
L418.838 241.2
L418.838 10.8
L15.3 10.8
z
" style="fill:#ffffff;"/>
   </g>
   <g id="matplotlib.axis_1">
    <g id="xtick_1">
     <g id="line2d_1">
      <defs>
       <path d="
M0 0
L0 6" id="m44d4eda7dc" style="stroke:#262626;"/>
      </defs>
      <g>
       <use style="fill:#262626;stroke:#262626;" x="15.3" xlink:href="#m44d4eda7dc" y="241.2"/>
      </g>
     </g>
     <g id="text_1">
      <!-- −1 -->
      <defs>
       <path d="
M37.25 0
L28.4688 0
L28.4688 56
Q25.2969 52.9844 20.1406 49.9531
Q14.9844 46.9219 10.8906 45.4062
L10.8906 53.9062
Q18.2656 57.375 23.7812 62.2969
Q29.2969 67.2344 31.5938 71.875
L37.25 71.875
z
" id="ArialMT-31"/>
       <path d="
M52.8281 31.2031
L5.5625 31.2031
L5.5625 39.4062
L52.8281 39.4062
z
" id="ArialMT-2212"/>
      </defs>
      <g style="fill:#262626;" transform="translate(10.7953125 261.3578125)scale(0.1 -0.1)">
       <use xlink:href="#ArialMT-2212"/>
       <use x="58.3984375" xlink:href="#ArialMT-31"/>
      </g>
     </g>
    </g>
    <g id="xtick_2">
     <g id="line2d_2">
      <g>
       <use style="fill:#262626;stroke:#262626;" x="60.1375" xlink:href="#m44d4eda7dc" y="241.2"/>
      </g>
     </g>
     <g id="text_2">
      <!-- 0 -->
      <defs>
       <path d="
M4.15625 35.2969
Q4.15625 48 6.76562 55.7344
Q9.375 63.4844 14.5156 67.6719
Q19.6719 71.875 27.4844 71.875
Q33.25 71.875 37.5938 69.5469
Q41.9375 67.2344 44.7656 62.8594
Q47.6094 58.5 49.2188 52.2188
Q50.8281 45.9531 50.8281 35.2969
Q50.8281 22.7031 48.2344 14.9688
Q45.6562 7.23438 40.5 3
Q35.3594 -1.21875 27.4844 -1.21875
Q17.1406 -1.21875 11.2344 6.20312
Q4.15625 15.1406 4.15625 35.2969
M13.1875 35.2969
Q13.1875 17.6719 17.3125 11.8281
Q21.4375 6 27.4844 6
Q33.5469 6 37.6719 11.8594
Q41.7969 17.7188 41.7969 35.2969
Q41.7969 52.9844 37.6719 58.7812
Q33.5469 64.5938 27.3906 64.5938
Q21.3438 64.5938 17.7188 59.4688
Q13.1875 52.9375 13.1875 35.2969" id="ArialMT-30"/>
      </defs>
      <g style="fill:#262626;" transform="translate(57.80390625 261.3578125)scale(0.1 -0.1)">
       <use xlink:href="#ArialMT-30"/>
      </g>
     </g>
    </g>
    <g id="xtick_3">
     <g id="line2d_3">
      <g>
       <use style="fill:#262626;stroke:#262626;" x="104.975" xlink:href="#m44d4eda7dc" y="241.2"/>
      </g>
     </g>
     <g id="text_3">
      <!-- 1 -->
      <g style="fill:#262626;" transform="translate(103.65703125 261.3578125)scale(0.1 -0.1)">
       <use xlink:href="#ArialMT-31"/>
      </g>
     </g>
    </g>
    <g id="xtick_4">
     <g id="line2d_4">
      <g>
       <use style="fill:#262626;stroke:#262626;" x="149.8125" xlink:href="#m44d4eda7dc" y="241.2"/>
      </g>
     </g>
     <g id="text_4">
      <!-- 2 -->
      <defs>
       <path d="
M50.3438 8.45312
L50.3438 0
L3.03125 0
Q2.9375 3.17188 4.04688 6.10938
Q5.85938 10.9375 9.82812 15.625
Q13.8125 20.3125 21.3438 26.4688
Q33.0156 36.0312 37.1094 41.625
Q41.2188 47.2188 41.2188 52.2031
Q41.2188 57.4219 37.4688 61
Q33.7344 64.5938 27.7344 64.5938
Q21.3906 64.5938 17.5781 60.7812
Q13.7656 56.9844 13.7188 50.25
L4.6875 51.1719
Q5.60938 61.2812 11.6562 66.5781
Q17.7188 71.875 27.9375 71.875
Q38.2344 71.875 44.2344 66.1562
Q50.25 60.4531 50.25 52
Q50.25 47.7031 48.4844 43.5469
Q46.7344 39.4062 42.6562 34.8125
Q38.5781 30.2188 29.1094 22.2188
Q21.1875 15.5781 18.9375 13.2031
Q16.7031 10.8438 15.2344 8.45312
z
" id="ArialMT-32"/>
      </defs>
      <g style="fill:#262626;" transform="translate(147.4421875 261.3578125)scale(0.1 -0.1)">
       <use xlink:href="#ArialMT-32"/>
      </g>
     </g>
    </g>
    <g id="xtick_5">
     <g id="line2d_5">
      <g>
       <use style="fill:#262626;stroke:#262626;" x="194.65" xlink:href="#m44d4eda7dc" y="241.2"/>
      </g>
     </g>
     <g id="text_5">
      <!-- 3 -->
      <defs>
       <path d="
M4.20312 18.8906
L12.9844 20.0625
Q14.5 12.5938 18.1406 9.29688
Q21.7812 6 27 6
Q33.2031 6 37.4688 10.2969
Q41.75 14.5938 41.75 20.9531
Q41.75 27 37.7969 30.9219
Q33.8438 34.8594 27.7344 34.8594
Q25.25 34.8594 21.5312 33.8906
L22.5156 41.6094
Q23.3906 41.5 23.9219 41.5
Q29.5469 41.5 34.0312 44.4219
Q38.5312 47.3594 38.5312 53.4688
Q38.5312 58.2969 35.25 61.4688
Q31.9844 64.6562 26.8125 64.6562
Q21.6875 64.6562 18.2656 61.4219
Q14.8438 58.2031 13.875 51.7656
L5.07812 53.3281
Q6.6875 62.1562 12.3906 67.0156
Q18.1094 71.875 26.6094 71.875
Q32.4688 71.875 37.3906 69.3594
Q42.3281 66.8438 44.9375 62.5
Q47.5625 58.1562 47.5625 53.2656
Q47.5625 48.6406 45.0625 44.8281
Q42.5781 41.0156 37.7031 38.7656
Q44.0469 37.3125 47.5625 32.6875
Q51.0781 28.0781 51.0781 21.1406
Q51.0781 11.7656 44.2344 5.25
Q37.4062 -1.26562 26.9531 -1.26562
Q17.5312 -1.26562 11.2969 4.34375
Q5.07812 9.96875 4.20312 18.8906" id="ArialMT-33"/>
      </defs>
      <g style="fill:#262626;" transform="translate(192.30625 261.3578125)scale(0.1 -0.1)">
       <use xlink:href="#ArialMT-33"/>
      </g>
     </g>
    </g>
    <g id="xtick_6">
     <g id="line2d_6">
      <g>
       <use style="fill:#262626;stroke:#262626;" x="239.4875" xlink:href="#m44d4eda7dc" y="241.2"/>
      </g>
     </g>
     <g id="text_6">
      <!-- 4 -->
      <defs>
       <path d="
M32.3281 0
L32.3281 17.1406
L1.26562 17.1406
L1.26562 25.2031
L33.9375 71.5781
L41.1094 71.5781
L41.1094 25.2031
L50.7812 25.2031
L50.7812 17.1406
L41.1094 17.1406
L41.1094 0
z

M32.3281 25.2031
L32.3281 57.4688
L9.90625 25.2031
z
" id="ArialMT-34"/>
      </defs>
      <g style="fill:#262626;" transform="translate(237.01171875 261.3578125)scale(0.1 -0.1)">
       <use xlink:href="#ArialMT-34"/>
      </g>
     </g>
    </g>
    <g id="xtick_7">
     <g id="line2d_7">
      <g>
       <use style="fill:#262626;stroke:#262626;" x="284.325" xlink:href="#m44d4eda7dc" y="241.2"/>
      </g>
     </g>
     <g id="text_7">
      <!-- 5 -->
      <defs>
       <path d="
M4.15625 18.75
L13.375 19.5312
Q14.4062 12.7969 18.1406 9.39062
Q21.875 6 27.1562 6
Q33.5 6 37.8906 10.7812
Q42.2812 15.5781 42.2812 23.4844
Q42.2812 31 38.0625 35.3438
Q33.8438 39.7031 27 39.7031
Q22.75 39.7031 19.3281 37.7656
Q15.9219 35.8438 13.9688 32.7656
L5.71875 33.8438
L12.6406 70.6094
L48.25 70.6094
L48.25 62.2031
L19.6719 62.2031
L15.8281 42.9688
Q22.2656 47.4688 29.3438 47.4688
Q38.7188 47.4688 45.1562 40.9688
Q51.6094 34.4688 51.6094 24.2656
Q51.6094 14.5469 45.9531 7.46875
Q39.0625 -1.21875 27.1562 -1.21875
Q17.3906 -1.21875 11.2031 4.25
Q5.03125 9.71875 4.15625 18.75" id="ArialMT-35"/>
      </defs>
      <g style="fill:#262626;" transform="translate(281.95234375 261.3578125)scale(0.1 -0.1)">
       <use xlink:href="#ArialMT-35"/>
      </g>
     </g>
    </g>
    <g id="xtick_8">
     <g id="line2d_8">
      <g>
       <use style="fill:#262626;stroke:#262626;" x="329.1625" xlink:href="#m44d4eda7dc" y="241.2"/>
      </g>
     </g>
     <g id="text_8">
      <!-- 6 -->
      <defs>
       <path d="
M49.75 54.0469
L41.0156 53.375
Q39.8438 58.5469 37.7031 60.8906
Q34.125 64.6562 28.9062 64.6562
Q24.7031 64.6562 21.5312 62.3125
Q17.3906 59.2812 14.9844 53.4688
Q12.5938 47.6562 12.5 36.9219
Q15.6719 41.75 20.2656 44.0938
Q24.8594 46.4375 29.8906 46.4375
Q38.6719 46.4375 44.8438 39.9688
Q51.0312 33.5 51.0312 23.25
Q51.0312 16.5 48.125 10.7188
Q45.2188 4.9375 40.1406 1.85938
Q35.0625 -1.21875 28.6094 -1.21875
Q17.625 -1.21875 10.6875 6.85938
Q3.76562 14.9375 3.76562 33.5
Q3.76562 54.25 11.4219 63.6719
Q18.1094 71.875 29.4375 71.875
Q37.8906 71.875 43.2812 67.1406
Q48.6875 62.4062 49.75 54.0469
M13.875 23.1875
Q13.875 18.6562 15.7969 14.5
Q17.7188 10.3594 21.1875 8.17188
Q24.6562 6 28.4688 6
Q34.0312 6 38.0312 10.4844
Q42.0469 14.9844 42.0469 22.7031
Q42.0469 30.125 38.0781 34.3906
Q34.125 38.6719 28.125 38.6719
Q22.1719 38.6719 18.0156 34.3906
Q13.875 30.125 13.875 23.1875" id="ArialMT-36"/>
      </defs>
      <g style="fill:#262626;" transform="translate(326.79921875 261.3578125)scale(0.1 -0.1)">
       <use xlink:href="#ArialMT-36"/>
      </g>
     </g>
    </g>
    <g id="xtick_9">
     <g id="line2d_9">
      <g>
       <use style="fill:#262626;stroke:#262626;" x="374.0" xlink:href="#m44d4eda7dc" y="241.2"/>
      </g>
     </g>
     <g id="text_9">
      <!-- 7 -->
      <defs>
       <path d="
M4.73438 62.2031
L4.73438 70.6562
L51.0781 70.6562
L51.0781 63.8125
Q44.2344 56.5469 37.5156 44.4844
Q30.8125 32.4219 27.1562 19.6719
Q24.5156 10.6875 23.7812 0
L14.75 0
Q14.8906 8.45312 18.0625 20.4062
Q21.2344 32.375 27.1719 43.4844
Q33.1094 54.5938 39.7969 62.2031
z
" id="ArialMT-37"/>
      </defs>
      <g style="fill:#262626;" transform="translate(371.6828125 261.3578125)scale(0.1 -0.1)">
       <use xlink:href="#ArialMT-37"/>
      </g>
     </g>
    </g>
    <g id="xtick_10">
     <g id="line2d_10">
      <g>
       <use style="fill:#262626;stroke:#262626;" x="418.8375" xlink:href="#m44d4eda7dc" y="241.2"/>
      </g>
     </g>
     <g id="text_10">
      <!-- 8 -->
      <defs>
       <path d="
M17.6719 38.8125
Q12.2031 40.8281 9.5625 44.5312
Q6.9375 48.25 6.9375 53.4219
Q6.9375 61.2344 12.5469 66.5469
Q18.1719 71.875 27.4844 71.875
Q36.8594 71.875 42.5781 66.4219
Q48.2969 60.9844 48.2969 53.1719
Q48.2969 48.1875 45.6719 44.5
Q43.0625 40.8281 37.75 38.8125
Q44.3438 36.6719 47.7812 31.875
Q51.2188 27.0938 51.2188 20.4531
Q51.2188 11.2812 44.7188 5.03125
Q38.2344 -1.21875 27.6406 -1.21875
Q17.0469 -1.21875 10.5469 5.04688
Q4.04688 11.3281 4.04688 20.7031
Q4.04688 27.6875 7.59375 32.3906
Q11.1406 37.1094 17.6719 38.8125
M15.9219 53.7188
Q15.9219 48.6406 19.1875 45.4062
Q22.4688 42.1875 27.6875 42.1875
Q32.7656 42.1875 36.0156 45.375
Q39.2656 48.5781 39.2656 53.2188
Q39.2656 58.0625 35.9062 61.3594
Q32.5625 64.6562 27.5938 64.6562
Q22.5625 64.6562 19.2344 61.4219
Q15.9219 58.2031 15.9219 53.7188
M13.0938 20.6562
Q13.0938 16.8906 14.875 13.375
Q16.6562 9.85938 20.1719 7.92188
Q23.6875 6 27.7344 6
Q34.0312 6 38.125 10.0469
Q42.2344 14.1094 42.2344 20.3594
Q42.2344 26.7031 38.0156 30.8594
Q33.7969 35.0156 27.4375 35.0156
Q21.2344 35.0156 17.1562 30.9062
Q13.0938 26.8125 13.0938 20.6562" id="ArialMT-38"/>
      </defs>
      <g style="fill:#262626;" transform="translate(416.47890625 261.3578125)scale(0.1 -0.1)">
       <use xlink:href="#ArialMT-38"/>
      </g>
     </g>
    </g>
    <g id="text_11">
     <!-- # of siblings -->
     <defs>
      <path d="
M14.7031 0
L6.54688 0
L6.54688 71.5781
L15.3281 71.5781
L15.3281 46.0469
Q20.9062 53.0312 29.5469 53.0312
Q34.3281 53.0312 38.5938 51.0938
Q42.875 49.1719 45.625 45.6719
Q48.3906 42.1875 49.9531 37.25
Q51.5156 32.3281 51.5156 26.7031
Q51.5156 13.375 44.9219 6.09375
Q38.3281 -1.17188 29.1094 -1.17188
Q19.9219 -1.17188 14.7031 6.5
z

M14.5938 26.3125
Q14.5938 17 17.1406 12.8438
Q21.2969 6.0625 28.375 6.0625
Q34.125 6.0625 38.3281 11.0625
Q42.5312 16.0625 42.5312 25.9844
Q42.5312 36.1406 38.5 40.9688
Q34.4688 45.7969 28.7656 45.7969
Q23 45.7969 18.7969 40.7969
Q14.5938 35.7969 14.5938 26.3125" id="ArialMT-62"/>
      <path d="
M4.98438 -4.29688
L13.5312 -5.5625
Q14.0625 -9.51562 16.5 -11.3281
Q19.7812 -13.7656 25.4375 -13.7656
Q31.5469 -13.7656 34.8594 -11.3281
Q38.1875 -8.89062 39.3594 -4.5
Q40.0469 -1.8125 39.9844 6.78125
Q34.2344 0 25.6406 0
Q14.9375 0 9.07812 7.71875
Q3.21875 15.4375 3.21875 26.2188
Q3.21875 33.6406 5.90625 39.9062
Q8.59375 46.1875 13.6875 49.6094
Q18.7969 53.0312 25.6875 53.0312
Q34.8594 53.0312 40.8281 45.6094
L40.8281 51.8594
L48.9219 51.8594
L48.9219 7.03125
Q48.9219 -5.07812 46.4531 -10.125
Q44 -15.1875 38.6406 -18.1094
Q33.2969 -21.0469 25.4844 -21.0469
Q16.2188 -21.0469 10.5 -16.875
Q4.78125 -12.7031 4.98438 -4.29688
M12.25 26.8594
Q12.25 16.6562 16.2969 11.9688
Q20.3594 7.28125 26.4688 7.28125
Q32.5156 7.28125 36.6094 11.9375
Q40.7188 16.6094 40.7188 26.5625
Q40.7188 36.0781 36.5 40.9062
Q32.2812 45.75 26.3125 45.75
Q20.4531 45.75 16.3438 40.9844
Q12.25 36.2344 12.25 26.8594" id="ArialMT-67"/>
      <path d="
M8.6875 0
L8.6875 45.0156
L0.921875 45.0156
L0.921875 51.8594
L8.6875 51.8594
L8.6875 57.375
Q8.6875 62.5938 9.625 65.1406
Q10.8906 68.5625 14.0781 70.6719
Q17.2812 72.7969 23.0469 72.7969
Q26.7656 72.7969 31.25 71.9219
L29.9375 64.2656
Q27.2031 64.75 24.75 64.75
Q20.75 64.75 19.0938 63.0312
Q17.4375 61.3281 17.4375 56.6406
L17.4375 51.8594
L27.5469 51.8594
L27.5469 45.0156
L17.4375 45.0156
L17.4375 0
z
" id="ArialMT-66"/>
      <path d="
M6.64062 61.4688
L6.64062 71.5781
L15.4375 71.5781
L15.4375 61.4688
z

M6.64062 0
L6.64062 51.8594
L15.4375 51.8594
L15.4375 0
z
" id="ArialMT-69"/>
      <path d="
M3.07812 15.4844
L11.7656 16.8438
Q12.5 11.625 15.8438 8.84375
Q19.1875 6.0625 25.2031 6.0625
Q31.25 6.0625 34.1719 8.51562
Q37.1094 10.9844 37.1094 14.3125
Q37.1094 17.2812 34.5156 19
Q32.7188 20.1719 25.5312 21.9688
Q15.875 24.4219 12.1406 26.2031
Q8.40625 27.9844 6.46875 31.125
Q4.54688 34.2812 4.54688 38.0938
Q4.54688 41.5469 6.125 44.5
Q7.71875 47.4688 10.4531 49.4219
Q12.5 50.9219 16.0312 51.9688
Q19.5781 53.0312 23.6406 53.0312
Q29.7344 53.0312 34.3438 51.2656
Q38.9688 49.5156 41.1562 46.5
Q43.3594 43.5 44.1875 38.4844
L35.5938 37.3125
Q35.0156 41.3125 32.2031 43.5469
Q29.3906 45.7969 24.2656 45.7969
Q18.2188 45.7969 15.625 43.7969
Q13.0312 41.7969 13.0312 39.1094
Q13.0312 37.4062 14.1094 36.0312
Q15.1875 34.625 17.4844 33.6875
Q18.7969 33.2031 25.25 31.4531
Q34.5781 28.9531 38.25 27.3594
Q41.9375 25.7812 44.0312 22.75
Q46.1406 19.7344 46.1406 15.2344
Q46.1406 10.8438 43.5781 6.95312
Q41.0156 3.07812 36.1719 0.953125
Q31.3438 -1.17188 25.25 -1.17188
Q15.1406 -1.17188 9.84375 3.03125
Q4.54688 7.23438 3.07812 15.4844" id="ArialMT-73"/>
      <path d="
M6.39062 0
L6.39062 71.5781
L15.1875 71.5781
L15.1875 0
z
" id="ArialMT-6c"/>
      <path d="
M3.32812 25.9219
Q3.32812 40.3281 11.3281 47.2656
Q18.0156 53.0312 27.6406 53.0312
Q38.3281 53.0312 45.1094 46.0156
Q51.9062 39.0156 51.9062 26.6562
Q51.9062 16.6562 48.9062 10.9062
Q45.9062 5.17188 40.1562 2
Q34.4219 -1.17188 27.6406 -1.17188
Q16.75 -1.17188 10.0312 5.8125
Q3.32812 12.7969 3.32812 25.9219
M12.3594 25.9219
Q12.3594 15.9688 16.7031 11.0156
Q21.0469 6.0625 27.6406 6.0625
Q34.1875 6.0625 38.5312 11.0312
Q42.875 16.0156 42.875 26.2188
Q42.875 35.8438 38.5 40.7969
Q34.125 45.75 27.6406 45.75
Q21.0469 45.75 16.7031 40.8125
Q12.3594 35.8906 12.3594 25.9219" id="ArialMT-6f"/>
      <path d="
M6.59375 0
L6.59375 51.8594
L14.5 51.8594
L14.5 44.4844
Q20.2188 53.0312 31 53.0312
Q35.6875 53.0312 39.625 51.3438
Q43.5625 49.6562 45.5156 46.9219
Q47.4688 44.1875 48.25 40.4375
Q48.7344 37.9844 48.7344 31.8906
L48.7344 0
L39.9375 0
L39.9375 31.5469
Q39.9375 36.9219 38.9062 39.5781
Q37.8906 42.2344 35.2812 43.8125
Q32.6719 45.4062 29.1562 45.4062
Q23.5312 45.4062 19.4531 41.8438
Q15.375 38.2812 15.375 28.3281
L15.375 0
z
" id="ArialMT-6e"/>
      <path d="
M5.03125 -1.21875
L9.28125 19.5781
L1.03125 19.5781
L1.03125 26.8594
L10.75 26.8594
L14.3594 44.5781
L1.03125 44.5781
L1.03125 51.8594
L15.8281 51.8594
L20.0625 72.7969
L27.3906 72.7969
L23.1406 51.8594
L38.5312 51.8594
L42.7812 72.7969
L50.1406 72.7969
L45.9062 51.8594
L54.3438 51.8594
L54.3438 44.5781
L44.4375 44.5781
L40.7656 26.8594
L54.3438 26.8594
L54.3438 19.5781
L39.3125 19.5781
L35.0625 -1.21875
L27.7344 -1.21875
L31.9375 19.5781
L16.6094 19.5781
L12.3594 -1.21875
z

M18.0625 26.8594
L33.4062 26.8594
L37.0625 44.5781
L21.6875 44.5781
z
" id="ArialMT-23"/>
      <path id="ArialMT-20"/>
     </defs>
     <g style="fill:#262626;" transform="translate(188.2384375 276.35296875)scale(0.11 -0.11)">
      <use xlink:href="#ArialMT-23"/>
      <use x="55.615234375" xlink:href="#ArialMT-20"/>
      <use x="83.3984375" xlink:href="#ArialMT-6f"/>
      <use x="139.013671875" xlink:href="#ArialMT-66"/>
      <use x="166.796875" xlink:href="#ArialMT-20"/>
      <use x="194.580078125" xlink:href="#ArialMT-73"/>
      <use x="244.580078125" xlink:href="#ArialMT-69"/>
      <use x="266.796875" xlink:href="#ArialMT-62"/>
      <use x="322.412109375" xlink:href="#ArialMT-6c"/>
      <use x="344.62890625" xlink:href="#ArialMT-69"/>
      <use x="366.845703125" xlink:href="#ArialMT-6e"/>
      <use x="422.4609375" xlink:href="#ArialMT-67"/>
      <use x="478.076171875" xlink:href="#ArialMT-73"/>
     </g>
    </g>
   </g>
   <g id="matplotlib.axis_2"/>
   <g id="PolyCollection_1">
    <defs>
     <path d="
M53.4119 -175.18
L53.4119 -148.82
L57.0578 -144.823
L60.7036 -140.05
L64.3495 -134.495
L67.9954 -128.204
L71.6413 -121.279
L75.2871 -113.883
L78.933 -106.24
L82.5789 -98.6202
L86.2248 -91.3295
L89.8707 -84.6845
L93.5165 -78.9875
L97.1624 -74.5003
L100.808 -71.4197
L104.454 -69.8594
L108.1 -69.84
L111.746 -71.2888
L115.392 -74.0492
L119.038 -77.8993
L122.684 -82.575
L126.329 -87.7972
L129.975 -93.2959
L133.621 -98.8315
L137.267 -104.209
L140.913 -109.284
L144.559 -113.962
L148.205 -118.195
L151.851 -121.964
L155.496 -125.276
L159.142 -128.145
L162.788 -130.585
L166.434 -132.604
L170.08 -134.199
L173.726 -135.356
L177.372 -136.047
L181.018 -136.24
L184.663 -135.897
L188.309 -134.98
L191.955 -133.46
L195.601 -131.321
L199.247 -128.568
L202.893 -125.239
L206.539 -121.403
L210.185 -117.176
L213.83 -112.712
L217.476 -108.209
L221.122 -103.892
L224.768 -100.004
L228.414 -96.79
L232.06 -94.4692
L235.706 -93.2203
L239.352 -93.1614
L242.998 -94.3377
L246.643 -96.716
L250.289 -100.187
L253.935 -104.575
L257.581 -109.654
L261.227 -115.171
L264.873 -120.862
L268.519 -126.478
L272.165 -131.797
L275.81 -136.642
L279.456 -140.883
L283.102 -144.442
L286.748 -147.287
L290.394 -149.43
L294.04 -150.916
L297.686 -151.817
L301.332 -152.218
L304.977 -152.218
L308.623 -151.915
L312.269 -151.403
L315.915 -150.769
L319.561 -150.085
L323.207 -149.413
L326.853 -148.794
L330.499 -148.258
L334.144 -147.819
L337.79 -147.479
L341.436 -147.232
L345.082 -147.07
L348.728 -146.984
L352.374 -146.968
L356.02 -147.02
L359.666 -147.146
L363.311 -147.356
L366.957 -147.664
L370.603 -148.082
L374.249 -148.621
L377.895 -149.284
L381.541 -150.069
L385.187 -150.963
L388.833 -151.945
L392.478 -152.987
L396.124 -154.058
L399.77 -155.125
L403.416 -156.157
L407.062 -157.126
L410.708 -158.012
L414.354 -158.8
L414.354 -165.2
L414.354 -165.2
L410.708 -165.988
L407.062 -166.874
L403.416 -167.843
L399.77 -168.875
L396.124 -169.942
L392.478 -171.013
L388.833 -172.055
L385.187 -173.037
L381.541 -173.931
L377.895 -174.716
L374.249 -175.379
L370.603 -175.918
L366.957 -176.336
L363.311 -176.644
L359.666 -176.854
L356.02 -176.98
L352.374 -177.032
L348.728 -177.016
L345.082 -176.93
L341.436 -176.768
L337.79 -176.521
L334.144 -176.181
L330.499 -175.742
L326.853 -175.206
L323.207 -174.587
L319.561 -173.915
L315.915 -173.231
L312.269 -172.597
L308.623 -172.085
L304.977 -171.782
L301.332 -171.782
L297.686 -172.183
L294.04 -173.084
L290.394 -174.57
L286.748 -176.713
L283.102 -179.558
L279.456 -183.117
L275.81 -187.358
L272.165 -192.203
L268.519 -197.522
L264.873 -203.138
L261.227 -208.829
L257.581 -214.346
L253.935 -219.425
L250.289 -223.813
L246.643 -227.284
L242.998 -229.662
L239.352 -230.839
L235.706 -230.78
L232.06 -229.531
L228.414 -227.21
L224.768 -223.996
L221.122 -220.108
L217.476 -215.791
L213.83 -211.288
L210.185 -206.824
L206.539 -202.597
L202.893 -198.761
L199.247 -195.432
L195.601 -192.679
L191.955 -190.54
L188.309 -189.02
L184.663 -188.103
L181.018 -187.76
L177.372 -187.953
L173.726 -188.644
L170.08 -189.801
L166.434 -191.396
L162.788 -193.415
L159.142 -195.855
L155.496 -198.724
L151.851 -202.036
L148.205 -205.805
L144.559 -210.038
L140.913 -214.716
L137.267 -219.791
L133.621 -225.169
L129.975 -230.704
L126.329 -236.203
L122.684 -241.425
L119.038 -246.101
L115.392 -249.951
L111.746 -252.711
L108.1 -254.16
L104.454 -254.141
L100.808 -252.58
L97.1624 -249.5
L93.5165 -245.013
L89.8707 -239.316
L86.2248 -232.67
L82.5789 -225.38
L78.933 -217.76
L75.2871 -210.117
L71.6413 -202.721
L67.9954 -195.796
L64.3495 -189.505
L60.7036 -183.95
L57.0578 -179.177
L53.4119 -175.18
z
" id="m43228c65ca" style="stroke:#dcdddd;stroke-width:0.3;"/>
    </defs>
    <g clip-path="url(#pe855a72dec)">
     <use style="fill:#dcdddd;stroke:#dcdddd;stroke-width:0.3;" x="0.0" xlink:href="#m43228c65ca" y="288.0"/>
    </g>
   </g>
   <g id="line2d_11">
    <path clip-path="url(#pe855a72dec)" d="
M374 139.42
L374 112.58" style="fill:none;stroke:#848484;stroke-linecap:round;stroke-width:0.8;"/>
   </g>
   <g id="line2d_12">
    <path clip-path="url(#pe855a72dec)" d="
M104.975 218.237
L104.975 33.763" style="fill:none;stroke:#848484;stroke-linecap:round;stroke-width:0.8;"/>
   </g>
   <g id="line2d_13">
    <path clip-path="url(#pe855a72dec)" d="
M239.488 194.817
L239.488 57.183" style="fill:none;stroke:#848484;stroke-linecap:round;stroke-width:0.8;"/>
   </g>
   <g id="line2d_14">
    <path clip-path="url(#pe855a72dec)" d="
M194.65 156.062
L194.65 95.9384" style="fill:none;stroke:#848484;stroke-linecap:round;stroke-width:0.8;"/>
   </g>
   <g id="line2d_15">
    <path clip-path="url(#pe855a72dec)" d="
M149.813 168.086
L149.813 83.914" style="fill:none;stroke:#848484;stroke-linecap:round;stroke-width:0.8;"/>
   </g>
   <g id="line2d_16">
    <path clip-path="url(#pe855a72dec)" d="
M239.488 194.817
L239.488 57.183" style="fill:none;stroke:#848484;stroke-linecap:round;stroke-width:0.8;"/>
   </g>
   <g id="line2d_17">
    <path clip-path="url(#pe855a72dec)" d="
M104.975 218.237
L104.975 33.763" style="fill:none;stroke:#848484;stroke-linecap:round;stroke-width:0.8;"/>
   </g>
   <g id="line2d_18">
    <path clip-path="url(#pe855a72dec)" d="
M93.7656 209.36
L93.7656 42.6398" style="fill:none;stroke:#848484;stroke-linecap:round;stroke-width:0.8;"/>
   </g>
   <g id="line2d_19">
    <path clip-path="url(#pe855a72dec)" d="
M239.488 194.817
L239.488 57.183" style="fill:none;stroke:#848484;stroke-linecap:round;stroke-width:0.8;"/>
   </g>
   <g id="line2d_20">
    <path clip-path="url(#pe855a72dec)" d="
M239.488 194.817
L239.488 57.183" style="fill:none;stroke:#848484;stroke-linecap:round;stroke-width:0.8;"/>
   </g>
   <g id="line2d_21">
    <path clip-path="url(#pe855a72dec)" d="
M149.813 168.086
L149.813 83.914" style="fill:none;stroke:#848484;stroke-linecap:round;stroke-width:0.8;"/>
   </g>
   <g id="line2d_22">
    <path clip-path="url(#pe855a72dec)" d="
M239.488 194.817
L239.488 57.183" style="fill:none;stroke:#848484;stroke-linecap:round;stroke-width:0.8;"/>
   </g>
   <g id="line2d_23">
    <path clip-path="url(#pe855a72dec)" d="
M104.975 218.237
L104.975 33.763" style="fill:none;stroke:#848484;stroke-linecap:round;stroke-width:0.8;"/>
   </g>
   <g id="line2d_24">
    <path clip-path="url(#pe855a72dec)" d="
M104.975 218.237
L104.975 33.763" style="fill:none;stroke:#848484;stroke-linecap:round;stroke-width:0.8;"/>
   </g>
   <g id="line2d_25">
    <path clip-path="url(#pe855a72dec)" d="
M104.975 218.237
L104.975 33.763" style="fill:none;stroke:#848484;stroke-linecap:round;stroke-width:0.8;"/>
   </g>
   <g id="line2d_26">
    <path clip-path="url(#pe855a72dec)" d="
M104.975 218.237
L104.975 33.763" style="fill:none;stroke:#848484;stroke-linecap:round;stroke-width:0.8;"/>
   </g>
   <g id="line2d_27">
    <path clip-path="url(#pe855a72dec)" d="
M239.488 194.817
L239.488 57.183" style="fill:none;stroke:#848484;stroke-linecap:round;stroke-width:0.8;"/>
   </g>
   <g id="line2d_28">
    <path clip-path="url(#pe855a72dec)" d="
M104.975 218.237
L104.975 33.763" style="fill:none;stroke:#848484;stroke-linecap:round;stroke-width:0.8;"/>
   </g>
   <g id="line2d_29">
    <path clip-path="url(#pe855a72dec)" d="
M329.163 139.556
L329.163 112.444" style="fill:none;stroke:#848484;stroke-linecap:round;stroke-width:0.8;"/>
   </g>
   <g id="line2d_30">
    <path clip-path="url(#pe855a72dec)" d="
M53.4119 139.18
L57.0578 143.177
L60.7036 147.95
L64.3495 153.505
L67.9954 159.796
L71.6413 166.721
L75.2871 174.117
L78.933 181.76
L82.5789 189.38
L86.2248 196.67
L89.8707 203.316
L93.5165 209.013
L97.1624 213.5
L100.808 216.58
L104.454 218.141
L108.1 218.16
L111.746 216.711
L115.392 213.951
L119.038 210.101
L122.684 205.425
L126.329 200.203
L129.975 194.704
L133.621 189.169
L137.267 183.791
L140.913 178.716
L144.559 174.038
L148.205 169.805
L151.851 166.036
L155.496 162.724
L159.142 159.855
L162.788 157.415
L166.434 155.396
L170.08 153.801
L173.726 152.644
L177.372 151.953
L181.018 151.76
L184.663 152.103
L188.309 153.02
L191.955 154.54
L195.601 156.679
L199.247 159.432
L202.893 162.761
L206.539 166.597
L210.185 170.824
L213.83 175.288
L217.476 179.791
L221.122 184.108
L224.768 187.996
L228.414 191.21
L232.06 193.531
L235.706 194.78
L239.352 194.839
L242.998 193.662
L246.643 191.284
L250.289 187.813
L253.935 183.425
L257.581 178.346
L261.227 172.829
L264.873 167.138
L268.519 161.522
L272.165 156.203
L275.81 151.358
L279.456 147.117
L283.102 143.558
L286.748 140.713
L290.394 138.57
L294.04 137.084
L297.686 136.183
L301.332 135.782
L304.977 135.782
L308.623 136.085
L312.269 136.597
L315.915 137.231
L319.561 137.915
L323.207 138.587
L326.853 139.206
L330.499 139.742
L334.144 140.181
L337.79 140.521
L341.436 140.768
L345.082 140.93
L348.728 141.016
L352.374 141.032
L356.02 140.98
L359.666 140.854
L363.311 140.644
L366.957 140.336
L370.603 139.918
L374.249 139.379
L377.895 138.716
L381.541 137.931
L385.187 137.037
L388.833 136.055
L392.478 135.013
L396.124 133.942
L399.77 132.875
L403.416 131.843
L407.062 130.874
L410.708 129.988
L414.354 129.2" style="fill:none;stroke:#848484;stroke-linecap:round;stroke-width:2;"/>
   </g>
   <g id="line2d_31">
    <path clip-path="url(#pe855a72dec)" d="
M53.4119 112.82
L57.0578 108.823
L60.7036 104.05
L64.3495 98.495
L67.9954 92.2038
L71.6413 85.2787
L75.2871 77.8833
L78.933 70.2399
L82.5789 62.6202
L86.2248 55.3295
L89.8707 48.6845
L93.5165 42.9875
L97.1624 38.5003
L100.808 35.4197
L104.454 33.8594
L108.1 33.84
L111.746 35.2888
L115.392 38.0492
L119.038 41.8993
L122.684 46.575
L126.329 51.7972
L129.975 57.2959
L133.621 62.8315
L137.267 68.2088
L140.913 73.2836
L144.559 77.9621
L148.205 82.1945
L151.851 85.9642
L155.496 89.2761
L159.142 92.1447
L162.788 94.5848
L166.434 96.604
L170.08 98.1993
L173.726 99.3556
L177.372 100.047
L181.018 100.24
L184.663 99.8967
L188.309 98.9798
L191.955 97.4597
L195.601 95.3206
L199.247 92.5684
L202.893 89.2386
L206.539 85.4034
L210.185 81.1759
L213.83 76.7125
L217.476 72.2088
L221.122 67.8915
L224.768 64.0044
L228.414 60.79
L232.06 58.4692
L235.706 57.2203
L239.352 57.1614
L242.998 58.3377
L246.643 60.716
L250.289 64.1868
L253.935 68.5747
L257.581 73.6544
L261.227 79.1712
L264.873 84.8624
L268.519 90.4779
L272.165 95.7973
L275.81 100.642
L279.456 104.883
L283.102 108.442
L286.748 111.287
L290.394 113.43
L294.04 114.916
L297.686 115.817
L301.332 116.218
L304.977 116.218
L308.623 115.915
L312.269 115.403
L315.915 114.769
L319.561 114.085
L323.207 113.413
L326.853 112.794
L330.499 112.258
L334.144 111.819
L337.79 111.479
L341.436 111.232
L345.082 111.07
L348.728 110.984
L352.374 110.968
L356.02 111.02
L359.666 111.146
L363.311 111.356
L366.957 111.664
L370.603 112.082
L374.249 112.621
L377.895 113.284
L381.541 114.069
L385.187 114.963
L388.833 115.945
L392.478 116.987
L396.124 118.058
L399.77 119.125
L403.416 120.157
L407.062 121.126
L410.708 122.012
L414.354 122.8" style="fill:none;stroke:#848484;stroke-linecap:round;stroke-width:2;"/>
   </g>
   <g id="line2d_32">
    <path clip-path="url(#pe855a72dec)" d="
M182.261 241.2
L182.261 10.8" style="fill:none;stroke:#ac1735;stroke-linecap:round;stroke-width:2;"/>
   </g>
   <g id="patch_3">
    <path d="
M15.3 241.2
L418.838 241.2" style="fill:none;stroke:#262626;stroke-linecap:square;stroke-linejoin:miter;stroke-width:1.25;"/>
   </g>
   <g id="text_12">
    <!-- Mean: 2.72 -->
    <defs>
     <path d="
M9.07812 0
L9.07812 10.0156
L19.0938 10.0156
L19.0938 0
z
" id="ArialMT-2e"/>
     <path d="
M9.03125 41.8438
L9.03125 51.8594
L19.0469 51.8594
L19.0469 41.8438
z

M9.03125 0
L9.03125 10.0156
L19.0469 10.0156
L19.0469 0
z
" id="ArialMT-3a"/>
     <path d="
M40.4375 6.39062
Q35.5469 2.25 31.0312 0.53125
Q26.5156 -1.17188 21.3438 -1.17188
Q12.7969 -1.17188 8.20312 3
Q3.60938 7.17188 3.60938 13.6719
Q3.60938 17.4844 5.34375 20.625
Q7.07812 23.7812 9.89062 25.6875
Q12.7031 27.5938 16.2188 28.5625
Q18.7969 29.25 24.0312 29.8906
Q34.6719 31.1562 39.7031 32.9062
Q39.75 34.7188 39.75 35.2031
Q39.75 40.5781 37.25 42.7812
Q33.8906 45.75 27.25 45.75
Q21.0469 45.75 18.0938 43.5781
Q15.1406 41.4062 13.7188 35.8906
L5.125 37.0625
Q6.29688 42.5781 8.98438 45.9688
Q11.6719 49.3594 16.75 51.1875
Q21.8281 53.0312 28.5156 53.0312
Q35.1562 53.0312 39.2969 51.4688
Q43.4531 49.9062 45.4062 47.5312
Q47.3594 45.1719 48.1406 41.5469
Q48.5781 39.3125 48.5781 33.4531
L48.5781 21.7344
Q48.5781 9.46875 49.1406 6.21875
Q49.7031 2.98438 51.375 0
L42.1875 0
Q40.8281 2.73438 40.4375 6.39062
M39.7031 26.0312
Q34.9062 24.0781 25.3438 22.7031
Q19.9219 21.9219 17.6719 20.9375
Q15.4375 19.9688 14.2031 18.0938
Q12.9844 16.2188 12.9844 13.9219
Q12.9844 10.4062 15.6406 8.0625
Q18.3125 5.71875 23.4375 5.71875
Q28.5156 5.71875 32.4688 7.9375
Q36.4219 10.1562 38.2812 14.0156
Q39.7031 17 39.7031 22.7969
z
" id="ArialMT-61"/>
     <path d="
M7.42188 0
L7.42188 71.5781
L21.6875 71.5781
L38.625 20.9062
Q40.9688 13.8125 42.0469 10.2969
Q43.2656 14.2031 45.8438 21.7812
L62.9844 71.5781
L75.7344 71.5781
L75.7344 0
L66.6094 0
L66.6094 59.9062
L45.7969 0
L37.25 0
L16.5469 60.9375
L16.5469 0
z
" id="ArialMT-4d"/>
     <path d="
M42.0938 16.7031
L51.1719 15.5781
Q49.0312 7.625 43.2188 3.21875
Q37.4062 -1.17188 28.375 -1.17188
Q17 -1.17188 10.3281 5.82812
Q3.65625 12.8438 3.65625 25.4844
Q3.65625 38.5781 10.3906 45.7969
Q17.1406 53.0312 27.875 53.0312
Q38.2812 53.0312 44.875 45.9531
Q51.4688 38.875 51.4688 26.0312
Q51.4688 25.25 51.4219 23.6875
L12.75 23.6875
Q13.2344 15.1406 17.5781 10.5938
Q21.9219 6.0625 28.4219 6.0625
Q33.25 6.0625 36.6719 8.59375
Q40.0938 11.1406 42.0938 16.7031
M13.2344 30.9062
L42.1875 30.9062
Q41.6094 37.4531 38.875 40.7188
Q34.6719 45.7969 27.9844 45.7969
Q21.9219 45.7969 17.7969 41.75
Q13.6719 37.7031 13.2344 30.9062" id="ArialMT-65"/>
    </defs>
    <g style="fill:#ac1735;" transform="translate(185.924386513 29.232)scale(0.144 -0.144)">
     <use xlink:href="#ArialMT-4d"/>
     <use x="83.30078125" xlink:href="#ArialMT-65"/>
     <use x="138.916015625" xlink:href="#ArialMT-61"/>
     <use x="194.53125" xlink:href="#ArialMT-6e"/>
     <use x="250.146484375" xlink:href="#ArialMT-3a"/>
     <use x="277.9296875" xlink:href="#ArialMT-20"/>
     <use x="305.712890625" xlink:href="#ArialMT-32"/>
     <use x="361.328125" xlink:href="#ArialMT-2e"/>
     <use x="389.111328125" xlink:href="#ArialMT-37"/>
     <use x="444.7265625" xlink:href="#ArialMT-32"/>
    </g>
   </g>
  </g>
 </g>
 <defs>
  <clipPath id="pe855a72dec">
   <rect height="230.4" width="403.5375" x="15.3" y="10.8"/>
  </clipPath>
 </defs>
</svg>
