<?xml version="1.0" encoding="utf-8" standalone="no"?>
<!DOCTYPE svg PUBLIC "-//W3C//DTD SVG 1.1//EN"
  "http://www.w3.org/Graphics/SVG/1.1/DTD/svg11.dtd">
<!-- Created with matplotlib (http://matplotlib.org/) -->
<svg height="288pt" version="1.1" viewBox="0 0 432 288" width="432pt" xmlns="http://www.w3.org/2000/svg" xmlns:xlink="http://www.w3.org/1999/xlink">
 <defs>
  <style type="text/css">
*{stroke-linecap:butt;stroke-linejoin:round;}
  </style>
 </defs>
 <g id="figure_1">
  <g id="patch_1">
   <path d="
M0 288
L432 288
L432 0
L0 0
z
" style="fill:#ffffff;"/>
  </g>
  <g id="axes_1">
   <g id="patch_2">
    <path d="
M15.6727 241.158
L415.884 241.158
L415.884 10.8
L15.6727 10.8
z
" style="fill:#ffffff;"/>
   </g>
   <g id="matplotlib.axis_1">
    <g id="xtick_1">
     <g id="line2d_1">
      <defs>
       <path d="
M0 0
L0 6" id="m44d4eda7dc" style="stroke:#262626;"/>
      </defs>
      <g>
       <use style="fill:#262626;stroke:#262626;" x="15.67265625" xlink:href="#m44d4eda7dc" y="241.1578125"/>
      </g>
     </g>
     <g id="text_1">
      <!-- 10 -->
      <defs>
       <path d="
M4.15625 35.2969
Q4.15625 48 6.76562 55.7344
Q9.375 63.4844 14.5156 67.6719
Q19.6719 71.875 27.4844 71.875
Q33.25 71.875 37.5938 69.5469
Q41.9375 67.2344 44.7656 62.8594
Q47.6094 58.5 49.2188 52.2188
Q50.8281 45.9531 50.8281 35.2969
Q50.8281 22.7031 48.2344 14.9688
Q45.6562 7.23438 40.5 3
Q35.3594 -1.21875 27.4844 -1.21875
Q17.1406 -1.21875 11.2344 6.20312
Q4.15625 15.1406 4.15625 35.2969
M13.1875 35.2969
Q13.1875 17.6719 17.3125 11.8281
Q21.4375 6 27.4844 6
Q33.5469 6 37.6719 11.8594
Q41.7969 17.7188 41.7969 35.2969
Q41.7969 52.9844 37.6719 58.7812
Q33.5469 64.5938 27.3906 64.5938
Q21.3438 64.5938 17.7188 59.4688
Q13.1875 52.9375 13.1875 35.2969" id="ArialMT-30"/>
       <path d="
M37.25 0
L28.4688 0
L28.4688 56
Q25.2969 52.9844 20.1406 49.9531
Q14.9844 46.9219 10.8906 45.4062
L10.8906 53.9062
Q18.2656 57.375 23.7812 62.2969
Q29.2969 67.2344 31.5938 71.875
L37.25 71.875
z
" id="ArialMT-31"/>
      </defs>
      <g style="fill:#262626;" transform="translate(10.8953125 261.315625)scale(0.1 -0.1)">
       <use xlink:href="#ArialMT-31"/>
       <use x="55.615234375" xlink:href="#ArialMT-30"/>
      </g>
     </g>
    </g>
    <g id="xtick_2">
     <g id="line2d_2">
      <g>
       <use style="fill:#262626;stroke:#262626;" x="72.8457589286" xlink:href="#m44d4eda7dc" y="241.1578125"/>
      </g>
     </g>
     <g id="text_2">
      <!-- 15 -->
      <defs>
       <path d="
M4.15625 18.75
L13.375 19.5312
Q14.4062 12.7969 18.1406 9.39062
Q21.875 6 27.1562 6
Q33.5 6 37.8906 10.7812
Q42.2812 15.5781 42.2812 23.4844
Q42.2812 31 38.0625 35.3438
Q33.8438 39.7031 27 39.7031
Q22.75 39.7031 19.3281 37.7656
Q15.9219 35.8438 13.9688 32.7656
L5.71875 33.8438
L12.6406 70.6094
L48.25 70.6094
L48.25 62.2031
L19.6719 62.2031
L15.8281 42.9688
Q22.2656 47.4688 29.3438 47.4688
Q38.7188 47.4688 45.1562 40.9688
Q51.6094 34.4688 51.6094 24.2656
Q51.6094 14.5469 45.9531 7.46875
Q39.0625 -1.21875 27.1562 -1.21875
Q17.3906 -1.21875 11.2031 4.25
Q5.03125 9.71875 4.15625 18.75" id="ArialMT-35"/>
      </defs>
      <g style="fill:#262626;" transform="translate(68.0293526786 261.315625)scale(0.1 -0.1)">
       <use xlink:href="#ArialMT-31"/>
       <use x="55.615234375" xlink:href="#ArialMT-35"/>
      </g>
     </g>
    </g>
    <g id="xtick_3">
     <g id="line2d_3">
      <g>
       <use style="fill:#262626;stroke:#262626;" x="130.018861607" xlink:href="#m44d4eda7dc" y="241.1578125"/>
      </g>
     </g>
     <g id="text_3">
      <!-- 20 -->
      <defs>
       <path d="
M50.3438 8.45312
L50.3438 0
L3.03125 0
Q2.9375 3.17188 4.04688 6.10938
Q5.85938 10.9375 9.82812 15.625
Q13.8125 20.3125 21.3438 26.4688
Q33.0156 36.0312 37.1094 41.625
Q41.2188 47.2188 41.2188 52.2031
Q41.2188 57.4219 37.4688 61
Q33.7344 64.5938 27.7344 64.5938
Q21.3906 64.5938 17.5781 60.7812
Q13.7656 56.9844 13.7188 50.25
L4.6875 51.1719
Q5.60938 61.2812 11.6562 66.5781
Q17.7188 71.875 27.9375 71.875
Q38.2344 71.875 44.2344 66.1562
Q50.25 60.4531 50.25 52
Q50.25 47.7031 48.4844 43.5469
Q46.7344 39.4062 42.6562 34.8125
Q38.5781 30.2188 29.1094 22.2188
Q21.1875 15.5781 18.9375 13.2031
Q16.7031 10.8438 15.2344 8.45312
z
" id="ArialMT-32"/>
      </defs>
      <g style="fill:#262626;" transform="translate(124.843861607 261.315625)scale(0.1 -0.1)">
       <use xlink:href="#ArialMT-32"/>
       <use x="55.615234375" xlink:href="#ArialMT-30"/>
      </g>
     </g>
    </g>
    <g id="xtick_4">
     <g id="line2d_4">
      <g>
       <use style="fill:#262626;stroke:#262626;" x="187.191964286" xlink:href="#m44d4eda7dc" y="241.1578125"/>
      </g>
     </g>
     <g id="text_4">
      <!-- 25 -->
      <g style="fill:#262626;" transform="translate(181.977901786 261.315625)scale(0.1 -0.1)">
       <use xlink:href="#ArialMT-32"/>
       <use x="55.615234375" xlink:href="#ArialMT-35"/>
      </g>
     </g>
    </g>
    <g id="xtick_5">
     <g id="line2d_5">
      <g>
       <use style="fill:#262626;stroke:#262626;" x="244.365066964" xlink:href="#m44d4eda7dc" y="241.1578125"/>
      </g>
     </g>
     <g id="text_5">
      <!-- 30 -->
      <defs>
       <path d="
M4.20312 18.8906
L12.9844 20.0625
Q14.5 12.5938 18.1406 9.29688
Q21.7812 6 27 6
Q33.2031 6 37.4688 10.2969
Q41.75 14.5938 41.75 20.9531
Q41.75 27 37.7969 30.9219
Q33.8438 34.8594 27.7344 34.8594
Q25.25 34.8594 21.5312 33.8906
L22.5156 41.6094
Q23.3906 41.5 23.9219 41.5
Q29.5469 41.5 34.0312 44.4219
Q38.5312 47.3594 38.5312 53.4688
Q38.5312 58.2969 35.25 61.4688
Q31.9844 64.6562 26.8125 64.6562
Q21.6875 64.6562 18.2656 61.4219
Q14.8438 58.2031 13.875 51.7656
L5.07812 53.3281
Q6.6875 62.1562 12.3906 67.0156
Q18.1094 71.875 26.6094 71.875
Q32.4688 71.875 37.3906 69.3594
Q42.3281 66.8438 44.9375 62.5
Q47.5625 58.1562 47.5625 53.2656
Q47.5625 48.6406 45.0625 44.8281
Q42.5781 41.0156 37.7031 38.7656
Q44.0469 37.3125 47.5625 32.6875
Q51.0781 28.0781 51.0781 21.1406
Q51.0781 11.7656 44.2344 5.25
Q37.4062 -1.26562 26.9531 -1.26562
Q17.5312 -1.26562 11.2969 4.34375
Q5.07812 9.96875 4.20312 18.8906" id="ArialMT-33"/>
      </defs>
      <g style="fill:#262626;" transform="translate(239.253348214 261.315625)scale(0.1 -0.1)">
       <use xlink:href="#ArialMT-33"/>
       <use x="55.615234375" xlink:href="#ArialMT-30"/>
      </g>
     </g>
    </g>
    <g id="xtick_6">
     <g id="line2d_6">
      <g>
       <use style="fill:#262626;stroke:#262626;" x="301.538169643" xlink:href="#m44d4eda7dc" y="241.1578125"/>
      </g>
     </g>
     <g id="text_6">
      <!-- 35 -->
      <g style="fill:#262626;" transform="translate(296.387388393 261.315625)scale(0.1 -0.1)">
       <use xlink:href="#ArialMT-33"/>
       <use x="55.615234375" xlink:href="#ArialMT-35"/>
      </g>
     </g>
    </g>
    <g id="xtick_7">
     <g id="line2d_7">
      <g>
       <use style="fill:#262626;stroke:#262626;" x="358.711272321" xlink:href="#m44d4eda7dc" y="241.1578125"/>
      </g>
     </g>
     <g id="text_7">
      <!-- 40 -->
      <defs>
       <path d="
M32.3281 0
L32.3281 17.1406
L1.26562 17.1406
L1.26562 25.2031
L33.9375 71.5781
L41.1094 71.5781
L41.1094 25.2031
L50.7812 25.2031
L50.7812 17.1406
L41.1094 17.1406
L41.1094 0
z

M32.3281 25.2031
L32.3281 57.4688
L9.90625 25.2031
z
" id="ArialMT-34"/>
      </defs>
      <g style="fill:#262626;" transform="translate(353.452678571 261.315625)scale(0.1 -0.1)">
       <use xlink:href="#ArialMT-34"/>
       <use x="55.615234375" xlink:href="#ArialMT-30"/>
      </g>
     </g>
    </g>
    <g id="xtick_8">
     <g id="line2d_8">
      <g>
       <use style="fill:#262626;stroke:#262626;" x="415.884375" xlink:href="#m44d4eda7dc" y="241.1578125"/>
      </g>
     </g>
     <g id="text_8">
      <!-- 45 -->
      <g style="fill:#262626;" transform="translate(410.58671875 261.315625)scale(0.1 -0.1)">
       <use xlink:href="#ArialMT-34"/>
       <use x="55.615234375" xlink:href="#ArialMT-35"/>
      </g>
     </g>
    </g>
    <g id="text_9">
     <!-- Ideal temperature -->
     <defs>
      <path d="
M9.32812 0
L9.32812 71.5781
L18.7969 71.5781
L18.7969 0
z
" id="ArialMT-49"/>
      <path d="
M40.4375 6.39062
Q35.5469 2.25 31.0312 0.53125
Q26.5156 -1.17188 21.3438 -1.17188
Q12.7969 -1.17188 8.20312 3
Q3.60938 7.17188 3.60938 13.6719
Q3.60938 17.4844 5.34375 20.625
Q7.07812 23.7812 9.89062 25.6875
Q12.7031 27.5938 16.2188 28.5625
Q18.7969 29.25 24.0312 29.8906
Q34.6719 31.1562 39.7031 32.9062
Q39.75 34.7188 39.75 35.2031
Q39.75 40.5781 37.25 42.7812
Q33.8906 45.75 27.25 45.75
Q21.0469 45.75 18.0938 43.5781
Q15.1406 41.4062 13.7188 35.8906
L5.125 37.0625
Q6.29688 42.5781 8.98438 45.9688
Q11.6719 49.3594 16.75 51.1875
Q21.8281 53.0312 28.5156 53.0312
Q35.1562 53.0312 39.2969 51.4688
Q43.4531 49.9062 45.4062 47.5312
Q47.3594 45.1719 48.1406 41.5469
Q48.5781 39.3125 48.5781 33.4531
L48.5781 21.7344
Q48.5781 9.46875 49.1406 6.21875
Q49.7031 2.98438 51.375 0
L42.1875 0
Q40.8281 2.73438 40.4375 6.39062
M39.7031 26.0312
Q34.9062 24.0781 25.3438 22.7031
Q19.9219 21.9219 17.6719 20.9375
Q15.4375 19.9688 14.2031 18.0938
Q12.9844 16.2188 12.9844 13.9219
Q12.9844 10.4062 15.6406 8.0625
Q18.3125 5.71875 23.4375 5.71875
Q28.5156 5.71875 32.4688 7.9375
Q36.4219 10.1562 38.2812 14.0156
Q39.7031 17 39.7031 22.7969
z
" id="ArialMT-61"/>
      <path d="
M42.0938 16.7031
L51.1719 15.5781
Q49.0312 7.625 43.2188 3.21875
Q37.4062 -1.17188 28.375 -1.17188
Q17 -1.17188 10.3281 5.82812
Q3.65625 12.8438 3.65625 25.4844
Q3.65625 38.5781 10.3906 45.7969
Q17.1406 53.0312 27.875 53.0312
Q38.2812 53.0312 44.875 45.9531
Q51.4688 38.875 51.4688 26.0312
Q51.4688 25.25 51.4219 23.6875
L12.75 23.6875
Q13.2344 15.1406 17.5781 10.5938
Q21.9219 6.0625 28.4219 6.0625
Q33.25 6.0625 36.6719 8.59375
Q40.0938 11.1406 42.0938 16.7031
M13.2344 30.9062
L42.1875 30.9062
Q41.6094 37.4531 38.875 40.7188
Q34.6719 45.7969 27.9844 45.7969
Q21.9219 45.7969 17.7969 41.75
Q13.6719 37.7031 13.2344 30.9062" id="ArialMT-65"/>
      <path d="
M40.2344 0
L40.2344 6.54688
Q35.2969 -1.17188 25.7344 -1.17188
Q19.5312 -1.17188 14.3281 2.25
Q9.125 5.67188 6.26562 11.7969
Q3.42188 17.9219 3.42188 25.875
Q3.42188 33.6406 6 39.9688
Q8.59375 46.2969 13.7656 49.6562
Q18.9531 53.0312 25.3438 53.0312
Q30.0312 53.0312 33.6875 51.0469
Q37.3594 49.0781 39.6562 45.9062
L39.6562 71.5781
L48.3906 71.5781
L48.3906 0
z

M12.4531 25.875
Q12.4531 15.9219 16.6406 10.9844
Q20.8438 6.0625 26.5625 6.0625
Q32.3281 6.0625 36.3438 10.7656
Q40.375 15.4844 40.375 25.1406
Q40.375 35.7969 36.2656 40.7656
Q32.1719 45.75 26.1719 45.75
Q20.3125 45.75 16.375 40.9688
Q12.4531 36.1875 12.4531 25.875" id="ArialMT-64"/>
      <path d="
M25.7812 7.85938
L27.0469 0.09375
Q23.3438 -0.6875 20.4062 -0.6875
Q15.625 -0.6875 12.9844 0.828125
Q10.3594 2.34375 9.28125 4.8125
Q8.20312 7.28125 8.20312 15.1875
L8.20312 45.0156
L1.76562 45.0156
L1.76562 51.8594
L8.20312 51.8594
L8.20312 64.7031
L16.9375 69.9688
L16.9375 51.8594
L25.7812 51.8594
L25.7812 45.0156
L16.9375 45.0156
L16.9375 14.7031
Q16.9375 10.9375 17.4062 9.85938
Q17.875 8.79688 18.9219 8.15625
Q19.9688 7.51562 21.9219 7.51562
Q23.3906 7.51562 25.7812 7.85938" id="ArialMT-74"/>
      <path d="
M40.5781 0
L40.5781 7.625
Q34.5156 -1.17188 24.125 -1.17188
Q19.5312 -1.17188 15.5469 0.578125
Q11.5781 2.34375 9.64062 5
Q7.71875 7.67188 6.9375 11.5312
Q6.39062 14.1094 6.39062 19.7344
L6.39062 51.8594
L15.1875 51.8594
L15.1875 23.0938
Q15.1875 16.2188 15.7188 13.8125
Q16.5469 10.3594 19.2344 8.375
Q21.9219 6.39062 25.875 6.39062
Q29.8281 6.39062 33.2969 8.42188
Q36.7656 10.4531 38.2031 13.9375
Q39.6562 17.4375 39.6562 24.0781
L39.6562 51.8594
L48.4375 51.8594
L48.4375 0
z
" id="ArialMT-75"/>
      <path d="
M6.59375 -19.875
L6.59375 51.8594
L14.5938 51.8594
L14.5938 45.125
Q17.4375 49.0781 21 51.0469
Q24.5625 53.0312 29.6406 53.0312
Q36.2812 53.0312 41.3594 49.6094
Q46.4375 46.1875 49.0156 39.9531
Q51.6094 33.7344 51.6094 26.3125
Q51.6094 18.3594 48.75 11.9844
Q45.9062 5.60938 40.4531 2.21875
Q35.0156 -1.17188 29 -1.17188
Q24.6094 -1.17188 21.1094 0.6875
Q17.625 2.54688 15.375 5.375
L15.375 -19.875
z

M14.5469 25.6406
Q14.5469 15.625 18.5938 10.8438
Q22.6562 6.0625 28.4219 6.0625
Q34.2812 6.0625 38.4531 11.0156
Q42.625 15.9688 42.625 26.375
Q42.625 36.2812 38.5469 41.2031
Q34.4688 46.1406 28.8125 46.1406
Q23.1875 46.1406 18.8594 40.8906
Q14.5469 35.6406 14.5469 25.6406" id="ArialMT-70"/>
      <path d="
M6.5 0
L6.5 51.8594
L14.4062 51.8594
L14.4062 44
Q17.4375 49.5156 20 51.2656
Q22.5625 53.0312 25.6406 53.0312
Q30.0781 53.0312 34.6719 50.2031
L31.6406 42.0469
Q28.4219 43.9531 25.2031 43.9531
Q22.3125 43.9531 20.0156 42.2188
Q17.7188 40.4844 16.75 37.4062
Q15.2812 32.7188 15.2812 27.1562
L15.2812 0
z
" id="ArialMT-72"/>
      <path d="
M6.39062 0
L6.39062 71.5781
L15.1875 71.5781
L15.1875 0
z
" id="ArialMT-6c"/>
      <path d="
M6.59375 0
L6.59375 51.8594
L14.4531 51.8594
L14.4531 44.5781
Q16.8906 48.3906 20.9375 50.7031
Q25 53.0312 30.1719 53.0312
Q35.9375 53.0312 39.625 50.6406
Q43.3125 48.25 44.8281 43.9531
Q50.9844 53.0312 60.8438 53.0312
Q68.5625 53.0312 72.7031 48.75
Q76.8594 44.4844 76.8594 35.5938
L76.8594 0
L68.1094 0
L68.1094 32.6719
Q68.1094 37.9375 67.25 40.25
Q66.4062 42.5781 64.1562 43.9844
Q61.9219 45.4062 58.8906 45.4062
Q53.4219 45.4062 49.7969 41.7656
Q46.1875 38.1406 46.1875 30.125
L46.1875 0
L37.4062 0
L37.4062 33.6875
Q37.4062 39.5469 35.25 42.4688
Q33.1094 45.4062 28.2188 45.4062
Q24.5156 45.4062 21.3594 43.4531
Q18.2188 41.5 16.7969 37.7344
Q15.375 33.9844 15.375 26.9062
L15.375 0
z
" id="ArialMT-6d"/>
      <path id="ArialMT-20"/>
     </defs>
     <g style="fill:#262626;" transform="translate(172.90171875 276.17671875)scale(0.11 -0.11)">
      <use xlink:href="#ArialMT-49"/>
      <use x="27.783203125" xlink:href="#ArialMT-64"/>
      <use x="83.3984375" xlink:href="#ArialMT-65"/>
      <use x="139.013671875" xlink:href="#ArialMT-61"/>
      <use x="194.62890625" xlink:href="#ArialMT-6c"/>
      <use x="216.845703125" xlink:href="#ArialMT-20"/>
      <use x="244.62890625" xlink:href="#ArialMT-74"/>
      <use x="272.412109375" xlink:href="#ArialMT-65"/>
      <use x="328.02734375" xlink:href="#ArialMT-6d"/>
      <use x="411.328125" xlink:href="#ArialMT-70"/>
      <use x="466.943359375" xlink:href="#ArialMT-65"/>
      <use x="522.55859375" xlink:href="#ArialMT-72"/>
      <use x="555.859375" xlink:href="#ArialMT-61"/>
      <use x="611.474609375" xlink:href="#ArialMT-74"/>
      <use x="639.2578125" xlink:href="#ArialMT-75"/>
      <use x="694.873046875" xlink:href="#ArialMT-72"/>
      <use x="728.173828125" xlink:href="#ArialMT-65"/>
     </g>
    </g>
   </g>
   <g id="matplotlib.axis_2"/>
   <g id="PolyCollection_1">
    <defs>
     <path d="
M70.5588 -179.138
L70.5588 -144.904
L73.6081 -142.886
L76.6573 -140.761
L79.7065 -138.529
L82.7558 -136.186
L85.805 -133.727
L88.8542 -131.141
L91.9035 -128.418
L94.9527 -125.545
L98.0019 -122.511
L101.051 -119.309
L104.1 -115.934
L107.15 -112.391
L110.199 -108.693
L113.248 -104.862
L116.297 -100.935
L119.347 -96.9578
L122.396 -92.9895
L125.445 -89.0982
L128.494 -85.3596
L131.543 -81.8541
L134.593 -78.6633
L137.642 -75.8657
L140.691 -73.5334
L143.74 -71.7283
L146.79 -70.499
L149.839 -69.878
L152.888 -69.8809
L155.937 -70.5055
L158.987 -71.7322
L162.036 -73.5258
L165.085 -75.8374
L168.134 -78.6072
L171.183 -81.768
L174.233 -85.2485
L177.282 -88.9762
L180.331 -92.8808
L183.38 -96.8964
L186.43 -100.963
L189.479 -105.03
L192.528 -109.052
L195.577 -112.994
L198.627 -116.828
L201.676 -120.534
L204.725 -124.096
L207.774 -127.503
L210.824 -130.75
L213.873 -133.829
L216.922 -136.739
L219.971 -139.477
L223.02 -142.04
L226.07 -144.428
L229.119 -146.639
L232.168 -148.672
L235.217 -150.528
L238.267 -152.208
L241.316 -153.716
L244.365 -155.056
L247.414 -156.235
L250.464 -157.262
L253.513 -158.145
L256.562 -158.895
L259.611 -159.525
L262.66 -160.045
L265.71 -160.469
L268.759 -160.806
L271.808 -161.069
L274.857 -161.265
L277.907 -161.403
L280.956 -161.488
L284.005 -161.525
L287.054 -161.516
L290.104 -161.461
L293.153 -161.36
L296.202 -161.209
L299.251 -161.006
L302.3 -160.746
L305.35 -160.424
L308.399 -160.036
L311.448 -159.579
L314.497 -159.052
L317.547 -158.456
L320.596 -157.795
L323.645 -157.074
L326.694 -156.306
L329.744 -155.504
L332.793 -154.687
L335.842 -153.875
L338.891 -153.09
L341.94 -152.358
L344.99 -151.702
L348.039 -151.146
L351.088 -150.709
L354.137 -150.407
L357.187 -150.254
L360.236 -150.254
L363.285 -150.407
L366.334 -150.709
L369.384 -151.146
L372.433 -151.702
L372.433 -172.34
L372.433 -172.34
L369.384 -172.897
L366.334 -173.334
L363.285 -173.635
L360.236 -173.788
L357.187 -173.788
L354.137 -173.635
L351.088 -173.334
L348.039 -172.897
L344.99 -172.34
L341.94 -171.684
L338.891 -170.952
L335.842 -170.168
L332.793 -169.355
L329.744 -168.538
L326.694 -167.736
L323.645 -166.968
L320.596 -166.248
L317.547 -165.586
L314.497 -164.99
L311.448 -164.463
L308.399 -164.006
L305.35 -163.619
L302.3 -163.297
L299.251 -163.036
L296.202 -162.833
L293.153 -162.682
L290.104 -162.581
L287.054 -162.526
L284.005 -162.517
L280.956 -162.554
L277.907 -162.639
L274.857 -162.777
L271.808 -162.973
L268.759 -163.236
L265.71 -163.573
L262.66 -163.997
L259.611 -164.518
L256.562 -165.147
L253.513 -165.898
L250.464 -166.781
L247.414 -167.807
L244.365 -168.986
L241.316 -170.326
L238.267 -171.834
L235.217 -173.514
L232.168 -175.37
L229.119 -177.403
L226.07 -179.614
L223.02 -182.002
L219.971 -184.565
L216.922 -187.303
L213.873 -190.213
L210.824 -193.293
L207.774 -196.539
L204.725 -199.946
L201.676 -203.508
L198.627 -207.214
L195.577 -211.048
L192.528 -214.99
L189.479 -219.012
L186.43 -223.079
L183.38 -227.146
L180.331 -231.161
L177.282 -235.066
L174.233 -238.794
L171.183 -242.274
L168.134 -245.435
L165.085 -248.205
L162.036 -250.516
L158.987 -252.31
L155.937 -253.537
L152.888 -254.161
L149.839 -254.164
L146.79 -253.543
L143.74 -252.314
L140.691 -250.509
L137.642 -248.177
L134.593 -245.379
L131.543 -242.188
L128.494 -238.683
L125.445 -234.944
L122.396 -231.053
L119.347 -227.084
L116.297 -223.107
L113.248 -219.18
L110.199 -215.35
L107.15 -211.651
L104.1 -208.108
L101.051 -204.733
L98.0019 -201.531
L94.9527 -198.497
L91.9035 -195.625
L88.8542 -192.901
L85.805 -190.316
L82.7558 -187.856
L79.7065 -185.514
L76.6573 -183.281
L73.6081 -181.156
L70.5588 -179.138
z
" id="m79eddc1ad0" style="stroke:#dcdddd;stroke-width:0.3;"/>
    </defs>
    <g clip-path="url(#pc3f9d1480f)">
     <use style="fill:#dcdddd;stroke:#dcdddd;stroke-width:0.3;" x="0.0" xlink:href="#m79eddc1ad0" y="288.0"/>
    </g>
   </g>
   <g id="line2d_9">
    <path clip-path="url(#pc3f9d1480f)" d="
M164.323 212.786
L164.323 39.1719" style="fill:none;stroke:#848484;stroke-linecap:round;stroke-width:0.8;"/>
   </g>
   <g id="line2d_10">
    <path clip-path="url(#pc3f9d1480f)" d="
M210.061 158.047
L210.061 93.9113" style="fill:none;stroke:#848484;stroke-linecap:round;stroke-width:0.8;"/>
   </g>
   <g id="line2d_11">
    <path clip-path="url(#pc3f9d1480f)" d="
M152.888 218.119
L152.888 33.8387" style="fill:none;stroke:#848484;stroke-linecap:round;stroke-width:0.8;"/>
   </g>
   <g id="line2d_12">
    <path clip-path="url(#pc3f9d1480f)" d="
M152.888 218.119
L152.888 33.8387" style="fill:none;stroke:#848484;stroke-linecap:round;stroke-width:0.8;"/>
   </g>
   <g id="line2d_13">
    <path clip-path="url(#pc3f9d1480f)" d="
M84.2804 153.029
L84.2804 98.9293" style="fill:none;stroke:#848484;stroke-linecap:round;stroke-width:0.8;"/>
   </g>
   <g id="line2d_14">
    <path clip-path="url(#pc3f9d1480f)" d="
M175.757 200.914
L175.757 51.0437" style="fill:none;stroke:#848484;stroke-linecap:round;stroke-width:0.8;"/>
   </g>
   <g id="line2d_15">
    <path clip-path="url(#pc3f9d1480f)" d="
M152.888 218.119
L152.888 33.8387" style="fill:none;stroke:#848484;stroke-linecap:round;stroke-width:0.8;"/>
   </g>
   <g id="line2d_16">
    <path clip-path="url(#pc3f9d1480f)" d="
M130.019 204.427
L130.019 47.5304" style="fill:none;stroke:#848484;stroke-linecap:round;stroke-width:0.8;"/>
   </g>
   <g id="line2d_17">
    <path clip-path="url(#pc3f9d1480f)" d="
M141.453 214.969
L141.453 36.9884" style="fill:none;stroke:#848484;stroke-linecap:round;stroke-width:0.8;"/>
   </g>
   <g id="line2d_18">
    <path clip-path="url(#pc3f9d1480f)" d="
M107.15 175.609
L107.15 76.349" style="fill:none;stroke:#848484;stroke-linecap:round;stroke-width:0.8;"/>
   </g>
   <g id="line2d_19">
    <path clip-path="url(#pc3f9d1480f)" d="
M135.736 210.436
L135.736 41.5218" style="fill:none;stroke:#848484;stroke-linecap:round;stroke-width:0.8;"/>
   </g>
   <g id="line2d_20">
    <path clip-path="url(#pc3f9d1480f)" d="
M187.192 186.018
L187.192 65.9396" style="fill:none;stroke:#848484;stroke-linecap:round;stroke-width:0.8;"/>
   </g>
   <g id="line2d_21">
    <path clip-path="url(#pc3f9d1480f)" d="
M358.711 137.765
L358.711 114.192" style="fill:none;stroke:#848484;stroke-linecap:round;stroke-width:0.8;"/>
   </g>
   <g id="line2d_22">
    <path clip-path="url(#pc3f9d1480f)" d="
M70.5588 143.096
L73.6081 145.114
L76.6573 147.239
L79.7065 149.471
L82.7558 151.814
L85.805 154.273
L88.8542 156.859
L91.9035 159.582
L94.9527 162.455
L98.0019 165.489
L101.051 168.691
L104.1 172.066
L107.15 175.609
L110.199 179.307
L113.248 183.138
L116.297 187.065
L119.347 191.042
L122.396 195.01
L125.445 198.902
L128.494 202.64
L131.543 206.146
L134.593 209.337
L137.642 212.134
L140.691 214.467
L143.74 216.272
L146.79 217.501
L149.839 218.122
L152.888 218.119
L155.937 217.495
L158.987 216.268
L162.036 214.474
L165.085 212.163
L168.134 209.393
L171.183 206.232
L174.233 202.752
L177.282 199.024
L180.331 195.119
L183.38 191.104
L186.43 187.037
L189.479 182.97
L192.528 178.948
L195.577 175.006
L198.627 171.172
L201.676 167.466
L204.725 163.904
L207.774 160.497
L210.824 157.25
L213.873 154.171
L216.922 151.261
L219.971 148.523
L223.02 145.96
L226.07 143.572
L229.119 141.361
L232.168 139.328
L235.217 137.472
L238.267 135.792
L241.316 134.284
L244.365 132.944
L247.414 131.765
L250.464 130.738
L253.513 129.855
L256.562 129.105
L259.611 128.475
L262.66 127.955
L265.71 127.531
L268.759 127.194
L271.808 126.931
L274.857 126.735
L277.907 126.597
L280.956 126.512
L284.005 126.475
L287.054 126.484
L290.104 126.539
L293.153 126.64
L296.202 126.791
L299.251 126.994
L302.3 127.254
L305.35 127.576
L308.399 127.964
L311.448 128.421
L314.497 128.948
L317.547 129.544
L320.596 130.205
L323.645 130.926
L326.694 131.694
L329.744 132.496
L332.793 133.313
L335.842 134.125
L338.891 134.91
L341.94 135.642
L344.99 136.298
L348.039 136.854
L351.088 137.291
L354.137 137.593
L357.187 137.746
L360.236 137.746
L363.285 137.593
L366.334 137.291
L369.384 136.854
L372.433 136.298" style="fill:none;stroke:#848484;stroke-linecap:round;stroke-width:2;"/>
   </g>
   <g id="line2d_23">
    <path clip-path="url(#pc3f9d1480f)" d="
M70.5588 108.862
L73.6081 106.844
L76.6573 104.719
L79.7065 102.486
L82.7558 100.144
L85.805 97.6844
L88.8542 95.0986
L91.9035 92.3754
L94.9527 89.5026
L98.0019 86.4692
L101.051 83.2668
L104.1 79.8921
L107.15 76.349
L110.199 72.6504
L113.248 68.8198
L116.297 64.8925
L119.347 60.9156
L122.396 56.9473
L125.445 53.056
L128.494 49.3174
L131.543 45.812
L134.593 42.6211
L137.642 39.8235
L140.691 37.4912
L143.74 35.6862
L146.79 34.4568
L149.839 33.8358
L152.888 33.8387
L155.937 34.4633
L158.987 35.69
L162.036 37.4836
L165.085 39.7952
L168.134 42.565
L171.183 45.7258
L174.233 49.2063
L177.282 52.934
L180.331 56.8386
L183.38 60.8542
L186.43 64.9211
L189.479 68.9875
L192.528 73.0095
L195.577 76.9516
L198.627 80.786
L201.676 84.4918
L204.725 88.0537
L207.774 91.4613
L210.824 94.7073
L213.873 97.787
L216.922 100.697
L219.971 103.435
L223.02 105.998
L226.07 108.386
L229.119 110.597
L232.168 112.63
L235.217 114.486
L238.267 116.166
L241.316 117.674
L244.365 119.014
L247.414 120.193
L250.464 121.219
L253.513 122.102
L256.562 122.853
L259.611 123.482
L262.66 124.003
L265.71 124.427
L268.759 124.764
L271.808 125.027
L274.857 125.223
L277.907 125.361
L280.956 125.446
L284.005 125.483
L287.054 125.474
L290.104 125.419
L293.153 125.318
L296.202 125.167
L299.251 124.964
L302.3 124.703
L305.35 124.381
L308.399 123.994
L311.448 123.537
L314.497 123.01
L317.547 122.414
L320.596 121.752
L323.645 121.032
L326.694 120.264
L329.744 119.462
L332.793 118.645
L335.842 117.832
L338.891 117.048
L341.94 116.316
L344.99 115.66
L348.039 115.103
L351.088 114.666
L354.137 114.365
L357.187 114.212
L360.236 114.212
L363.285 114.365
L366.334 114.666
L369.384 115.103
L372.433 115.66" style="fill:none;stroke:#848484;stroke-linecap:round;stroke-width:2;"/>
   </g>
   <g id="line2d_24">
    <path clip-path="url(#pc3f9d1480f)" d="
M165.642 241.158
L165.642 10.8" style="fill:none;stroke:#ac1735;stroke-linecap:round;stroke-width:2;"/>
   </g>
   <g id="patch_3">
    <path d="
M15.6727 241.158
L415.884 241.158" style="fill:none;stroke:#262626;stroke-linecap:square;stroke-linejoin:miter;stroke-width:1.25;"/>
   </g>
   <g id="text_10">
    <!-- Mean: 23.12 -->
    <defs>
     <path d="
M9.03125 41.8438
L9.03125 51.8594
L19.0469 51.8594
L19.0469 41.8438
z

M9.03125 0
L9.03125 10.0156
L19.0469 10.0156
L19.0469 0
z
" id="ArialMT-3a"/>
     <path d="
M9.07812 0
L9.07812 10.0156
L19.0938 10.0156
L19.0938 0
z
" id="ArialMT-2e"/>
     <path d="
M7.42188 0
L7.42188 71.5781
L21.6875 71.5781
L38.625 20.9062
Q40.9688 13.8125 42.0469 10.2969
Q43.2656 14.2031 45.8438 21.7812
L62.9844 71.5781
L75.7344 71.5781
L75.7344 0
L66.6094 0
L66.6094 59.9062
L45.7969 0
L37.25 0
L16.5469 60.9375
L16.5469 0
z
" id="ArialMT-4d"/>
     <path d="
M6.59375 0
L6.59375 51.8594
L14.5 51.8594
L14.5 44.4844
Q20.2188 53.0312 31 53.0312
Q35.6875 53.0312 39.625 51.3438
Q43.5625 49.6562 45.5156 46.9219
Q47.4688 44.1875 48.25 40.4375
Q48.7344 37.9844 48.7344 31.8906
L48.7344 0
L39.9375 0
L39.9375 31.5469
Q39.9375 36.9219 38.9062 39.5781
Q37.8906 42.2344 35.2812 43.8125
Q32.6719 45.4062 29.1562 45.4062
Q23.5312 45.4062 19.4531 41.8438
Q15.375 38.2812 15.375 28.3281
L15.375 0
z
" id="ArialMT-6e"/>
    </defs>
    <g style="fill:#ac1735;" transform="translate(173.571572055 29.228625)scale(0.144 -0.144)">
     <use xlink:href="#ArialMT-4d"/>
     <use x="83.30078125" xlink:href="#ArialMT-65"/>
     <use x="138.916015625" xlink:href="#ArialMT-61"/>
     <use x="194.53125" xlink:href="#ArialMT-6e"/>
     <use x="250.146484375" xlink:href="#ArialMT-3a"/>
     <use x="277.9296875" xlink:href="#ArialMT-20"/>
     <use x="305.712890625" xlink:href="#ArialMT-32"/>
     <use x="361.328125" xlink:href="#ArialMT-33"/>
     <use x="416.943359375" xlink:href="#ArialMT-2e"/>
     <use x="444.7265625" xlink:href="#ArialMT-31"/>
     <use x="500.341796875" xlink:href="#ArialMT-32"/>
    </g>
   </g>
  </g>
 </g>
 <defs>
  <clipPath id="pc3f9d1480f">
   <rect height="230.3578125" width="400.21171875" x="15.67265625" y="10.8"/>
  </clipPath>
 </defs>
</svg>
