<?xml version="1.0" encoding="utf-8" standalone="no"?>
<!DOCTYPE svg PUBLIC "-//W3C//DTD SVG 1.1//EN"
  "http://www.w3.org/Graphics/SVG/1.1/DTD/svg11.dtd">
<!-- Created with matplotlib (http://matplotlib.org/) -->
<svg height="288pt" version="1.1" viewBox="0 0 432 288" width="432pt" xmlns="http://www.w3.org/2000/svg" xmlns:xlink="http://www.w3.org/1999/xlink">
 <defs>
  <style type="text/css">
*{stroke-linecap:butt;stroke-linejoin:round;}
  </style>
 </defs>
 <g id="figure_1">
  <g id="patch_1">
   <path d="
M0 288
L432 288
L432 0
L0 0
z
" style="fill:#ffffff;"/>
  </g>
  <g id="axes_1">
   <g id="patch_2">
    <path d="
M15.982 241.158
L416.377 241.158
L416.377 10.8
L15.982 10.8
z
" style="fill:#ffffff;"/>
   </g>
   <g id="matplotlib.axis_1">
    <g id="xtick_1">
     <g id="line2d_1">
      <defs>
       <path d="
M0 0
L0 6" id="m44d4eda7dc" style="stroke:#262626;"/>
      </defs>
      <g>
       <use style="fill:#262626;stroke:#262626;" x="15.98203125" xlink:href="#m44d4eda7dc" y="241.1578125"/>
      </g>
     </g>
     <g id="text_1">
      <!-- −2 -->
      <defs>
       <path d="
M52.8281 31.2031
L5.5625 31.2031
L5.5625 39.4062
L52.8281 39.4062
z
" id="ArialMT-2212"/>
       <path d="
M50.3438 8.45312
L50.3438 0
L3.03125 0
Q2.9375 3.17188 4.04688 6.10938
Q5.85938 10.9375 9.82812 15.625
Q13.8125 20.3125 21.3438 26.4688
Q33.0156 36.0312 37.1094 41.625
Q41.2188 47.2188 41.2188 52.2031
Q41.2188 57.4219 37.4688 61
Q33.7344 64.5938 27.7344 64.5938
Q21.3906 64.5938 17.5781 60.7812
Q13.7656 56.9844 13.7188 50.25
L4.6875 51.1719
Q5.60938 61.2812 11.6562 66.5781
Q17.7188 71.875 27.9375 71.875
Q38.2344 71.875 44.2344 66.1562
Q50.25 60.4531 50.25 52
Q50.25 47.7031 48.4844 43.5469
Q46.7344 39.4062 42.6562 34.8125
Q38.5781 30.2188 29.1094 22.2188
Q21.1875 15.5781 18.9375 13.2031
Q16.7031 10.8438 15.2344 8.45312
z
" id="ArialMT-32"/>
      </defs>
      <g style="fill:#262626;" transform="translate(10.82265625 261.315625)scale(0.1 -0.1)">
       <use xlink:href="#ArialMT-2212"/>
       <use x="58.3984375" xlink:href="#ArialMT-32"/>
      </g>
     </g>
    </g>
    <g id="xtick_2">
     <g id="line2d_2">
      <g>
       <use style="fill:#262626;stroke:#262626;" x="73.18125" xlink:href="#m44d4eda7dc" y="241.1578125"/>
      </g>
     </g>
     <g id="text_2">
      <!-- 0 -->
      <defs>
       <path d="
M4.15625 35.2969
Q4.15625 48 6.76562 55.7344
Q9.375 63.4844 14.5156 67.6719
Q19.6719 71.875 27.4844 71.875
Q33.25 71.875 37.5938 69.5469
Q41.9375 67.2344 44.7656 62.8594
Q47.6094 58.5 49.2188 52.2188
Q50.8281 45.9531 50.8281 35.2969
Q50.8281 22.7031 48.2344 14.9688
Q45.6562 7.23438 40.5 3
Q35.3594 -1.21875 27.4844 -1.21875
Q17.1406 -1.21875 11.2344 6.20312
Q4.15625 15.1406 4.15625 35.2969
M13.1875 35.2969
Q13.1875 17.6719 17.3125 11.8281
Q21.4375 6 27.4844 6
Q33.5469 6 37.6719 11.8594
Q41.7969 17.7188 41.7969 35.2969
Q41.7969 52.9844 37.6719 58.7812
Q33.5469 64.5938 27.3906 64.5938
Q21.3438 64.5938 17.7188 59.4688
Q13.1875 52.9375 13.1875 35.2969" id="ArialMT-30"/>
      </defs>
      <g style="fill:#262626;" transform="translate(70.84765625 261.315625)scale(0.1 -0.1)">
       <use xlink:href="#ArialMT-30"/>
      </g>
     </g>
    </g>
    <g id="xtick_3">
     <g id="line2d_3">
      <g>
       <use style="fill:#262626;stroke:#262626;" x="130.38046875" xlink:href="#m44d4eda7dc" y="241.1578125"/>
      </g>
     </g>
     <g id="text_3">
      <!-- 2 -->
      <g style="fill:#262626;" transform="translate(128.01015625 261.315625)scale(0.1 -0.1)">
       <use xlink:href="#ArialMT-32"/>
      </g>
     </g>
    </g>
    <g id="xtick_4">
     <g id="line2d_4">
      <g>
       <use style="fill:#262626;stroke:#262626;" x="187.5796875" xlink:href="#m44d4eda7dc" y="241.1578125"/>
      </g>
     </g>
     <g id="text_4">
      <!-- 4 -->
      <defs>
       <path d="
M32.3281 0
L32.3281 17.1406
L1.26562 17.1406
L1.26562 25.2031
L33.9375 71.5781
L41.1094 71.5781
L41.1094 25.2031
L50.7812 25.2031
L50.7812 17.1406
L41.1094 17.1406
L41.1094 0
z

M32.3281 25.2031
L32.3281 57.4688
L9.90625 25.2031
z
" id="ArialMT-34"/>
      </defs>
      <g style="fill:#262626;" transform="translate(185.10390625 261.315625)scale(0.1 -0.1)">
       <use xlink:href="#ArialMT-34"/>
      </g>
     </g>
    </g>
    <g id="xtick_5">
     <g id="line2d_5">
      <g>
       <use style="fill:#262626;stroke:#262626;" x="244.77890625" xlink:href="#m44d4eda7dc" y="241.1578125"/>
      </g>
     </g>
     <g id="text_5">
      <!-- 6 -->
      <defs>
       <path d="
M49.75 54.0469
L41.0156 53.375
Q39.8438 58.5469 37.7031 60.8906
Q34.125 64.6562 28.9062 64.6562
Q24.7031 64.6562 21.5312 62.3125
Q17.3906 59.2812 14.9844 53.4688
Q12.5938 47.6562 12.5 36.9219
Q15.6719 41.75 20.2656 44.0938
Q24.8594 46.4375 29.8906 46.4375
Q38.6719 46.4375 44.8438 39.9688
Q51.0312 33.5 51.0312 23.25
Q51.0312 16.5 48.125 10.7188
Q45.2188 4.9375 40.1406 1.85938
Q35.0625 -1.21875 28.6094 -1.21875
Q17.625 -1.21875 10.6875 6.85938
Q3.76562 14.9375 3.76562 33.5
Q3.76562 54.25 11.4219 63.6719
Q18.1094 71.875 29.4375 71.875
Q37.8906 71.875 43.2812 67.1406
Q48.6875 62.4062 49.75 54.0469
M13.875 23.1875
Q13.875 18.6562 15.7969 14.5
Q17.7188 10.3594 21.1875 8.17188
Q24.6562 6 28.4688 6
Q34.0312 6 38.0312 10.4844
Q42.0469 14.9844 42.0469 22.7031
Q42.0469 30.125 38.0781 34.3906
Q34.125 38.6719 28.125 38.6719
Q22.1719 38.6719 18.0156 34.3906
Q13.875 30.125 13.875 23.1875" id="ArialMT-36"/>
      </defs>
      <g style="fill:#262626;" transform="translate(242.415625 261.315625)scale(0.1 -0.1)">
       <use xlink:href="#ArialMT-36"/>
      </g>
     </g>
    </g>
    <g id="xtick_6">
     <g id="line2d_6">
      <g>
       <use style="fill:#262626;stroke:#262626;" x="301.978125" xlink:href="#m44d4eda7dc" y="241.1578125"/>
      </g>
     </g>
     <g id="text_6">
      <!-- 8 -->
      <defs>
       <path d="
M17.6719 38.8125
Q12.2031 40.8281 9.5625 44.5312
Q6.9375 48.25 6.9375 53.4219
Q6.9375 61.2344 12.5469 66.5469
Q18.1719 71.875 27.4844 71.875
Q36.8594 71.875 42.5781 66.4219
Q48.2969 60.9844 48.2969 53.1719
Q48.2969 48.1875 45.6719 44.5
Q43.0625 40.8281 37.75 38.8125
Q44.3438 36.6719 47.7812 31.875
Q51.2188 27.0938 51.2188 20.4531
Q51.2188 11.2812 44.7188 5.03125
Q38.2344 -1.21875 27.6406 -1.21875
Q17.0469 -1.21875 10.5469 5.04688
Q4.04688 11.3281 4.04688 20.7031
Q4.04688 27.6875 7.59375 32.3906
Q11.1406 37.1094 17.6719 38.8125
M15.9219 53.7188
Q15.9219 48.6406 19.1875 45.4062
Q22.4688 42.1875 27.6875 42.1875
Q32.7656 42.1875 36.0156 45.375
Q39.2656 48.5781 39.2656 53.2188
Q39.2656 58.0625 35.9062 61.3594
Q32.5625 64.6562 27.5938 64.6562
Q22.5625 64.6562 19.2344 61.4219
Q15.9219 58.2031 15.9219 53.7188
M13.0938 20.6562
Q13.0938 16.8906 14.875 13.375
Q16.6562 9.85938 20.1719 7.92188
Q23.6875 6 27.7344 6
Q34.0312 6 38.125 10.0469
Q42.2344 14.1094 42.2344 20.3594
Q42.2344 26.7031 38.0156 30.8594
Q33.7969 35.0156 27.4375 35.0156
Q21.2344 35.0156 17.1562 30.9062
Q13.0938 26.8125 13.0938 20.6562" id="ArialMT-38"/>
      </defs>
      <g style="fill:#262626;" transform="translate(299.61953125 261.315625)scale(0.1 -0.1)">
       <use xlink:href="#ArialMT-38"/>
      </g>
     </g>
    </g>
    <g id="xtick_7">
     <g id="line2d_7">
      <g>
       <use style="fill:#262626;stroke:#262626;" x="359.17734375" xlink:href="#m44d4eda7dc" y="241.1578125"/>
      </g>
     </g>
     <g id="text_7">
      <!-- 10 -->
      <defs>
       <path d="
M37.25 0
L28.4688 0
L28.4688 56
Q25.2969 52.9844 20.1406 49.9531
Q14.9844 46.9219 10.8906 45.4062
L10.8906 53.9062
Q18.2656 57.375 23.7812 62.2969
Q29.2969 67.2344 31.5938 71.875
L37.25 71.875
z
" id="ArialMT-31"/>
      </defs>
      <g style="fill:#262626;" transform="translate(354.4 261.315625)scale(0.1 -0.1)">
       <use xlink:href="#ArialMT-31"/>
       <use x="55.615234375" xlink:href="#ArialMT-30"/>
      </g>
     </g>
    </g>
    <g id="xtick_8">
     <g id="line2d_8">
      <g>
       <use style="fill:#262626;stroke:#262626;" x="416.3765625" xlink:href="#m44d4eda7dc" y="241.1578125"/>
      </g>
     </g>
     <g id="text_8">
      <!-- 12 -->
      <g style="fill:#262626;" transform="translate(411.6234375 261.315625)scale(0.1 -0.1)">
       <use xlink:href="#ArialMT-31"/>
       <use x="55.615234375" xlink:href="#ArialMT-32"/>
      </g>
     </g>
    </g>
    <g id="text_9">
     <!-- Hourly wage of first job -->
     <defs>
      <path d="
M8.6875 0
L8.6875 45.0156
L0.921875 45.0156
L0.921875 51.8594
L8.6875 51.8594
L8.6875 57.375
Q8.6875 62.5938 9.625 65.1406
Q10.8906 68.5625 14.0781 70.6719
Q17.2812 72.7969 23.0469 72.7969
Q26.7656 72.7969 31.25 71.9219
L29.9375 64.2656
Q27.2031 64.75 24.75 64.75
Q20.75 64.75 19.0938 63.0312
Q17.4375 61.3281 17.4375 56.6406
L17.4375 51.8594
L27.5469 51.8594
L27.5469 45.0156
L17.4375 45.0156
L17.4375 0
z
" id="ArialMT-66"/>
      <path d="
M8.01562 0
L8.01562 71.5781
L17.4844 71.5781
L17.4844 42.1875
L54.6875 42.1875
L54.6875 71.5781
L64.1562 71.5781
L64.1562 0
L54.6875 0
L54.6875 33.7344
L17.4844 33.7344
L17.4844 0
z
" id="ArialMT-48"/>
      <path d="
M40.4375 6.39062
Q35.5469 2.25 31.0312 0.53125
Q26.5156 -1.17188 21.3438 -1.17188
Q12.7969 -1.17188 8.20312 3
Q3.60938 7.17188 3.60938 13.6719
Q3.60938 17.4844 5.34375 20.625
Q7.07812 23.7812 9.89062 25.6875
Q12.7031 27.5938 16.2188 28.5625
Q18.7969 29.25 24.0312 29.8906
Q34.6719 31.1562 39.7031 32.9062
Q39.75 34.7188 39.75 35.2031
Q39.75 40.5781 37.25 42.7812
Q33.8906 45.75 27.25 45.75
Q21.0469 45.75 18.0938 43.5781
Q15.1406 41.4062 13.7188 35.8906
L5.125 37.0625
Q6.29688 42.5781 8.98438 45.9688
Q11.6719 49.3594 16.75 51.1875
Q21.8281 53.0312 28.5156 53.0312
Q35.1562 53.0312 39.2969 51.4688
Q43.4531 49.9062 45.4062 47.5312
Q47.3594 45.1719 48.1406 41.5469
Q48.5781 39.3125 48.5781 33.4531
L48.5781 21.7344
Q48.5781 9.46875 49.1406 6.21875
Q49.7031 2.98438 51.375 0
L42.1875 0
Q40.8281 2.73438 40.4375 6.39062
M39.7031 26.0312
Q34.9062 24.0781 25.3438 22.7031
Q19.9219 21.9219 17.6719 20.9375
Q15.4375 19.9688 14.2031 18.0938
Q12.9844 16.2188 12.9844 13.9219
Q12.9844 10.4062 15.6406 8.0625
Q18.3125 5.71875 23.4375 5.71875
Q28.5156 5.71875 32.4688 7.9375
Q36.4219 10.1562 38.2812 14.0156
Q39.7031 17 39.7031 22.7969
z
" id="ArialMT-61"/>
      <path d="
M4.98438 -4.29688
L13.5312 -5.5625
Q14.0625 -9.51562 16.5 -11.3281
Q19.7812 -13.7656 25.4375 -13.7656
Q31.5469 -13.7656 34.8594 -11.3281
Q38.1875 -8.89062 39.3594 -4.5
Q40.0469 -1.8125 39.9844 6.78125
Q34.2344 0 25.6406 0
Q14.9375 0 9.07812 7.71875
Q3.21875 15.4375 3.21875 26.2188
Q3.21875 33.6406 5.90625 39.9062
Q8.59375 46.1875 13.6875 49.6094
Q18.7969 53.0312 25.6875 53.0312
Q34.8594 53.0312 40.8281 45.6094
L40.8281 51.8594
L48.9219 51.8594
L48.9219 7.03125
Q48.9219 -5.07812 46.4531 -10.125
Q44 -15.1875 38.6406 -18.1094
Q33.2969 -21.0469 25.4844 -21.0469
Q16.2188 -21.0469 10.5 -16.875
Q4.78125 -12.7031 4.98438 -4.29688
M12.25 26.8594
Q12.25 16.6562 16.2969 11.9688
Q20.3594 7.28125 26.4688 7.28125
Q32.5156 7.28125 36.6094 11.9375
Q40.7188 16.6094 40.7188 26.5625
Q40.7188 36.0781 36.5 40.9062
Q32.2812 45.75 26.3125 45.75
Q20.4531 45.75 16.3438 40.9844
Q12.25 36.2344 12.25 26.8594" id="ArialMT-67"/>
      <path d="
M6.20312 -19.9688
L5.21875 -11.7188
Q8.10938 -12.5 10.25 -12.5
Q13.1875 -12.5 14.9375 -11.5156
Q16.7031 -10.5469 17.8281 -8.79688
Q18.6562 -7.46875 20.5156 -2.25
Q20.75 -1.51562 21.2969 -0.09375
L1.60938 51.8594
L11.0781 51.8594
L21.875 21.8281
Q23.9688 16.1094 25.6406 9.8125
Q27.1562 15.875 29.25 21.625
L40.3281 51.8594
L49.125 51.8594
L29.3906 -0.875
Q26.2188 -9.42188 24.4688 -12.6406
Q22.125 -17 19.0938 -19.0156
Q16.0625 -21.0469 11.8594 -21.0469
Q9.32812 -21.0469 6.20312 -19.9688" id="ArialMT-79"/>
      <path d="
M42.0938 16.7031
L51.1719 15.5781
Q49.0312 7.625 43.2188 3.21875
Q37.4062 -1.17188 28.375 -1.17188
Q17 -1.17188 10.3281 5.82812
Q3.65625 12.8438 3.65625 25.4844
Q3.65625 38.5781 10.3906 45.7969
Q17.1406 53.0312 27.875 53.0312
Q38.2812 53.0312 44.875 45.9531
Q51.4688 38.875 51.4688 26.0312
Q51.4688 25.25 51.4219 23.6875
L12.75 23.6875
Q13.2344 15.1406 17.5781 10.5938
Q21.9219 6.0625 28.4219 6.0625
Q33.25 6.0625 36.6719 8.59375
Q40.0938 11.1406 42.0938 16.7031
M13.2344 30.9062
L42.1875 30.9062
Q41.6094 37.4531 38.875 40.7188
Q34.6719 45.7969 27.9844 45.7969
Q21.9219 45.7969 17.7969 41.75
Q13.6719 37.7031 13.2344 30.9062" id="ArialMT-65"/>
      <path d="
M14.7031 0
L6.54688 0
L6.54688 71.5781
L15.3281 71.5781
L15.3281 46.0469
Q20.9062 53.0312 29.5469 53.0312
Q34.3281 53.0312 38.5938 51.0938
Q42.875 49.1719 45.625 45.6719
Q48.3906 42.1875 49.9531 37.25
Q51.5156 32.3281 51.5156 26.7031
Q51.5156 13.375 44.9219 6.09375
Q38.3281 -1.17188 29.1094 -1.17188
Q19.9219 -1.17188 14.7031 6.5
z

M14.5938 26.3125
Q14.5938 17 17.1406 12.8438
Q21.2969 6.0625 28.375 6.0625
Q34.125 6.0625 38.3281 11.0625
Q42.5312 16.0625 42.5312 25.9844
Q42.5312 36.1406 38.5 40.9688
Q34.4688 45.7969 28.7656 45.7969
Q23 45.7969 18.7969 40.7969
Q14.5938 35.7969 14.5938 26.3125" id="ArialMT-62"/>
      <path d="
M25.7812 7.85938
L27.0469 0.09375
Q23.3438 -0.6875 20.4062 -0.6875
Q15.625 -0.6875 12.9844 0.828125
Q10.3594 2.34375 9.28125 4.8125
Q8.20312 7.28125 8.20312 15.1875
L8.20312 45.0156
L1.76562 45.0156
L1.76562 51.8594
L8.20312 51.8594
L8.20312 64.7031
L16.9375 69.9688
L16.9375 51.8594
L25.7812 51.8594
L25.7812 45.0156
L16.9375 45.0156
L16.9375 14.7031
Q16.9375 10.9375 17.4062 9.85938
Q17.875 8.79688 18.9219 8.15625
Q19.9688 7.51562 21.9219 7.51562
Q23.3906 7.51562 25.7812 7.85938" id="ArialMT-74"/>
      <path d="
M40.5781 0
L40.5781 7.625
Q34.5156 -1.17188 24.125 -1.17188
Q19.5312 -1.17188 15.5469 0.578125
Q11.5781 2.34375 9.64062 5
Q7.71875 7.67188 6.9375 11.5312
Q6.39062 14.1094 6.39062 19.7344
L6.39062 51.8594
L15.1875 51.8594
L15.1875 23.0938
Q15.1875 16.2188 15.7188 13.8125
Q16.5469 10.3594 19.2344 8.375
Q21.9219 6.39062 25.875 6.39062
Q29.8281 6.39062 33.2969 8.42188
Q36.7656 10.4531 38.2031 13.9375
Q39.6562 17.4375 39.6562 24.0781
L39.6562 51.8594
L48.4375 51.8594
L48.4375 0
z
" id="ArialMT-75"/>
      <path d="
M6.64062 61.4688
L6.64062 71.5781
L15.4375 71.5781
L15.4375 61.4688
z

M6.64062 0
L6.64062 51.8594
L15.4375 51.8594
L15.4375 0
z
" id="ArialMT-69"/>
      <path d="
M16.1562 0
L0.296875 51.8594
L9.375 51.8594
L17.625 21.9219
L20.7031 10.7969
Q20.9062 11.625 23.3906 21.4844
L31.6406 51.8594
L40.6719 51.8594
L48.4375 21.7812
L51.0312 11.8594
L54 21.875
L62.8906 51.8594
L71.4375 51.8594
L55.2188 0
L46.0938 0
L37.8438 31.0625
L35.8438 39.8906
L25.3438 0
z
" id="ArialMT-77"/>
      <path d="
M6.5 0
L6.5 51.8594
L14.4062 51.8594
L14.4062 44
Q17.4375 49.5156 20 51.2656
Q22.5625 53.0312 25.6406 53.0312
Q30.0781 53.0312 34.6719 50.2031
L31.6406 42.0469
Q28.4219 43.9531 25.2031 43.9531
Q22.3125 43.9531 20.0156 42.2188
Q17.7188 40.4844 16.75 37.4062
Q15.2812 32.7188 15.2812 27.1562
L15.2812 0
z
" id="ArialMT-72"/>
      <path d="
M3.07812 15.4844
L11.7656 16.8438
Q12.5 11.625 15.8438 8.84375
Q19.1875 6.0625 25.2031 6.0625
Q31.25 6.0625 34.1719 8.51562
Q37.1094 10.9844 37.1094 14.3125
Q37.1094 17.2812 34.5156 19
Q32.7188 20.1719 25.5312 21.9688
Q15.875 24.4219 12.1406 26.2031
Q8.40625 27.9844 6.46875 31.125
Q4.54688 34.2812 4.54688 38.0938
Q4.54688 41.5469 6.125 44.5
Q7.71875 47.4688 10.4531 49.4219
Q12.5 50.9219 16.0312 51.9688
Q19.5781 53.0312 23.6406 53.0312
Q29.7344 53.0312 34.3438 51.2656
Q38.9688 49.5156 41.1562 46.5
Q43.3594 43.5 44.1875 38.4844
L35.5938 37.3125
Q35.0156 41.3125 32.2031 43.5469
Q29.3906 45.7969 24.2656 45.7969
Q18.2188 45.7969 15.625 43.7969
Q13.0312 41.7969 13.0312 39.1094
Q13.0312 37.4062 14.1094 36.0312
Q15.1875 34.625 17.4844 33.6875
Q18.7969 33.2031 25.25 31.4531
Q34.5781 28.9531 38.25 27.3594
Q41.9375 25.7812 44.0312 22.75
Q46.1406 19.7344 46.1406 15.2344
Q46.1406 10.8438 43.5781 6.95312
Q41.0156 3.07812 36.1719 0.953125
Q31.3438 -1.17188 25.25 -1.17188
Q15.1406 -1.17188 9.84375 3.03125
Q4.54688 7.23438 3.07812 15.4844" id="ArialMT-73"/>
      <path d="
M6.39062 0
L6.39062 71.5781
L15.1875 71.5781
L15.1875 0
z
" id="ArialMT-6c"/>
      <path d="
M6.54688 61.375
L6.54688 71.5781
L15.3281 71.5781
L15.3281 61.375
z

M-4.59375 -20.125
L-2.9375 -12.6406
Q-0.296875 -13.3281 1.21875 -13.3281
Q3.90625 -13.3281 5.21875 -11.5469
Q6.54688 -9.76562 6.54688 -2.64062
L6.54688 51.8594
L15.3281 51.8594
L15.3281 -2.82812
Q15.3281 -12.4062 12.8438 -16.1562
Q9.67188 -21.0469 2.29688 -21.0469
Q-1.26562 -21.0469 -4.59375 -20.125" id="ArialMT-6a"/>
      <path d="
M3.32812 25.9219
Q3.32812 40.3281 11.3281 47.2656
Q18.0156 53.0312 27.6406 53.0312
Q38.3281 53.0312 45.1094 46.0156
Q51.9062 39.0156 51.9062 26.6562
Q51.9062 16.6562 48.9062 10.9062
Q45.9062 5.17188 40.1562 2
Q34.4219 -1.17188 27.6406 -1.17188
Q16.75 -1.17188 10.0312 5.8125
Q3.32812 12.7969 3.32812 25.9219
M12.3594 25.9219
Q12.3594 15.9688 16.7031 11.0156
Q21.0469 6.0625 27.6406 6.0625
Q34.1875 6.0625 38.5312 11.0312
Q42.875 16.0156 42.875 26.2188
Q42.875 35.8438 38.5 40.7969
Q34.125 45.75 27.6406 45.75
Q21.0469 45.75 16.7031 40.8125
Q12.3594 35.8906 12.3594 25.9219" id="ArialMT-6f"/>
      <path id="ArialMT-20"/>
     </defs>
     <g style="fill:#262626;" transform="translate(160.467734375 276.31078125)scale(0.11 -0.11)">
      <use xlink:href="#ArialMT-48"/>
      <use x="72.216796875" xlink:href="#ArialMT-6f"/>
      <use x="127.83203125" xlink:href="#ArialMT-75"/>
      <use x="183.447265625" xlink:href="#ArialMT-72"/>
      <use x="216.748046875" xlink:href="#ArialMT-6c"/>
      <use x="238.96484375" xlink:href="#ArialMT-79"/>
      <use x="288.96484375" xlink:href="#ArialMT-20"/>
      <use x="316.748046875" xlink:href="#ArialMT-77"/>
      <use x="388.96484375" xlink:href="#ArialMT-61"/>
      <use x="444.580078125" xlink:href="#ArialMT-67"/>
      <use x="500.1953125" xlink:href="#ArialMT-65"/>
      <use x="555.810546875" xlink:href="#ArialMT-20"/>
      <use x="583.59375" xlink:href="#ArialMT-6f"/>
      <use x="639.208984375" xlink:href="#ArialMT-66"/>
      <use x="666.9921875" xlink:href="#ArialMT-20"/>
      <use x="694.775390625" xlink:href="#ArialMT-66"/>
      <use x="722.55859375" xlink:href="#ArialMT-69"/>
      <use x="744.775390625" xlink:href="#ArialMT-72"/>
      <use x="778.076171875" xlink:href="#ArialMT-73"/>
      <use x="828.076171875" xlink:href="#ArialMT-74"/>
      <use x="855.859375" xlink:href="#ArialMT-20"/>
      <use x="883.642578125" xlink:href="#ArialMT-6a"/>
      <use x="905.859375" xlink:href="#ArialMT-6f"/>
      <use x="961.474609375" xlink:href="#ArialMT-62"/>
     </g>
    </g>
   </g>
   <g id="matplotlib.axis_2"/>
   <g id="PolyCollection_1">
    <defs>
     <path d="
M54.5915 -177.221
L54.5915 -146.821
L57.7115 -144.975
L60.8314 -143.103
L63.9514 -141.242
L67.0713 -139.432
L70.1913 -137.716
L73.3112 -136.136
L76.4312 -134.733
L79.5512 -133.546
L82.6711 -132.607
L85.7911 -131.942
L88.911 -131.572
L92.031 -131.505
L95.1509 -131.742
L98.2709 -132.275
L101.391 -133.085
L104.511 -134.146
L107.631 -135.424
L110.751 -136.878
L113.871 -138.464
L116.991 -140.134
L120.111 -141.84
L123.231 -143.533
L126.351 -145.169
L129.47 -146.705
L132.59 -148.103
L135.71 -149.332
L138.83 -150.367
L141.95 -151.189
L145.07 -151.789
L148.19 -152.163
L151.31 -152.315
L154.43 -152.256
L157.55 -152.004
L160.67 -151.582
L163.79 -151.019
L166.91 -150.35
L170.03 -149.609
L173.15 -148.836
L176.27 -148.068
L179.39 -147.343
L182.51 -146.696
L185.63 -146.157
L188.75 -145.75
L191.87 -145.491
L194.99 -145.392
L198.11 -145.45
L201.23 -145.659
L204.349 -145.999
L207.469 -146.444
L210.589 -146.96
L213.709 -147.505
L216.829 -148.032
L219.949 -148.489
L223.069 -148.823
L226.189 -148.978
L229.309 -148.9
L232.429 -148.537
L235.549 -147.843
L238.669 -146.774
L241.789 -145.296
L244.909 -143.384
L248.029 -141.023
L251.149 -138.211
L254.269 -134.956
L257.389 -131.281
L260.509 -127.224
L263.629 -122.834
L266.749 -118.174
L269.869 -113.317
L272.989 -108.344
L276.108 -103.344
L279.228 -98.4089
L282.348 -93.6311
L285.468 -89.1003
L288.588 -84.9011
L291.708 -81.1101
L294.828 -77.7944
L297.948 -75.0098
L301.068 -72.8001
L304.188 -71.197
L307.308 -70.2202
L310.428 -69.878
L313.548 -70.1681
L316.668 -71.0786
L319.788 -72.5886
L322.908 -74.6693
L326.028 -77.2842
L329.148 -80.3899
L332.268 -83.9366
L335.388 -87.8683
L338.508 -92.1237
L341.628 -96.637
L344.748 -101.339
L347.867 -106.158
L350.987 -111.023
L354.107 -115.863
L357.227 -120.612
L360.347 -125.209
L363.467 -129.599
L363.467 -194.443
L363.467 -194.443
L360.347 -198.833
L357.227 -203.43
L354.107 -208.179
L350.987 -213.019
L347.867 -217.884
L344.748 -222.703
L341.628 -227.405
L338.508 -231.919
L335.388 -236.174
L332.268 -240.106
L329.148 -243.652
L326.028 -246.758
L322.908 -249.373
L319.788 -251.454
L316.668 -252.964
L313.548 -253.874
L310.428 -254.164
L307.308 -253.822
L304.188 -252.845
L301.068 -251.242
L297.948 -249.032
L294.828 -246.248
L291.708 -242.932
L288.588 -239.141
L285.468 -234.942
L282.348 -230.411
L279.228 -225.633
L276.108 -220.698
L272.989 -215.698
L269.869 -210.725
L266.749 -205.868
L263.629 -201.208
L260.509 -196.818
L257.389 -192.761
L254.269 -189.087
L251.149 -185.832
L248.029 -183.019
L244.909 -180.658
L241.789 -178.746
L238.669 -177.269
L235.549 -176.2
L232.429 -175.505
L229.309 -175.142
L226.189 -175.065
L223.069 -175.22
L219.949 -175.553
L216.829 -176.01
L213.709 -176.537
L210.589 -177.082
L207.469 -177.598
L204.349 -178.043
L201.23 -178.383
L198.11 -178.592
L194.99 -178.651
L191.87 -178.551
L188.75 -178.293
L185.63 -177.885
L182.51 -177.346
L179.39 -176.699
L176.27 -175.974
L173.15 -175.207
L170.03 -174.433
L166.91 -173.693
L163.79 -173.023
L160.67 -172.46
L157.55 -172.039
L154.43 -171.786
L151.31 -171.727
L148.19 -171.879
L145.07 -172.253
L141.95 -172.853
L138.83 -173.676
L135.71 -174.711
L132.59 -175.939
L129.47 -177.338
L126.351 -178.873
L123.231 -180.509
L120.111 -182.202
L116.991 -183.908
L113.871 -185.579
L110.751 -187.165
L107.631 -188.619
L104.511 -189.896
L101.391 -190.957
L98.2709 -191.767
L95.1509 -192.3
L92.031 -192.537
L88.911 -192.47
L85.7911 -192.1
L82.6711 -191.436
L79.5512 -190.497
L76.4312 -189.309
L73.3112 -187.906
L70.1913 -186.326
L67.0713 -184.61
L63.9514 -182.8
L60.8314 -180.939
L57.7115 -179.067
L54.5915 -177.221
z
" id="mb94648e8ea" style="stroke:#dcdddd;stroke-width:0.3;"/>
    </defs>
    <g clip-path="url(#p090f5bfc83)">
     <use style="fill:#dcdddd;stroke:#dcdddd;stroke-width:0.3;" x="0.0" xlink:href="#mb94648e8ea" y="288.0"/>
    </g>
   </g>
   <g id="line2d_9">
    <path clip-path="url(#p090f5bfc83)" d="
M80.3312 154.714
L80.3312 97.2443" style="fill:none;stroke:#848484;stroke-linecap:round;stroke-width:0.8;"/>
   </g>
   <g id="line2d_10">
    <path clip-path="url(#p090f5bfc83)" d="
M330.578 206.036
L330.578 45.9218" style="fill:none;stroke:#848484;stroke-linecap:round;stroke-width:0.8;"/>
   </g>
   <g id="line2d_11">
    <path clip-path="url(#p090f5bfc83)" d="
M330.578 206.036
L330.578 45.9218" style="fill:none;stroke:#848484;stroke-linecap:round;stroke-width:0.8;"/>
   </g>
   <g id="line2d_12">
    <path clip-path="url(#p090f5bfc83)" d="
M301.978 215.731
L301.978 36.2266" style="fill:none;stroke:#848484;stroke-linecap:round;stroke-width:0.8;"/>
   </g>
   <g id="line2d_13">
    <path clip-path="url(#p090f5bfc83)" d="
M301.978 215.731
L301.978 36.2266" style="fill:none;stroke:#848484;stroke-linecap:round;stroke-width:0.8;"/>
   </g>
   <g id="line2d_14">
    <path clip-path="url(#p090f5bfc83)" d="
M101.781 154.795
L101.781 97.1625" style="fill:none;stroke:#848484;stroke-linecap:round;stroke-width:0.8;"/>
   </g>
   <g id="line2d_15">
    <path clip-path="url(#p090f5bfc83)" d="
M337.728 196.967
L337.728 54.9908" style="fill:none;stroke:#848484;stroke-linecap:round;stroke-width:0.8;"/>
   </g>
   <g id="line2d_16">
    <path clip-path="url(#p090f5bfc83)" d="
M287.678 201.913
L287.678 50.0447" style="fill:none;stroke:#848484;stroke-linecap:round;stroke-width:0.8;"/>
   </g>
   <g id="line2d_17">
    <path clip-path="url(#p090f5bfc83)" d="
M194.73 142.606
L194.73 109.352" style="fill:none;stroke:#848484;stroke-linecap:round;stroke-width:0.8;"/>
   </g>
   <g id="line2d_18">
    <path clip-path="url(#p090f5bfc83)" d="
M290.538 205.521
L290.538 46.4372" style="fill:none;stroke:#848484;stroke-linecap:round;stroke-width:0.8;"/>
   </g>
   <g id="line2d_19">
    <path clip-path="url(#p090f5bfc83)" d="
M54.5915 141.179
L57.7115 143.025
L60.8314 144.897
L63.9514 146.758
L67.0713 148.568
L70.1913 150.284
L73.3112 151.864
L76.4312 153.267
L79.5512 154.454
L82.6711 155.393
L85.7911 156.058
L88.911 156.428
L92.031 156.495
L95.1509 156.258
L98.2709 155.725
L101.391 154.915
L104.511 153.854
L107.631 152.576
L110.751 151.122
L113.871 149.536
L116.991 147.866
L120.111 146.16
L123.231 144.467
L126.351 142.831
L129.47 141.295
L132.59 139.897
L135.71 138.668
L138.83 137.633
L141.95 136.811
L145.07 136.211
L148.19 135.837
L151.31 135.685
L154.43 135.744
L157.55 135.996
L160.67 136.418
L163.79 136.981
L166.91 137.65
L170.03 138.391
L173.15 139.164
L176.27 139.932
L179.39 140.657
L182.51 141.304
L185.63 141.843
L188.75 142.25
L191.87 142.509
L194.99 142.608
L198.11 142.55
L201.23 142.341
L204.349 142.001
L207.469 141.556
L210.589 141.04
L213.709 140.495
L216.829 139.968
L219.949 139.511
L223.069 139.177
L226.189 139.022
L229.309 139.1
L232.429 139.463
L235.549 140.157
L238.669 141.226
L241.789 142.704
L244.909 144.616
L248.029 146.977
L251.149 149.789
L254.269 153.044
L257.389 156.719
L260.509 160.776
L263.629 165.166
L266.749 169.826
L269.869 174.683
L272.989 179.656
L276.108 184.656
L279.228 189.591
L282.348 194.369
L285.468 198.9
L288.588 203.099
L291.708 206.89
L294.828 210.206
L297.948 212.99
L301.068 215.2
L304.188 216.803
L307.308 217.78
L310.428 218.122
L313.548 217.832
L316.668 216.921
L319.788 215.411
L322.908 213.331
L326.028 210.716
L329.148 207.61
L332.268 204.063
L335.388 200.132
L338.508 195.876
L341.628 191.363
L344.748 186.661
L347.867 181.842
L350.987 176.977
L354.107 172.137
L357.227 167.388
L360.347 162.791
L363.467 158.401" style="fill:none;stroke:#848484;stroke-linecap:round;stroke-width:2;"/>
   </g>
   <g id="line2d_20">
    <path clip-path="url(#p090f5bfc83)" d="
M54.5915 110.779
L57.7115 108.933
L60.8314 107.061
L63.9514 105.2
L67.0713 103.39
L70.1913 101.674
L73.3112 100.094
L76.4312 98.6909
L79.5512 97.5035
L82.6711 96.5644
L85.7911 95.9002
L88.911 95.5297
L92.031 95.4628
L95.1509 95.7001
L98.2709 96.2329
L101.391 97.043
L104.511 98.1038
L107.631 99.3814
L110.751 100.835
L113.871 102.421
L116.991 104.092
L120.111 105.798
L123.231 107.491
L126.351 109.127
L129.47 110.662
L132.59 112.061
L135.71 113.289
L138.83 114.324
L141.95 115.147
L145.07 115.747
L148.19 116.121
L151.31 116.273
L154.43 116.214
L157.55 115.961
L160.67 115.54
L163.79 114.977
L166.91 114.307
L170.03 113.567
L173.15 112.793
L176.27 112.026
L179.39 111.301
L182.51 110.654
L185.63 110.115
L188.75 109.707
L191.87 109.449
L194.99 109.349
L198.11 109.408
L201.23 109.617
L204.349 109.957
L207.469 110.402
L210.589 110.918
L213.709 111.463
L216.829 111.99
L219.949 112.447
L223.069 112.78
L226.189 112.935
L229.309 112.858
L232.429 112.495
L235.549 111.8
L238.669 110.731
L241.789 109.254
L244.909 107.342
L248.029 104.981
L251.149 102.168
L254.269 98.9134
L257.389 95.239
L260.509 91.182
L263.629 86.7923
L266.749 82.1321
L269.869 77.2745
L272.989 72.3016
L276.108 67.3018
L279.228 62.3667
L282.348 57.5889
L285.468 53.0581
L288.588 48.8589
L291.708 45.068
L294.828 41.7523
L297.948 38.9676
L301.068 36.7579
L304.188 35.1548
L307.308 34.178
L310.428 33.8358
L313.548 34.1259
L316.668 35.0364
L319.788 36.5464
L322.908 38.6271
L326.028 41.242
L329.148 44.3477
L332.268 47.8944
L335.388 51.8261
L338.508 56.0815
L341.628 60.5948
L344.748 65.2967
L347.867 70.1159
L350.987 74.9807
L354.107 79.8211
L357.227 84.5703
L360.347 89.1669
L363.467 93.5565" style="fill:none;stroke:#848484;stroke-linecap:round;stroke-width:2;"/>
   </g>
   <g id="line2d_21">
    <path clip-path="url(#p090f5bfc83)" d="
M255.79 241.158
L255.79 10.8" style="fill:none;stroke:#ac1735;stroke-linecap:round;stroke-width:2;"/>
   </g>
   <g id="patch_3">
    <path d="
M15.982 241.158
L416.377 241.158" style="fill:none;stroke:#262626;stroke-linecap:square;stroke-linejoin:miter;stroke-width:1.25;"/>
   </g>
   <g id="text_10">
    <!-- Mean: 6.38 -->
    <defs>
     <path d="
M9.03125 41.8438
L9.03125 51.8594
L19.0469 51.8594
L19.0469 41.8438
z

M9.03125 0
L9.03125 10.0156
L19.0469 10.0156
L19.0469 0
z
" id="ArialMT-3a"/>
     <path d="
M9.07812 0
L9.07812 10.0156
L19.0938 10.0156
L19.0938 0
z
" id="ArialMT-2e"/>
     <path d="
M4.20312 18.8906
L12.9844 20.0625
Q14.5 12.5938 18.1406 9.29688
Q21.7812 6 27 6
Q33.2031 6 37.4688 10.2969
Q41.75 14.5938 41.75 20.9531
Q41.75 27 37.7969 30.9219
Q33.8438 34.8594 27.7344 34.8594
Q25.25 34.8594 21.5312 33.8906
L22.5156 41.6094
Q23.3906 41.5 23.9219 41.5
Q29.5469 41.5 34.0312 44.4219
Q38.5312 47.3594 38.5312 53.4688
Q38.5312 58.2969 35.25 61.4688
Q31.9844 64.6562 26.8125 64.6562
Q21.6875 64.6562 18.2656 61.4219
Q14.8438 58.2031 13.875 51.7656
L5.07812 53.3281
Q6.6875 62.1562 12.3906 67.0156
Q18.1094 71.875 26.6094 71.875
Q32.4688 71.875 37.3906 69.3594
Q42.3281 66.8438 44.9375 62.5
Q47.5625 58.1562 47.5625 53.2656
Q47.5625 48.6406 45.0625 44.8281
Q42.5781 41.0156 37.7031 38.7656
Q44.0469 37.3125 47.5625 32.6875
Q51.0781 28.0781 51.0781 21.1406
Q51.0781 11.7656 44.2344 5.25
Q37.4062 -1.26562 26.9531 -1.26562
Q17.5312 -1.26562 11.2969 4.34375
Q5.07812 9.96875 4.20312 18.8906" id="ArialMT-33"/>
     <path d="
M7.42188 0
L7.42188 71.5781
L21.6875 71.5781
L38.625 20.9062
Q40.9688 13.8125 42.0469 10.2969
Q43.2656 14.2031 45.8438 21.7812
L62.9844 71.5781
L75.7344 71.5781
L75.7344 0
L66.6094 0
L66.6094 59.9062
L45.7969 0
L37.25 0
L16.5469 60.9375
L16.5469 0
z
" id="ArialMT-4d"/>
     <path d="
M6.59375 0
L6.59375 51.8594
L14.5 51.8594
L14.5 44.4844
Q20.2188 53.0312 31 53.0312
Q35.6875 53.0312 39.625 51.3438
Q43.5625 49.6562 45.5156 46.9219
Q47.4688 44.1875 48.25 40.4375
Q48.7344 37.9844 48.7344 31.8906
L48.7344 0
L39.9375 0
L39.9375 31.5469
Q39.9375 36.9219 38.9062 39.5781
Q37.8906 42.2344 35.2812 43.8125
Q32.6719 45.4062 29.1562 45.4062
Q23.5312 45.4062 19.4531 41.8438
Q15.375 38.2812 15.375 28.3281
L15.375 0
z
" id="ArialMT-6e"/>
    </defs>
    <g style="fill:#ac1735;" transform="translate(261.268011035 29.228625)scale(0.144 -0.144)">
     <use xlink:href="#ArialMT-4d"/>
     <use x="83.30078125" xlink:href="#ArialMT-65"/>
     <use x="138.916015625" xlink:href="#ArialMT-61"/>
     <use x="194.53125" xlink:href="#ArialMT-6e"/>
     <use x="250.146484375" xlink:href="#ArialMT-3a"/>
     <use x="277.9296875" xlink:href="#ArialMT-20"/>
     <use x="305.712890625" xlink:href="#ArialMT-36"/>
     <use x="361.328125" xlink:href="#ArialMT-2e"/>
     <use x="389.111328125" xlink:href="#ArialMT-33"/>
     <use x="444.7265625" xlink:href="#ArialMT-38"/>
    </g>
   </g>
  </g>
 </g>
 <defs>
  <clipPath id="p090f5bfc83">
   <rect height="230.3578125" width="400.39453125" x="15.98203125" y="10.8"/>
  </clipPath>
 </defs>
</svg>
